0
SECTION
2
ENTITIES
0
LWPOLYLINE
8
0
90
4
70
1
10
0
20
0
10
1200
20
0
10
1200
20
620
10
0
20
620
0
SEQEND
0
LWPOLYLINE
8
Holes
90
12
70
1
10
67.57218647291792
20
97.02887458916717
42
0.13165
10
71.90805468524353
20
96.07063947053015
42
0.13165
10
74.28697707504354
20
95.051101303473
42
0.13165
10
76.85695338177052
20
95.3576165455737
42
0.13165
10
78.92936052946985
20
96.90805468524353
42
0.13165
10
79.948898696527
20
99.28697707504354
42
0.13165
10
79.6423834544263
20
101.85695338177052
42
0.13165
10
78.09194531475647
20
103.92936052946985
42
0.13165
10
75.71302292495645
20
104.948898696527
42
0.13165
10
73.14304661822948
20
104.6423834544263
42
0.13165
10
71.07063947053015
20
103.09194531475647
42
0.13165
10
70.051101303473
20
100.71302292495645
42
0.13165
0
SEQEND
0
LWPOLYLINE
8
Holes
90
12
70
1
10
92.62414315514111
20
96.90214012515926
42
0.13165
10
96.97578158443451
20
96.01827889287125
42
0.13165
10
99.37181057909194
20
95.03961916265906
42
0.13165
10
101.93616242177546
20
95.3900894719632
42
0.13165
10
103.98172110712875
20
96.97578158443451
42
0.13165
10
104.96038083734094
20
99.37181057909194
42
0.13165
10
104.6099105280368
20
101.93616242177546
42
0.13165
10
103.02421841556549
20
103.98172110712875
42
0.13165
10
100.62818942090806
20
104.96038083734094
42
0.13165
10
98.06383757822454
20
104.6099105280368
42
0.13165
10
96.01827889287125
20
103.02421841556549
42
0.13165
10
95.03961916265906
20
100.62818942090806
42
0.13165
0
SEQEND
0
LWPOLYLINE
8
Holes
90
12
70
1
10
117.68316947729745
20
96.76519071627888
42
0.13165
10
122.05052720875923
20
95.96259857659281
42
0.13165
10
124.4643823467181
20
95.02877140643353
42
0.13165
10
127.0217558023257
20
95.42698092331091
42
0.13165
10
129.0374014234072
20
97.05052720875923
42
0.13165
10
129.97122859356645
20
99.4643823467181
42
0.13165
10
129.5730190766891
20
102.0217558023257
42
0.13165
10
127.94947279124077
20
104.03740142340719
42
0.13165
10
125.5356176532819
20
104.97122859356647
42
0.13165
10
122.9782441976743
20
104.57301907668909
42
0.13165
10
120.96259857659281
20
102.94947279124077
42
0.13165
10
120.02877140643353
20
100.53561765328189
42
0.13165
0
SEQEND
0
LWPOLYLINE
8
Holes
90
12
70
1
10
142.7505348800379
20
96.61691627735101
42
0.13165
10
147.13332556474256
20
95.90339437067206
42
0.13165
10
149.5656899293516
20
95.01889823808693
42
0.13165
10
152.11442732665563
20
95.46908430002367
42
0.13165
10
154.09660562932794
20
97.13332556474256
42
0.13165
10
154.98110176191307
20
99.56568992935162
42
0.13165
10
154.53091569997633
20
102.11442732665562
42
0.13165
10
152.86667443525744
20
104.09660562932795
42
0.13165
10
150.43431007064837
20
104.98110176191307
42
0.13165
10
147.88557267334437
20
104.53091569997633
42
0.13165
10
145.90339437067206
20
102.86667443525744
42
0.13165
10
145.01889823808693
20
100.43431007064838
42
0.13165
0
SEQEND
0
LWPOLYLINE
8
Holes
90
12
70
1
10
167.8277862773795
20
96.45608263117575
42
0.13165
10
172.22539962453214
20
95.84048166773441
42
0.13165
10
174.67688475562778
20
95.01045126901698
42
0.13165
10
177.21494835551516
20
95.51736642336219
42
0.13165
10
179.1595183322656
20
97.22539962453213
42
0.13165
10
179.98954873098302
20
99.67688475562778
42
0.13165
10
179.48263357663782
20
102.21494835551515
42
0.13165
10
177.77460037546786
20
104.15951833226559
42
0.13165
10
175.32311524437222
20
104.98954873098302
42
0.13165
10
172.78505164448484
20
104.48263357663781
42
0.13165
10
170.8404816677344
20
102.77460037546787
42
0.13165
10
170.01045126901698
20
100.32311524437222
42
0.13165
0
SEQEND
0
LWPOLYLINE
8
Holes
90
12
70
1
10
192.91681677729645
20
96.28132880808064
42
0.13165
10
197.32819936589917
20
95.77371541757793
42
0.13165
10
199.79929506823234
20
95.00402987094958
42
0.13165
10
202.32416949494962
20
95.57301048581029
42
0.13165
10
204.22628458242207
20
97.32819936589917
42
0.13165
10
204.99597012905042
20
99.79929506823234
42
0.13165
10
204.42698951418973
20
102.3241694949496
42
0.13165
10
202.67180063410083
20
104.22628458242207
42
0.13165
10
200.20070493176766
20
104.99597012905042
42
0.13165
10
197.67583050505038
20
104.42698951418971
42
0.13165
10
195.77371541757793
20
102.67180063410082
42
0.13165
10
195.00402987094958
20
100.20070493176766
42
0.13165
0
SEQEND
0
LWPOLYLINE
8
Holes
90
12
70
1
10
218.01995187240223
20
96.09117304854526
42
0.13165
10
222.44344654849357
20
95.70302031077752
42
0.13165
10
224.9344496094739
20
95.00042970383436
42
0.13165
10
227.4430168446592
20
95.6374699202514
42
0.13165
10
229.2969796892225
20
97.44344654849357
42
0.13165
10
229.99957029616564
20
99.93444960947389
42
0.13165
10
229.3625300797486
20
102.44301684465921
42
0.13165
10
227.55655345150643
20
104.29697968922248
42
0.13165
10
225.0655503905261
20
104.99957029616564
42
0.13165
10
222.5569831553408
20
104.3625300797486
42
0.13165
10
220.7030203107775
20
102.55655345150643
42
0.13165
10
220.00042970383436
20
100.06555039052611
42
0.13165
0
SEQEND
0
LWPOLYLINE
8
Holes
90
12
70
1
10
243.14005659429964
20
95.88403395657978
42
0.13165
10
247.57318610240628
20
95.62843571402112
42
0.13165
10
250.08409965741615
20
95.00070732526865
42
0.13165
10
252.57247877713763
20
95.71253537143728
42
0.13165
10
254.37156428597888
20
97.57318610240628
42
0.13165
10
254.99929267473135
20
100.08409965741616
42
0.13165
10
254.28746462856273
20
102.57247877713763
42
0.13165
10
252.42681389759372
20
104.37156428597888
42
0.13165
10
249.91590034258385
20
104.99929267473135
42
0.13165
10
247.42752122286237
20
104.28746462856272
42
0.13165
10
245.62843571402112
20
102.42681389759372
42
0.13165
10
245.00070732526865
20
99.91590034258384
42
0.13165
0
SEQEND
0
LWPOLYLINE
8
Holes
90
12
70
1
10
268.2806666520275
20
95.65827691361775
42
0.13165
10
272.71984260459436
20
95.55018177313084
42
0.13165
10
275.2502348843863
20
95.00626567560546
42
0.13165
10
277.7135769289889
20
95.80041665751718
42
0.13165
10
279.4498182268692
20
97.71984260459436
42
0.13165
10
279.99373432439455
20
100.25023488438634
42
0.13165
10
279.1995833424828
20
102.7135769289889
42
0.13165
10
277.28015739540564
20
104.44981822686916
42
0.13165
10
274.7497651156137
20
104.99373432439454
42
0.13165
10
272.2864230710111
20
104.19958334248282
42
0.13165
10
270.5501817731308
20
102.28015739540564
42
0.13165
10
270.00626567560545
20
99.74976511561366
42
0.13165
0
SEQEND
0
LWPOLYLINE
8
Holes
90
12
70
1
10
293.4461446358477
20
95.41230124509337
42
0.13165
10
297.8862775871053
20
95.46875540704029
42
0.13165
10
300.4350849903645
20
95.01896586528866
42
0.13165
10
302.86731172181663
20
95.90384039740479
42
0.13165
10
304.5312445929597
20
97.8862775871053
42
0.13165
10
304.9810341347113
20
100.43508499036452
42
0.13165
10
304.0961596025952
20
102.86731172181663
42
0.13165
10
302.1137224128947
20
104.53124459295971
42
0.13165
10
299.5649150096355
20
104.98103413471134
42
0.13165
10
297.13268827818337
20
104.09615960259521
42
0.13165
10
295.4687554070403
20
102.1137224128947
42
0.13165
10
295.0189658652887
20
99.56491500963548
42
0.13165
0
SEQEND
0
LWPOLYLINE
8
Holes
90
12
70
1
10
318.64185748858614
20
95.14469117310216
42
0.13165
10
323.0758384235517
20
95.38506747311295
42
0.13165
10
325.6410934572534
20
95.04127040674057
42
0.13165
10
328.03456801681114
20
96.02616093036634
42
0.13165
10
329.61493252688706
20
98.07583842355172
42
0.13165
10
329.9587295932594
20
100.64109345725339
42
0.13165
10
328.97383906963364
20
103.03456801681115
42
0.13165
10
326.9241615764483
20
104.61493252688705
42
0.13165
10
324.3589065427466
20
104.95872959325943
42
0.13165
10
321.96543198318886
20
103.97383906963366
42
0.13165
10
320.38506747311294
20
101.92416157644828
42
0.13165
10
320.0412704067406
20
99.35890654274661
42
0.13165
0
SEQEND
0
LWPOLYLINE
8
Holes
90
12
70
1
10
343.8743610816831
20
94.85446330861382
42
0.13165
10
348.29238089251254
20
95.30063440624762
42
0.13165
10
350.8708412698043
20
95.07642046039615
42
0.13165
10
353.2159604321164
20
96.17147567605194
42
0.13165
10
354.69936559375236
20
98.29238089251253
42
0.13165
10
354.92357953960385
20
100.87084126980433
42
0.13165
10
353.82852432394805
20
103.21596043211636
42
0.13165
10
351.70761910748746
20
104.69936559375238
42
0.13165
10
349.1291587301957
20
104.92357953960385
42
0.13165
10
346.7840395678836
20
103.82852432394806
42
0.13165
10
345.30063440624764
20
101.70761910748747
42
0.13165
10
345.07642046039615
20
99.12915873019567
42
0.13165
0
SEQEND
0
LWPOLYLINE
8
Holes
90
12
70
1
10
369.15155785405705
20
94.54145399711992
42
0.13165
10
373.54023345655617
20
95.21783713800522
42
0.13165
10
376.12688652078043
20
95.12864220475612
42
0.13165
10
378.4115912518001
20
96.34472365878565
42
0.13165
10
379.7821628619948
20
98.54023345655617
42
0.13165
10
379.8713577952439
20
101.12688652078043
42
0.13165
10
378.65527634121435
20
103.41159125180006
42
0.13165
10
376.45976654344383
20
104.78216286199478
42
0.13165
10
373.87311347921957
20
104.87135779524388
42
0.13165
10
371.5884087481999
20
103.65527634121435
42
0.13165
10
370.2178371380052
20
101.45976654344383
42
0.13165
10
370.1286422047561
20
98.87311347921957
42
0.13165
0
SEQEND
0
LWPOLYLINE
8
Holes
90
12
70
1
10
394.48275862068965
20
94.20689655172414
42
0.13165
10
398.8240503317778
20
95.14025284836669
42
0.13165
10
401.41147128956436
20
95.20336067660539
42
0.13165
10
403.62068965517244
20
96.55172413793103
42
0.13165
10
404.8597471516333
20
98.8240503317778
42
0.13165
10
404.79663932339463
20
101.41147128956435
42
0.13165
10
403.44827586206895
20
103.62068965517241
42
0.13165
10
401.1759496682222
20
104.85974715163331
42
0.13165
10
398.58852871043564
20
104.79663932339461
42
0.13165
10
396.37931034482756
20
103.44827586206897
42
0.13165
10
395.1402528483667
20
101.1759496682222
42
0.13165
10
395.20336067660537
20
98.58852871043565
42
0.13165
0
SEQEND
0
LWPOLYLINE
8
Holes
90
12
70
1
10
419.8785248026842
20
93.854229763221
42
0.13165
10
424.1484734329138
20
95.07304328154322
42
0.13165
10
426.72603472013435
20
95.30736703492691
42
0.13165
10
428.8411063979869
20
96.7990780016776
42
0.13165
10
429.9269567184568
20
99.14847343291379
42
0.13165
10
429.6926329650731
20
101.72603472013438
42
0.13165
10
428.2009219983224
20
103.84110639798688
42
0.13165
10
425.8515265670862
20
104.92695671845678
42
0.13165
10
423.27396527986565
20
104.69263296507309
42
0.13165
10
421.1588936020131
20
103.2009219983224
42
0.13165
10
420.0730432815432
20
100.85152656708621
42
0.13165
10
420.3073670349269
20
98.27396527986562
42
0.13165
0
SEQEND
0
LWPOLYLINE
8
Holes
90
12
70
1
10
445.35009445024724
20
93.49013223034612
42
0.13165
10
449.51749847096426
20
95.02333522582863
42
0.13165
10
452.0704738055759
20
95.44883111493057
42
0.13165
10
454.0686673560337
20
97.09380903140452
42
0.13165
10
454.97666477417135
20
99.51749847096424
42
0.13165
10
454.55116888506944
20
102.07047380557589
42
0.13165
10
452.90619096859547
20
104.06866735603367
42
0.13165
10
450.48250152903574
20
104.97666477417137
42
0.13165
10
447.9295261944241
20
104.55116888506943
42
0.13165
10
445.9313326439663
20
102.90619096859548
42
0.13165
10
445.02333522582865
20
100.48250152903574
42
0.13165
10
445.44883111493056
20
97.92952619442411
42
0.13165
0
SEQEND
0
LWPOLYLINE
8
Holes
90
12
70
1
10
470.90812912185856
20
93.12565692472235
42
0.13165
10
474.93344213010164
20
95.00044301463073
42
0.13165
10
477.4421376865308
20
95.63697770805308
42
0.13165
10
479.29646442204853
20
97.44258070116159
42
0.13165
10
479.9995569853693
20
99.93344213010161
42
0.13165
10
479.3630222919469
20
102.44213768653086
42
0.13165
10
477.5574192988384
20
104.29646442204853
42
0.13165
10
475.06655786989836
20
104.99955698536927
42
0.13165
10
472.5578623134692
20
104.36302229194692
42
0.13165
10
470.70353557795147
20
102.55741929883841
42
0.13165
10
470.0004430146307
20
100.06655786989839
42
0.13165
10
470.6369777080531
20
97.55786231346914
42
0.13165
0
SEQEND
0
LWPOLYLINE
8
Holes
90
12
70
1
10
496.5605313568612
20
92.77711584940856
42
0.13165
10
500.395484284261
20
95.01566532214152
42
0.13165
10
502.8346667758967
20
95.88118169014132
42
0.13165
10
504.51430259411967
20
97.85033209803827
42
0.13165
10
504.9843346778585
20
100.39548428426096
42
0.13165
10
504.1188183098587
20
102.83466677589674
42
0.13165
10
502.1496679019617
20
104.51430259411966
42
0.13165
10
499.604515715739
20
104.98433467785848
42
0.13165
10
497.1653332241033
20
104.11881830985868
42
0.13165
10
495.48569740588033
20
102.14966790196173
42
0.13165
10
495.0156653221415
20
99.60451571573904
42
0.13165
10
495.8811816901413
20
97.16533322410326
42
0.13165
0
SEQEND
0
LWPOLYLINE
8
Holes
90
12
70
1
10
522.3093088240147
20
92.4660647072413
42
0.13165
10
525.8979754588985
20
95.08129691125637
42
0.13165
10
528.2370211037528
20
96.18926590092425
42
0.13165
10
529.7087095579742
20
98.31831801500921
42
0.13165
10
529.9187030887437
20
100.89797545889843
42
0.13165
10
528.8107340990757
20
103.23702110375285
42
0.13165
10
526.6816819849907
20
104.70870955797419
42
0.13165
10
524.1020245411015
20
104.91870308874363
42
0.13165
10
521.7629788962471
20
103.81073409907575
42
0.13165
10
520.2912904420258
20
101.68168198499077
42
0.13165
10
520.0812969112563
20
99.10202454110156
42
0.13165
10
521.1892659009243
20
96.76297889624715
42
0.13165
0
SEQEND
0
LWPOLYLINE
8
Holes
90
12
70
1
10
548.1470357815517
20
92.21755028251707
42
0.13165
10
551.4290692332885
20
95.20857420735037
42
0.13165
10
553.6333231561194
20
96.5650381598617
42
0.13165
10
554.8640310734269
20
98.8418973634698
42
0.13165
10
554.7914257926496
20
101.42906923328853
42
0.13165
10
553.4349618401383
20
103.63332315611943
42
0.13165
10
551.1581026365302
20
104.86403107342683
42
0.13165
10
548.5709307667115
20
104.79142579264963
42
0.13165
10
546.3666768438806
20
103.4349618401383
42
0.13165
10
545.1359689265731
20
101.1581026365302
42
0.13165
10
545.2085742073504
20
98.57093076671147
42
0.13165
10
546.5650381598617
20
96.36667684388057
42
0.13165
0
SEQEND
0
LWPOLYLINE
8
Holes
90
12
70
1
10
574.0542968817191
20
92.05609380644044
42
0.13165
10
576.970593857444
20
95.40470241997278
42
0.13165
10
579.0042331311016
20
97.00565248646926
42
0.13165
10
579.9649413709748
20
99.40893555107444
42
0.13165
10
579.5952975800272
20
101.97059385744397
42
0.13165
10
577.9943475135308
20
104.00423313110167
42
0.13165
10
575.5910644489255
20
104.96494137097471
42
0.13165
10
573.029406142556
20
104.59529758002722
42
0.13165
10
570.9957668688984
20
102.99434751353074
42
0.13165
10
570.0350586290252
20
100.59106444892556
42
0.13165
10
570.4047024199728
20
98.02940614255603
42
0.13165
10
572.0056524864692
20
95.99576686889833
42
0.13165
0
SEQEND
0
LWPOLYLINE
8
Holes
90
12
70
1
10
600.0
20
92.0
42
0.13165
10
602.5
20
95.6698729810778
42
0.13165
10
604.3301270189222
20
97.5
42
0.13165
10
605.0
20
100.0
42
0.13165
10
604.3301270189222
20
102.5
42
0.13165
10
602.5
20
104.3301270189222
42
0.13165
10
600.0
20
105.0
42
0.13165
10
597.5
20
104.3301270189222
42
0.13165
10
595.6698729810778
20
102.5
42
0.13165
10
595.0
20
100.0
42
0.13165
10
595.6698729810778
20
97.5
42
0.13165
10
597.5
20
95.6698729810778
42
0.13165
0
SEQEND
0
LWPOLYLINE
8
Holes
90
12
70
1
10
625.9457031182809
20
92.05609380644044
42
0.13165
10
627.9943475135308
20
95.99576686889833
42
0.13165
10
629.5952975800272
20
98.02940614255603
42
0.13165
10
629.9649413709748
20
100.59106444892556
42
0.13165
10
629.0042331311016
20
102.99434751353074
42
0.13165
10
626.970593857444
20
104.59529758002722
42
0.13165
10
624.4089355510745
20
104.96494137097471
42
0.13165
10
622.0056524864692
20
104.00423313110167
42
0.13165
10
620.4047024199728
20
101.97059385744397
42
0.13165
10
620.0350586290252
20
99.40893555107444
42
0.13165
10
620.9957668688984
20
97.00565248646926
42
0.13165
10
623.029406142556
20
95.40470241997278
42
0.13165
0
SEQEND
0
LWPOLYLINE
8
Holes
90
12
70
1
10
651.8529642184483
20
92.21755028251707
42
0.13165
10
653.4349618401383
20
96.36667684388057
42
0.13165
10
654.7914257926496
20
98.57093076671147
42
0.13165
10
654.8640310734269
20
101.1581026365302
42
0.13165
10
653.6333231561194
20
103.4349618401383
42
0.13165
10
651.4290692332885
20
104.79142579264963
42
0.13165
10
648.8418973634698
20
104.86403107342683
42
0.13165
10
646.5650381598617
20
103.63332315611943
42
0.13165
10
645.2085742073504
20
101.42906923328853
42
0.13165
10
645.1359689265731
20
98.8418973634698
42
0.13165
10
646.3666768438806
20
96.5650381598617
42
0.13165
10
648.5709307667115
20
95.20857420735037
42
0.13165
0
SEQEND
0
LWPOLYLINE
8
Holes
90
12
70
1
10
677.6906911759852
20
92.4660647072413
42
0.13165
10
678.8107340990757
20
96.76297889624715
42
0.13165
10
679.9187030887437
20
99.10202454110157
42
0.13165
10
679.7087095579742
20
101.68168198499077
42
0.13165
10
678.2370211037528
20
103.81073409907575
42
0.13165
10
675.8979754588985
20
104.91870308874363
42
0.13165
10
673.3183180150093
20
104.70870955797419
42
0.13165
10
671.1892659009243
20
103.23702110375285
42
0.13165
10
670.0812969112563
20
100.89797545889843
42
0.13165
10
670.2912904420258
20
98.31831801500921
42
0.13165
10
671.7629788962472
20
96.18926590092425
42
0.13165
10
674.1020245411015
20
95.08129691125637
42
0.13165
0
SEQEND
0
LWPOLYLINE
8
Holes
90
12
70
1
10
703.4394686431388
20
92.77711584940856
42
0.13165
10
704.1188183098587
20
97.16533322410326
42
0.13165
10
704.9843346778584
20
99.60451571573904
42
0.13165
10
704.5143025941196
20
102.14966790196173
42
0.13165
10
702.8346667758967
20
104.11881830985868
42
0.13165
10
700.395484284261
20
104.98433467785848
42
0.13165
10
697.8503320980383
20
104.51430259411966
42
0.13165
10
695.8811816901413
20
102.83466677589674
42
0.13165
10
695.0156653221416
20
100.39548428426096
42
0.13165
10
695.4856974058804
20
97.85033209803827
42
0.13165
10
697.1653332241033
20
95.88118169014132
42
0.13165
10
699.604515715739
20
95.01566532214152
42
0.13165
0
SEQEND
0
LWPOLYLINE
8
Holes
90
12
70
1
10
729.0918708781414
20
93.12565692472235
42
0.13165
10
729.3630222919469
20
97.55786231346914
42
0.13165
10
729.9995569853693
20
100.06655786989839
42
0.13165
10
729.2964644220485
20
102.55741929883841
42
0.13165
10
727.4421376865308
20
104.36302229194692
42
0.13165
10
724.9334421301016
20
104.99955698536927
42
0.13165
10
722.4425807011615
20
104.29646442204853
42
0.13165
10
720.6369777080531
20
102.44213768653086
42
0.13165
10
720.0004430146307
20
99.93344213010161
42
0.13165
10
720.7035355779515
20
97.44258070116159
42
0.13165
10
722.5578623134692
20
95.63697770805308
42
0.13165
10
725.0665578698984
20
95.00044301463073
42
0.13165
0
SEQEND
0
LWPOLYLINE
8
Holes
90
12
70
1
10
754.6499055497528
20
93.49013223034612
42
0.13165
10
754.5511688850694
20
97.92952619442411
42
0.13165
10
754.9766647741714
20
100.48250152903576
42
0.13165
10
754.0686673560336
20
102.90619096859548
42
0.13165
10
752.070473805576
20
104.55116888506943
42
0.13165
10
749.5174984709643
20
104.97666477417137
42
0.13165
10
747.0938090314045
20
104.06866735603367
42
0.13165
10
745.4488311149306
20
102.07047380557589
42
0.13165
10
745.0233352258286
20
99.51749847096424
42
0.13165
10
745.9313326439664
20
97.09380903140452
42
0.13165
10
747.9295261944242
20
95.44883111493057
42
0.13165
10
750.4825015290357
20
95.02333522582863
42
0.13165
0
SEQEND
0
LWPOLYLINE
8
Holes
90
12
70
1
10
780.1214751973158
20
93.854229763221
42
0.13165
10
779.6926329650731
20
98.27396527986562
42
0.13165
10
779.9269567184567
20
100.85152656708621
42
0.13165
10
778.8411063979869
20
103.2009219983224
42
0.13165
10
776.7260347201344
20
104.69263296507309
42
0.13165
10
774.1484734329138
20
104.92695671845678
42
0.13165
10
771.7990780016776
20
103.84110639798688
42
0.13165
10
770.3073670349269
20
101.72603472013438
42
0.13165
10
770.0730432815433
20
99.14847343291379
42
0.13165
10
771.1588936020131
20
96.7990780016776
42
0.13165
10
773.2739652798656
20
95.30736703492691
42
0.13165
10
775.8515265670862
20
95.07304328154322
42
0.13165
0
SEQEND
0
LWPOLYLINE
8
Holes
90
12
70
1
10
805.5172413793103
20
94.20689655172414
42
0.13165
10
804.7966393233946
20
98.58852871043565
42
0.13165
10
804.8597471516333
20
101.1759496682222
42
0.13165
10
803.6206896551724
20
103.44827586206897
42
0.13165
10
801.4114712895644
20
104.79663932339461
42
0.13165
10
798.8240503317778
20
104.85974715163331
42
0.13165
10
796.551724137931
20
103.62068965517241
42
0.13165
10
795.2033606766054
20
101.41147128956435
42
0.13165
10
795.1402528483667
20
98.8240503317778
42
0.13165
10
796.3793103448276
20
96.55172413793103
42
0.13165
10
798.5885287104356
20
95.20336067660539
42
0.13165
10
801.1759496682222
20
95.14025284836669
42
0.13165
0
SEQEND
0
LWPOLYLINE
8
Holes
90
12
70
1
10
830.848442145943
20
94.54145399711992
42
0.13165
10
829.8713577952439
20
98.87311347921957
42
0.13165
10
829.7821628619947
20
101.45976654344383
42
0.13165
10
828.4115912518
20
103.65527634121435
42
0.13165
10
826.1268865207804
20
104.87135779524388
42
0.13165
10
823.5402334565562
20
104.78216286199478
42
0.13165
10
821.3447236587857
20
103.41159125180006
42
0.13165
10
820.1286422047561
20
101.12688652078043
42
0.13165
10
820.2178371380053
20
98.54023345655617
42
0.13165
10
821.5884087482
20
96.34472365878565
42
0.13165
10
823.8731134792196
20
95.12864220475612
42
0.13165
10
826.4597665434438
20
95.21783713800522
42
0.13165
0
SEQEND
0
LWPOLYLINE
8
Holes
90
12
70
1
10
856.1256389183169
20
94.85446330861382
42
0.13165
10
854.9235795396038
20
99.12915873019567
42
0.13165
10
854.6993655937524
20
101.70761910748747
42
0.13165
10
853.2159604321164
20
103.82852432394806
42
0.13165
10
850.8708412698044
20
104.92357953960385
42
0.13165
10
848.2923808925125
20
104.69936559375238
42
0.13165
10
846.171475676052
20
103.21596043211636
42
0.13165
10
845.0764204603962
20
100.87084126980433
42
0.13165
10
845.3006344062476
20
98.29238089251253
42
0.13165
10
846.7840395678836
20
96.17147567605194
42
0.13165
10
849.1291587301956
20
95.07642046039615
42
0.13165
10
851.7076191074875
20
95.30063440624762
42
0.13165
0
SEQEND
0
LWPOLYLINE
8
Holes
90
12
70
1
10
881.3581425114138
20
95.14469117310216
42
0.13165
10
879.9587295932595
20
99.35890654274661
42
0.13165
10
879.6149325268871
20
101.92416157644828
42
0.13165
10
878.0345680168111
20
103.97383906963366
42
0.13165
10
875.6410934572534
20
104.95872959325943
42
0.13165
10
873.0758384235517
20
104.61493252688705
42
0.13165
10
871.0261609303664
20
103.03456801681115
42
0.13165
10
870.0412704067405
20
100.64109345725339
42
0.13165
10
870.3850674731129
20
98.07583842355172
42
0.13165
10
871.9654319831889
20
96.02616093036634
42
0.13165
10
874.3589065427466
20
95.04127040674057
42
0.13165
10
876.9241615764483
20
95.38506747311295
42
0.13165
0
SEQEND
0
LWPOLYLINE
8
Holes
90
12
70
1
10
906.5538553641524
20
95.41230124509337
42
0.13165
10
904.9810341347113
20
99.56491500963548
42
0.13165
10
904.5312445929598
20
102.11372241289469
42
0.13165
10
902.8673117218167
20
104.09615960259521
42
0.13165
10
900.4350849903645
20
104.98103413471134
42
0.13165
10
897.8862775871053
20
104.53124459295971
42
0.13165
10
895.9038403974048
20
102.86731172181665
42
0.13165
10
895.0189658652887
20
100.43508499036452
42
0.13165
10
895.4687554070402
20
97.8862775871053
42
0.13165
10
897.1326882781833
20
95.90384039740479
42
0.13165
10
899.5649150096355
20
95.01896586528866
42
0.13165
10
902.1137224128947
20
95.46875540704029
42
0.13165
0
SEQEND
0
LWPOLYLINE
8
Holes
90
12
70
1
10
931.7193333479726
20
95.65827691361775
42
0.13165
10
929.9937343243945
20
99.74976511561366
42
0.13165
10
929.4498182268692
20
102.28015739540564
42
0.13165
10
927.7135769289889
20
104.19958334248282
42
0.13165
10
925.2502348843864
20
104.99373432439454
42
0.13165
10
922.7198426045943
20
104.44981822686916
42
0.13165
10
920.8004166575172
20
102.7135769289889
42
0.13165
10
920.0062656756055
20
100.25023488438634
42
0.13165
10
920.5501817731308
20
97.71984260459436
42
0.13165
10
922.2864230710111
20
95.80041665751718
42
0.13165
10
924.7497651156136
20
95.00626567560546
42
0.13165
10
927.2801573954056
20
95.55018177313084
42
0.13165
0
SEQEND
0
LWPOLYLINE
8
Holes
90
12
70
1
10
956.8599434057004
20
95.88403395657978
42
0.13165
10
954.9992926747314
20
99.91590034258384
42
0.13165
10
954.3715642859789
20
102.42681389759372
42
0.13165
10
952.5724787771376
20
104.28746462856272
42
0.13165
10
950.0840996574161
20
104.99929267473135
42
0.13165
10
947.5731861024063
20
104.37156428597888
42
0.13165
10
945.7125353714373
20
102.57247877713763
42
0.13165
10
945.0007073252686
20
100.08409965741616
42
0.13165
10
945.6284357140212
20
97.57318610240628
42
0.13165
10
947.4275212228624
20
95.71253537143728
42
0.13165
10
949.9159003425839
20
95.00070732526865
42
0.13165
10
952.4268138975937
20
95.62843571402112
42
0.13165
0
SEQEND
0
LWPOLYLINE
8
Holes
90
12
70
1
10
981.9800481275978
20
96.09117304854526
42
0.13165
10
979.9995702961656
20
100.06555039052611
42
0.13165
10
979.2969796892224
20
102.55655345150643
42
0.13165
10
977.4430168446593
20
104.3625300797486
42
0.13165
10
974.9344496094739
20
104.99957029616564
42
0.13165
10
972.4434465484935
20
104.29697968922248
42
0.13165
10
970.6374699202514
20
102.44301684465921
42
0.13165
10
970.0004297038344
20
99.93444960947389
42
0.13165
10
970.7030203107776
20
97.44344654849357
42
0.13165
10
972.5569831553407
20
95.6374699202514
42
0.13165
10
975.0655503905261
20
95.00042970383436
42
0.13165
10
977.5565534515065
20
95.70302031077752
42
0.13165
0
SEQEND
0
LWPOLYLINE
8
Holes
90
12
70
1
10
1007.0831832227035
20
96.28132880808063
42
0.13165
10
1004.9959701290504
20
100.20070493176766
42
0.13165
10
1004.2262845824221
20
102.67180063410082
42
0.13165
10
1002.3241694949496
20
104.42698951418971
42
0.13165
10
999.7992950682324
20
104.99597012905042
42
0.13165
10
997.3281993658992
20
104.22628458242207
42
0.13165
10
995.5730104858103
20
102.3241694949496
42
0.13165
10
995.0040298709496
20
99.79929506823234
42
0.13165
10
995.7737154175779
20
97.32819936589918
42
0.13165
10
997.6758305050504
20
95.57301048581029
42
0.13165
10
1000.2007049317676
20
95.00402987094958
42
0.13165
10
1002.6718006341008
20
95.77371541757793
42
0.13165
0
SEQEND
0
LWPOLYLINE
8
Holes
90
12
70
1
10
1032.1722137226204
20
96.45608263117575
42
0.13165
10
1029.989548730983
20
100.32311524437222
42
0.13165
10
1029.1595183322656
20
102.77460037546787
42
0.13165
10
1027.2149483555152
20
104.48263357663781
42
0.13165
10
1024.6768847556277
20
104.98954873098302
42
0.13165
10
1022.2253996245321
20
104.15951833226559
42
0.13165
10
1020.5173664233622
20
102.21494835551516
42
0.13165
10
1020.0104512690169
20
99.67688475562778
42
0.13165
10
1020.8404816677344
20
97.22539962453213
42
0.13165
10
1022.7850516444848
20
95.51736642336219
42
0.13165
10
1025.3231152443723
20
95.01045126901698
42
0.13165
10
1027.7746003754678
20
95.84048166773441
42
0.13165
0
SEQEND
0
LWPOLYLINE
8
Holes
90
12
70
1
10
1057.2494651199622
20
96.61691627735101
42
0.13165
10
1054.9811017619131
20
100.43431007064838
42
0.13165
10
1054.096605629328
20
102.86667443525744
42
0.13165
10
1052.1144273266557
20
104.53091569997633
42
0.13165
10
1049.5656899293517
20
104.98110176191307
42
0.13165
10
1047.1333255647426
20
104.09660562932794
42
0.13165
10
1045.4690843000237
20
102.11442732665562
42
0.13165
10
1045.0188982380869
20
99.56568992935162
42
0.13165
10
1045.903394370672
20
97.13332556474256
42
0.13165
10
1047.8855726733443
20
95.46908430002367
42
0.13165
10
1050.4343100706483
20
95.01889823808693
42
0.13165
10
1052.8666744352574
20
95.90339437067205
42
0.13165
0
SEQEND
0
LWPOLYLINE
8
Holes
90
12
70
1
10
1082.3168305227025
20
96.76519071627888
42
0.13165
10
1079.9712285935664
20
100.53561765328189
42
0.13165
10
1079.0374014234071
20
102.94947279124077
42
0.13165
10
1077.0217558023257
20
104.57301907668909
42
0.13165
10
1074.4643823467181
20
104.97122859356647
42
0.13165
10
1072.0505272087591
20
104.03740142340719
42
0.13165
10
1070.426980923311
20
102.0217558023257
42
0.13165
10
1070.0287714064336
20
99.4643823467181
42
0.13165
10
1070.9625985765929
20
97.05052720875923
42
0.13165
10
1072.9782441976743
20
95.42698092331091
42
0.13165
10
1075.5356176532819
20
95.02877140643353
42
0.13165
10
1077.9494727912409
20
95.96259857659281
42
0.13165
0
SEQEND
0
LWPOLYLINE
8
Holes
90
12
70
1
10
1107.3758568448588
20
96.90214012515926
42
0.13165
10
1104.9603808373408
20
100.62818942090806
42
0.13165
10
1103.9817211071288
20
103.02421841556549
42
0.13165
10
1101.9361624217754
20
104.6099105280368
42
0.13165
10
1099.371810579092
20
104.96038083734094
42
0.13165
10
1096.9757815844346
20
103.98172110712875
42
0.13165
10
1095.3900894719632
20
101.93616242177546
42
0.13165
10
1095.0396191626592
20
99.37181057909194
42
0.13165
10
1096.0182788928712
20
96.97578158443451
42
0.13165
10
1098.0638375782246
20
95.3900894719632
42
0.13165
10
1100.628189420908
20
95.03961916265906
42
0.13165
10
1103.0242184155654
20
96.01827889287125
42
0.13165
0
SEQEND
0
LWPOLYLINE
8
Holes
90
12
70
1
10
1132.427813527082
20
97.02887458916717
42
0.13165
10
1129.948898696527
20
100.71302292495646
42
0.13165
10
1128.92936052947
20
103.09194531475647
42
0.13165
10
1126.8569533817706
20
104.6423834544263
42
0.13165
10
1124.2869770750435
20
104.948898696527
42
0.13165
10
1121.9080546852435
20
103.92936052946985
42
0.13165
10
1120.3576165455736
20
101.85695338177052
42
0.13165
10
1120.051101303473
20
99.28697707504354
42
0.13165
10
1121.07063947053
20
96.90805468524353
42
0.13165
10
1123.1430466182294
20
95.3576165455737
42
0.13165
10
1125.7130229249565
20
95.051101303473
42
0.13165
10
1128.0919453147565
20
96.07063947053015
42
0.13165
0
SEQEND
0
LWPOLYLINE
8
Holes
90
12
70
1
10
67.17002291563281
20
198.35943337279926
42
0.13165
10
71.27457765468024
20
196.66514942628726
42
0.13165
10
73.44111489598325
20
195.24922351267978
42
0.13165
10
76.02535414200047
20
195.1062643222705
42
0.13165
10
78.33485057371274
20
196.27457765468023
42
0.13165
10
79.75077648732022
20
198.44111489598325
42
0.13165
10
79.8937356777295
20
201.02535414200045
42
0.13165
10
78.72542234531976
20
203.33485057371274
42
0.13165
10
76.55888510401674
20
204.75077648732022
42
0.13165
10
73.97464585799953
20
204.8937356777295
42
0.13165
10
71.66514942628726
20
203.72542234531977
42
0.13165
10
70.24922351267978
20
201.55888510401675
42
0.13165
0
SEQEND
0
LWPOLYLINE
8
Holes
90
12
70
1
10
92.18684426635929
20
198.28110573859905
42
0.13165
10
96.30815986352724
20
196.62801002274196
42
0.13165
10
98.4887676437326
20
195.23385095015163
42
0.13165
10
101.0743089133756
20
195.11677766647455
42
0.13165
10
103.37198997725805
20
196.30815986352724
42
0.13165
10
104.76614904984837
20
198.4887676437326
42
0.13165
10
104.88322233352545
20
201.0743089133756
42
0.13165
10
103.69184013647276
20
203.37198997725804
42
0.13165
10
101.5112323562674
20
204.76614904984837
42
0.13165
10
98.9256910866244
20
204.88322233352545
42
0.13165
10
96.62801002274195
20
203.69184013647276
42
0.13165
10
95.23385095015163
20
201.5112323562674
42
0.13165
0
SEQEND
0
LWPOLYLINE
8
Holes
90
12
70
1
10
117.20625542394585
20
198.19513283501905
42
0.13165
10
121.34553299313775
20
196.5875418104019
42
0.13165
10
123.54136782956427
20
195.21749101502465
42
0.13165
10
126.1280419781131
20
195.12890963996614
42
0.13165
10
128.4124581895981
20
196.34553299313774
42
0.13165
10
129.78250898497535
20
198.54136782956428
42
0.13165
10
129.87109036003386
20
201.1280419781131
42
0.13165
10
128.65446700686226
20
203.4124581895981
42
0.13165
10
126.45863217043572
20
204.78250898497535
42
0.13165
10
123.8719580218869
20
204.87109036003386
42
0.13165
10
121.58754181040189
20
203.65446700686226
42
0.13165
10
120.21749101502465
20
201.45863217043572
42
0.13165
0
SEQEND
0
LWPOLYLINE
8
Holes
90
12
70
1
10
142.22880794802577
20
198.10037527618408
42
0.13165
10
146.3873516420066
20
196.54330044095707
42
0.13165
10
148.59970452655904
20
195.20008618962166
42
0.13165
10
151.18726545238496
20
195.1430049675161
42
0.13165
10
153.45669955904293
20
196.3873516420066
42
0.13165
10
154.79991381037834
20
198.59970452655904
42
0.13165
10
154.8569950324839
20
201.18726545238496
42
0.13165
10
153.6126483579934
20
203.45669955904293
42
0.13165
10
151.40029547344096
20
204.79991381037834
42
0.13165
10
148.81273454761504
20
204.8569950324839
42
0.13165
10
146.54330044095707
20
203.6126483579934
42
0.13165
10
145.20008618962166
20
201.40029547344096
42
0.13165
0
SEQEND
0
LWPOLYLINE
8
Holes
90
12
70
1
10
167.25520565744424
20
197.99546499369146
42
0.13165
10
171.43442428463436
20
196.49476536905232
42
0.13165
10
173.66473816685033
20
195.18158990569154
42
0.13165
10
176.25283437894285
20
195.15950353590264
42
0.13165
10
178.50523463094768
20
196.43442428463436
42
0.13165
10
179.81841009430846
20
198.66473816685033
42
0.13165
10
179.84049646409736
20
201.25283437894285
42
0.13165
10
178.56557571536564
20
203.50523463094768
42
0.13165
10
176.33526183314967
20
204.81841009430846
42
0.13165
10
173.74716562105715
20
204.84049646409736
42
0.13165
10
171.49476536905232
20
203.56557571536564
42
0.13165
10
170.18158990569154
20
201.33526183314967
42
0.13165
0
SEQEND
0
LWPOLYLINE
8
Holes
90
12
70
1
10
192.28635685756967
20
197.87874813583167
42
0.13165
10
196.48775938438243
20
196.44132526661872
42
0.13165
10
198.73764776936233
20
195.16197696927722
42
0.13165
10
201.3257824151052
20
195.17897303598104
42
0.13165
10
203.55867473338128
20
196.48775938438243
42
0.13165
10
204.83802303072278
20
198.73764776936233
42
0.13165
10
204.82102696401896
20
201.3257824151052
42
0.13165
10
203.51224061561757
20
203.55867473338128
42
0.13165
10
201.26235223063767
20
204.83802303072278
42
0.13165
10
198.6742175848948
20
204.82102696401896
42
0.13165
10
196.44132526661872
20
203.51224061561757
42
0.13165
10
195.16197696927722
20
201.26235223063767
42
0.13165
0
SEQEND
0
LWPOLYLINE
8
Holes
90
12
70
1
10
217.32344814679882
20
197.74821145639433
42
0.13165
10
221.5486283459138
20
196.38226124417884
42
0.13165
10
223.81989384757043
20
195.14126050616028
42
0.13165
10
226.40736783975353
20
195.20215509174926
42
0.13165
10
228.61773875582116
20
196.5486283459138
42
0.13165
10
229.85873949383972
20
198.81989384757043
42
0.13165
10
229.79784490825074
20
201.40736783975353
42
0.13165
10
228.4513716540862
20
203.61773875582116
42
0.13165
10
226.18010615242957
20
204.85873949383972
42
0.13165
10
223.59263216024647
20
204.79784490825074
42
0.13165
10
221.38226124417884
20
203.4513716540862
42
0.13165
10
220.14126050616028
20
201.18010615242957
42
0.13165
0
SEQEND
0
LWPOLYLINE
8
Holes
90
12
70
1
10
242.36805026478996
20
197.60138722607684
42
0.13165
10
246.61865252241486
20
196.3167284602098
42
0.13165
10
248.91330295528394
20
195.11951953871286
42
0.13165
10
251.49913298370197
20
195.23003141549373
42
0.13165
10
253.6832715397902
20
196.61865252241486
42
0.13165
10
254.88048046128714
20
198.91330295528394
42
0.13165
10
254.76996858450627
20
201.49913298370197
42
0.13165
10
253.38134747758514
20
203.6832715397902
42
0.13165
10
251.08669704471606
20
204.88048046128714
42
0.13165
10
248.50086701629803
20
204.76996858450627
42
0.13165
10
246.3167284602098
20
203.38134747758514
42
0.13165
10
245.11951953871286
20
201.08669704471606
42
0.13165
0
SEQEND
0
LWPOLYLINE
8
Holes
90
12
70
1
10
267.4222722434191
20
197.43523060546494
42
0.13165
10
271.6999249731913
20
196.24373791949586
42
0.13165
10
274.0201822326411
20
195.09694410160685
42
0.13165
10
276.6029808715844
20
195.26392015213696
42
0.13165
10
278.75626208050414
20
196.69992497319126
42
0.13165
10
279.9030558983931
20
199.0201822326411
42
0.13165
10
279.73607984786304
20
201.6029808715844
42
0.13165
10
278.3000750268087
20
203.75626208050414
42
0.13165
10
275.9798177673589
20
204.90305589839315
42
0.13165
10
273.3970191284156
20
204.73607984786304
42
0.13165
10
271.24373791949586
20
203.30007502680874
42
0.13165
10
270.0969441016069
20
200.9798177673589
42
0.13165
0
SEQEND
0
LWPOLYLINE
8
Holes
90
12
70
1
10
292.4889894729071
20
197.24596280673262
42
0.13165
10
296.79518292004934
20
196.162142852573
42
0.13165
10
299.14347556799396
20
195.0739096742572
42
0.13165
10
301.72127324579213
20
195.30561842056696
42
0.13165
10
303.837857147427
20
196.7951829200493
42
0.13165
10
304.9260903257428
20
199.14347556799396
42
0.13165
10
304.69438157943307
20
201.7212732457921
42
0.13165
10
303.20481707995066
20
203.837857147427
42
0.13165
10
300.85652443200604
20
204.9260903257428
42
0.13165
10
298.27872675420787
20
204.69438157943304
42
0.13165
10
296.162142852573
20
203.2048170799507
42
0.13165
10
295.0739096742572
20
200.85652443200604
42
0.13165
0
SEQEND
0
LWPOLYLINE
8
Holes
90
12
70
1
10
317.5721864729179
20
197.02887458916717
42
0.13165
10
321.90805468524354
20
196.07063947053015
42
0.13165
10
324.2869770750435
20
195.05110130347302
42
0.13165
10
326.8569533817705
20
195.3576165455737
42
0.13165
10
328.9293605294698
20
196.90805468524354
42
0.13165
10
329.948898696527
20
199.28697707504355
42
0.13165
10
329.6423834544263
20
201.85695338177052
42
0.13165
10
328.09194531475646
20
203.92936052946985
42
0.13165
10
325.7130229249565
20
204.94889869652698
42
0.13165
10
323.1430466182295
20
204.6423834544263
42
0.13165
10
321.0706394705302
20
203.09194531475646
42
0.13165
10
320.051101303473
20
200.71302292495645
42
0.13165
0
SEQEND
0
LWPOLYLINE
8
Holes
90
12
70
1
10
342.67747974061785
20
196.77809108587186
42
0.13165
10
347.0434161829456
20
195.96780306374652
42
0.13165
10
349.4556217741397
20
195.0297231116155
42
0.13165
10
352.01369307133007
20
195.42342483788616
42
0.13165
10
354.03219693625346
20
197.04341618294558
42
0.13165
10
354.9702768883845
20
199.45562177413964
42
0.13165
10
354.57657516211384
20
202.0136930713301
42
0.13165
10
352.9565838170544
20
204.03219693625348
42
0.13165
10
350.5443782258603
20
204.9702768883845
42
0.13165
10
347.98630692866993
20
204.57657516211384
42
0.13165
10
345.96780306374654
20
202.95658381705442
42
0.13165
10
345.0297231116155
20
200.54437822586036
42
0.13165
0
SEQEND
0
LWPOLYLINE
8
Holes
90
12
70
1
10
367.8129251126464
20
196.48631894396047
42
0.13165
10
372.207906935419
20
195.852203438123
42
0.13165
10
374.65587475728097
20
195.01185627539425
42
0.13165
10
377.1960506600247
20
195.50807819540398
42
0.13165
10
379.147796561877
20
197.20790693541898
42
0.13165
10
379.9881437246057
20
199.655874757281
42
0.13165
10
379.491921804596
20
202.19605066002472
42
0.13165
10
377.792093064581
20
204.147796561877
42
0.13165
10
375.34412524271903
20
204.98814372460575
42
0.13165
10
372.8039493399753
20
204.49192180459602
42
0.13165
10
370.852203438123
20
202.79209306458102
42
0.13165
10
370.0118562753943
20
200.344125242719
42
0.13165
0
SEQEND
0
LWPOLYLINE
8
Holes
90
12
70
1
10
392.9902727305868
20
196.14465000182275
42
0.13165
10
397.4106706938602
20
195.72269082899476
42
0.13165
10
399.896229627622
20
195.0010769449994
42
0.13165
10
402.4095937488608
20
195.61892045661676
42
0.13165
10
404.27730917100524
20
197.41067069386017
42
0.13165
10
404.9989230550006
20
199.896229627622
42
0.13165
10
404.38107954338324
20
202.40959374886077
42
0.13165
10
402.5893293061398
20
204.27730917100524
42
0.13165
10
400.103770372378
20
204.9989230550006
42
0.13165
10
397.5904062511392
20
204.38107954338324
42
0.13165
10
395.72269082899476
20
202.58932930613983
42
0.13165
10
395.0010769449994
20
200.103770372378
42
0.13165
0
SEQEND
0
LWPOLYLINE
8
Holes
90
12
70
1
10
418.22690760631195
20
195.74262763825323
42
0.13165
10
422.66438506610024
20
195.57903824032095
42
0.13165
10
425.18777901362404
20
195.0035273400085
42
0.13165
10
427.6608577260917
20
195.76681725394496
42
0.13165
10
429.420961759679
20
197.66438506610024
42
0.13165
10
429.99647265999147
20
200.187779013624
42
0.13165
10
429.23318274605504
20
202.66085772609173
42
0.13165
10
427.33561493389976
20
204.42096175967905
42
0.13165
10
424.81222098637596
20
204.9964726599915
42
0.13165
10
422.3391422739083
20
204.23318274605504
42
0.13165
10
420.579038240321
20
202.33561493389976
42
0.13165
10
420.00352734000853
20
199.812220986376
42
0.13165
0
SEQEND
0
LWPOLYLINE
8
Holes
90
12
70
1
10
443.54876003315434
20
195.26909069097985
42
0.13165
10
447.98657309832015
20
195.4233077324784
42
0.13165
10
450.5446672882431
20
195.02975478018257
42
0.13165
10
452.9568183181376
20
195.96797502072147
42
0.13165
10
454.5766922675216
20
197.98657309832015
42
0.13165
10
454.9702452198174
20
200.54466728824306
42
0.13165
10
454.0320249792785
20
202.95681831813758
42
0.13165
10
452.01342690167985
20
204.5766922675216
42
0.13165
10
449.4553327117569
20
204.97024521981743
42
0.13165
10
447.0431816818624
20
204.03202497927853
42
0.13165
10
445.4233077324784
20
202.01342690167982
42
0.13165
10
445.0297547801826
20
199.45533271175694
42
0.13165
0
SEQEND
0
LWPOLYLINE
8
Holes
90
12
70
1
10
468.99429186461794
20
194.7149768408638
42
0.13165
10
473.40088485413276
20
195.26261351056746
42
0.13165
10
475.98381890481875
20
195.0977453796726
42
0.13165
10
478.3031394744601
20
196.2464324153862
42
0.13165
10
479.73738648943254
20
198.40088485413273
42
0.13165
10
479.90225462032737
20
200.98381890481875
42
0.13165
10
478.7535675846138
20
203.30313947446012
42
0.13165
10
476.59911514586724
20
204.73738648943254
42
0.13165
10
474.01618109518125
20
204.9022546203274
42
0.13165
10
471.6968605255399
20
203.7535675846138
42
0.13165
10
470.26261351056746
20
201.59911514586727
42
0.13165
10
470.09774537967263
20
199.01618109518125
42
0.13165
0
SEQEND
0
LWPOLYLINE
8
Holes
90
12
70
1
10
494.6186176480295
20
194.08047941283246
42
0.13165
10
498.93709154331253
20
195.11428351081418
42
0.13165
10
501.5223525192043
20
195.23739117633284
42
0.13165
10
503.6997003669797
20
196.63663603001845
42
0.13165
10
504.8857164891858
20
198.93709154331253
42
0.13165
10
504.76260882366716
20
201.52235251920428
42
0.13165
10
503.36336396998155
20
203.69970036697973
42
0.13165
10
501.06290845668747
20
204.88571648918582
42
0.13165
10
498.4776474807957
20
204.76260882366716
42
0.13165
10
496.3002996330203
20
203.36336396998155
42
0.13165
10
495.1142835108142
20
201.06290845668747
42
0.13165
10
495.23739117633284
20
198.47764748079572
42
0.13165
0
SEQEND
0
LWPOLYLINE
8
Holes
90
12
70
1
10
520.4933054028679
20
193.3901812575396
42
0.13165
10
524.6262483518848
20
195.01398859753297
42
0.13165
10
527.1693272792595
20
195.4951116378471
42
0.13165
10
529.1311367140378
20
197.18331587679245
42
0.13165
10
529.986011402467
20
199.62624835188484
42
0.13165
10
529.5048883621529
20
202.16932727925948
42
0.13165
10
527.8166841232076
20
204.13113671403775
42
0.13165
10
525.3737516481152
20
204.98601140246703
42
0.13165
10
522.8306727207405
20
204.5048883621529
42
0.13165
10
520.8688632859622
20
202.81668412320755
42
0.13165
10
520.013988597533
20
200.37375164811516
42
0.13165
10
520.4951116378471
20
197.83067272074052
42
0.13165
0
SEQEND
0
LWPOLYLINE
8
Holes
90
12
70
1
10
546.6895764455905
20
192.71706818029915
42
0.13165
10
550.4840968840284
20
195.0234901580652
42
0.13165
10
552.9074951204288
20
195.93226449671536
42
0.13165
10
554.551832387313
20
197.9309852784941
42
0.13165
10
554.9765098419348
20
200.4840968840284
42
0.13165
10
554.0677355032847
20
202.90749512042888
42
0.13165
10
552.0690147215059
20
204.55183238731303
42
0.13165
10
549.5159031159716
20
204.9765098419348
42
0.13165
10
547.0925048795712
20
204.06773550328464
42
0.13165
10
545.448167612687
20
202.0690147215059
42
0.13165
10
545.0234901580652
20
199.5159031159716
42
0.13165
10
545.9322644967153
20
197.09250487957112
42
0.13165
0
SEQEND
0
LWPOLYLINE
8
Holes
90
12
70
1
10
573.2270311712882
20
192.1989371536683
42
0.13165
10
576.4781846108647
20
195.22349811512623
42
0.13165
10
578.668396366929
20
196.6025203319074
42
0.13165
10
579.8756642789573
20
198.89189448205516
42
0.13165
10
579.7765018848738
20
201.4781846108647
42
0.13165
10
578.3974796680926
20
203.66839636692893
42
0.13165
10
576.1081055179449
20
204.8756642789573
42
0.13165
10
573.5218153891353
20
204.77650188487377
42
0.13165
10
571.331603633071
20
203.3974796680926
42
0.13165
10
570.1243357210427
20
201.10810551794484
42
0.13165
10
570.2234981151262
20
198.5218153891353
42
0.13165
10
571.6025203319074
20
196.33160363307107
42
0.13165
0
SEQEND
0
LWPOLYLINE
8
Holes
90
12
70
1
10
600.0
20
192.0
42
0.13165
10
602.5
20
195.66987298107782
42
0.13165
10
604.3301270189222
20
197.5
42
0.13165
10
605.0
20
200.0
42
0.13165
10
604.3301270189222
20
202.5
42
0.13165
10
602.5
20
204.33012701892218
42
0.13165
10
600.0
20
205.0
42
0.13165
10
597.5
20
204.33012701892218
42
0.13165
10
595.6698729810778
20
202.5
42
0.13165
10
595.0
20
200.0
42
0.13165
10
595.6698729810778
20
197.5
42
0.13165
10
597.5
20
195.66987298107782
42
0.13165
0
SEQEND
0
LWPOLYLINE
8
Holes
90
12
70
1
10
626.7729688287118
20
192.1989371536683
42
0.13165
10
628.3974796680926
20
196.33160363307107
42
0.13165
10
629.7765018848738
20
198.5218153891353
42
0.13165
10
629.8756642789573
20
201.10810551794484
42
0.13165
10
628.668396366929
20
203.3974796680926
42
0.13165
10
626.4781846108647
20
204.77650188487377
42
0.13165
10
623.8918944820551
20
204.8756642789573
42
0.13165
10
621.6025203319074
20
203.66839636692893
42
0.13165
10
620.2234981151262
20
201.4781846108647
42
0.13165
10
620.1243357210427
20
198.89189448205516
42
0.13165
10
621.331603633071
20
196.6025203319074
42
0.13165
10
623.5218153891353
20
195.22349811512623
42
0.13165
0
SEQEND
0
LWPOLYLINE
8
Holes
90
12
70
1
10
653.3104235544095
20
192.71706818029915
42
0.13165
10
654.0677355032847
20
197.09250487957112
42
0.13165
10
654.9765098419348
20
199.5159031159716
42
0.13165
10
654.551832387313
20
202.0690147215059
42
0.13165
10
652.9074951204288
20
204.0677355032846
42
0.13165
10
650.4840968840284
20
204.9765098419348
42
0.13165
10
647.9309852784941
20
204.55183238731303
42
0.13165
10
645.9322644967153
20
202.90749512042888
42
0.13165
10
645.0234901580652
20
200.4840968840284
42
0.13165
10
645.448167612687
20
197.9309852784941
42
0.13165
10
647.0925048795712
20
195.93226449671536
42
0.13165
10
649.5159031159716
20
195.0234901580652
42
0.13165
0
SEQEND
0
LWPOLYLINE
8
Holes
90
12
70
1
10
679.5066945971321
20
193.3901812575396
42
0.13165
10
679.5048883621529
20
197.83067272074052
42
0.13165
10
679.986011402467
20
200.37375164811516
42
0.13165
10
679.1311367140378
20
202.81668412320755
42
0.13165
10
677.1693272792595
20
204.5048883621529
42
0.13165
10
674.6262483518848
20
204.98601140246703
42
0.13165
10
672.1833158767924
20
204.13113671403775
42
0.13165
10
670.4951116378471
20
202.16932727925948
42
0.13165
10
670.013988597533
20
199.62624835188484
42
0.13165
10
670.8688632859622
20
197.18331587679245
42
0.13165
10
672.8306727207405
20
195.4951116378471
42
0.13165
10
675.3737516481152
20
195.01398859753297
42
0.13165
0
SEQEND
0
LWPOLYLINE
8
Holes
90
12
70
1
10
705.3813823519705
20
194.08047941283246
42
0.13165
10
704.7626088236672
20
198.47764748079572
42
0.13165
10
704.8857164891858
20
201.06290845668747
42
0.13165
10
703.6997003669798
20
203.36336396998155
42
0.13165
10
701.5223525192042
20
204.76260882366716
42
0.13165
10
698.9370915433126
20
204.88571648918582
42
0.13165
10
696.6366360300184
20
203.69970036697973
42
0.13165
10
695.2373911763328
20
201.52235251920428
42
0.13165
10
695.1142835108142
20
198.93709154331253
42
0.13165
10
696.3002996330202
20
196.63663603001845
42
0.13165
10
698.4776474807958
20
195.23739117633284
42
0.13165
10
701.0629084566874
20
195.11428351081418
42
0.13165
0
SEQEND
0
LWPOLYLINE
8
Holes
90
12
70
1
10
731.0057081353821
20
194.7149768408638
42
0.13165
10
729.9022546203274
20
199.01618109518125
42
0.13165
10
729.7373864894325
20
201.59911514586727
42
0.13165
10
728.3031394744601
20
203.7535675846138
42
0.13165
10
725.9838189048188
20
204.9022546203274
42
0.13165
10
723.4008848541328
20
204.73738648943254
42
0.13165
10
721.2464324153863
20
203.30313947446012
42
0.13165
10
720.0977453796726
20
200.98381890481875
42
0.13165
10
720.2626135105675
20
198.40088485413273
42
0.13165
10
721.6968605255399
20
196.2464324153862
42
0.13165
10
724.0161810951812
20
195.0977453796726
42
0.13165
10
726.5991151458672
20
195.26261351056746
42
0.13165
0
SEQEND
0
LWPOLYLINE
8
Holes
90
12
70
1
10
756.4512399668456
20
195.26909069097985
42
0.13165
10
754.9702452198175
20
199.45533271175694
42
0.13165
10
754.5766922675216
20
202.01342690167985
42
0.13165
10
752.9568183181376
20
204.03202497927853
42
0.13165
10
750.5446672882431
20
204.97024521981743
42
0.13165
10
747.9865730983202
20
204.5766922675216
42
0.13165
10
745.9679750207215
20
202.95681831813758
42
0.13165
10
745.0297547801825
20
200.54466728824306
42
0.13165
10
745.4233077324784
20
197.98657309832015
42
0.13165
10
747.0431816818624
20
195.96797502072147
42
0.13165
10
749.4553327117569
20
195.02975478018257
42
0.13165
10
752.0134269016798
20
195.4233077324784
42
0.13165
0
SEQEND
0
LWPOLYLINE
8
Holes
90
12
70
1
10
781.773092393688
20
195.74262763825323
42
0.13165
10
779.9964726599915
20
199.812220986376
42
0.13165
10
779.420961759679
20
202.33561493389976
42
0.13165
10
777.6608577260918
20
204.23318274605504
42
0.13165
10
775.187779013624
20
204.9964726599915
42
0.13165
10
772.6643850661003
20
204.42096175967905
42
0.13165
10
770.766817253945
20
202.66085772609173
42
0.13165
10
770.0035273400085
20
200.187779013624
42
0.13165
10
770.579038240321
20
197.66438506610024
42
0.13165
10
772.3391422739082
20
195.76681725394496
42
0.13165
10
774.812220986376
20
195.0035273400085
42
0.13165
10
777.3356149338997
20
195.57903824032095
42
0.13165
0
SEQEND
0
LWPOLYLINE
8
Holes
90
12
70
1
10
807.0097272694131
20
196.14465000182275
42
0.13165
10
804.9989230550005
20
200.103770372378
42
0.13165
10
804.2773091710052
20
202.58932930613983
42
0.13165
10
802.4095937488607
20
204.38107954338324
42
0.13165
10
799.896229627622
20
204.9989230550006
42
0.13165
10
797.4106706938602
20
204.27730917100524
42
0.13165
10
795.6189204566168
20
202.40959374886077
42
0.13165
10
795.0010769449995
20
199.896229627622
42
0.13165
10
795.7226908289948
20
197.41067069386017
42
0.13165
10
797.5904062511393
20
195.61892045661676
42
0.13165
10
800.103770372378
20
195.0010769449994
42
0.13165
10
802.5893293061398
20
195.72269082899476
42
0.13165
0
SEQEND
0
LWPOLYLINE
8
Holes
90
12
70
1
10
832.1870748873536
20
196.48631894396047
42
0.13165
10
829.9881437246057
20
200.34412524271903
42
0.13165
10
829.1477965618769
20
202.79209306458102
42
0.13165
10
827.1960506600248
20
204.49192180459602
42
0.13165
10
824.655874757281
20
204.98814372460575
42
0.13165
10
822.207906935419
20
204.147796561877
42
0.13165
10
820.508078195404
20
202.19605066002472
42
0.13165
10
820.0118562753943
20
199.65587475728097
42
0.13165
10
820.8522034381231
20
197.20790693541898
42
0.13165
10
822.8039493399752
20
195.50807819540398
42
0.13165
10
825.344125242719
20
195.01185627539425
42
0.13165
10
827.792093064581
20
195.852203438123
42
0.13165
0
SEQEND
0
LWPOLYLINE
8
Holes
90
12
70
1
10
857.3225202593821
20
196.77809108587186
42
0.13165
10
854.9702768883845
20
200.54437822586036
42
0.13165
10
854.0321969362535
20
202.95658381705442
42
0.13165
10
852.0136930713301
20
204.57657516211384
42
0.13165
10
849.4556217741397
20
204.9702768883845
42
0.13165
10
847.0434161829456
20
204.03219693625348
42
0.13165
10
845.4234248378862
20
202.0136930713301
42
0.13165
10
845.0297231116155
20
199.45562177413964
42
0.13165
10
845.9678030637465
20
197.04341618294558
42
0.13165
10
847.9863069286699
20
195.42342483788616
42
0.13165
10
850.5443782258603
20
195.0297231116155
42
0.13165
10
852.9565838170544
20
195.96780306374652
42
0.13165
0
SEQEND
0
LWPOLYLINE
8
Holes
90
12
70
1
10
882.4278135270821
20
197.02887458916717
42
0.13165
10
879.948898696527
20
200.71302292495645
42
0.13165
10
878.9293605294698
20
203.09194531475646
42
0.13165
10
876.8569533817705
20
204.6423834544263
42
0.13165
10
874.2869770750435
20
204.94889869652698
42
0.13165
10
871.9080546852435
20
203.92936052946985
42
0.13165
10
870.3576165455737
20
201.85695338177052
42
0.13165
10
870.051101303473
20
199.28697707504355
42
0.13165
10
871.0706394705302
20
196.90805468524354
42
0.13165
10
873.1430466182295
20
195.3576165455737
42
0.13165
10
875.7130229249565
20
195.05110130347302
42
0.13165
10
878.0919453147565
20
196.07063947053015
42
0.13165
0
SEQEND
0
LWPOLYLINE
8
Holes
90
12
70
1
10
907.5110105270928
20
197.24596280673262
42
0.13165
10
904.9260903257427
20
200.85652443200604
42
0.13165
10
903.837857147427
20
203.2048170799507
42
0.13165
10
901.7212732457921
20
204.69438157943304
42
0.13165
10
899.143475567994
20
204.9260903257428
42
0.13165
10
896.7951829200493
20
203.837857147427
42
0.13165
10
895.3056184205669
20
201.7212732457921
42
0.13165
10
895.0739096742573
20
199.14347556799396
42
0.13165
10
896.162142852573
20
196.7951829200493
42
0.13165
10
898.2787267542079
20
195.30561842056696
42
0.13165
10
900.856524432006
20
195.0739096742572
42
0.13165
10
903.2048170799507
20
196.162142852573
42
0.13165
0
SEQEND
0
LWPOLYLINE
8
Holes
90
12
70
1
10
932.5777277565809
20
197.43523060546494
42
0.13165
10
929.9030558983932
20
200.9798177673589
42
0.13165
10
928.7562620805041
20
203.30007502680874
42
0.13165
10
926.6029808715845
20
204.73607984786304
42
0.13165
10
924.0201822326411
20
204.90305589839315
42
0.13165
10
921.6999249731913
20
203.75626208050414
42
0.13165
10
920.263920152137
20
201.6029808715844
42
0.13165
10
920.0969441016068
20
199.0201822326411
42
0.13165
10
921.2437379194959
20
196.69992497319126
42
0.13165
10
923.3970191284155
20
195.26392015213696
42
0.13165
10
925.9798177673589
20
195.09694410160685
42
0.13165
10
928.3000750268087
20
196.24373791949586
42
0.13165
0
SEQEND
0
LWPOLYLINE
8
Holes
90
12
70
1
10
957.63194973521
20
197.60138722607684
42
0.13165
10
954.8804804612871
20
201.08669704471606
42
0.13165
10
953.6832715397902
20
203.38134747758514
42
0.13165
10
951.499132983702
20
204.76996858450627
42
0.13165
10
948.9133029552839
20
204.88048046128714
42
0.13165
10
946.6186525224149
20
203.6832715397902
42
0.13165
10
945.2300314154937
20
201.49913298370197
42
0.13165
10
945.1195195387129
20
198.91330295528394
42
0.13165
10
946.3167284602098
20
196.61865252241486
42
0.13165
10
948.500867016298
20
195.23003141549373
42
0.13165
10
951.0866970447161
20
195.11951953871286
42
0.13165
10
953.3813474775851
20
196.3167284602098
42
0.13165
0
SEQEND
0
LWPOLYLINE
8
Holes
90
12
70
1
10
982.6765518532012
20
197.74821145639433
42
0.13165
10
979.8587394938397
20
201.18010615242957
42
0.13165
10
978.6177387558212
20
203.4513716540862
42
0.13165
10
976.4073678397535
20
204.79784490825074
42
0.13165
10
973.8198938475705
20
204.85873949383972
42
0.13165
10
971.5486283459138
20
203.61773875582116
42
0.13165
10
970.2021550917493
20
201.40736783975353
42
0.13165
10
970.1412605061603
20
198.81989384757043
42
0.13165
10
971.3822612441788
20
196.5486283459138
42
0.13165
10
973.5926321602465
20
195.20215509174926
42
0.13165
10
976.1801061524295
20
195.14126050616028
42
0.13165
10
978.4513716540862
20
196.38226124417884
42
0.13165
0
SEQEND
0
LWPOLYLINE
8
Holes
90
12
70
1
10
1007.7136431424303
20
197.87874813583167
42
0.13165
10
1004.8380230307228
20
201.26235223063767
42
0.13165
10
1003.5586747333813
20
203.51224061561757
42
0.13165
10
1001.3257824151052
20
204.82102696401896
42
0.13165
10
998.7376477693623
20
204.83802303072278
42
0.13165
10
996.4877593843825
20
203.55867473338128
42
0.13165
10
995.178973035981
20
201.3257824151052
42
0.13165
10
995.1619769692772
20
198.73764776936233
42
0.13165
10
996.4413252666187
20
196.48775938438243
42
0.13165
10
998.6742175848948
20
195.17897303598104
42
0.13165
10
1001.2623522306377
20
195.16197696927722
42
0.13165
10
1003.5122406156175
20
196.44132526661872
42
0.13165
0
SEQEND
0
LWPOLYLINE
8
Holes
90
12
70
1
10
1032.7447943425557
20
197.99546499369146
42
0.13165
10
1029.8184100943085
20
201.33526183314967
42
0.13165
10
1028.5052346309476
20
203.56557571536564
42
0.13165
10
1026.252834378943
20
204.84049646409736
42
0.13165
10
1023.6647381668504
20
204.81841009430846
42
0.13165
10
1021.4344242846344
20
203.50523463094768
42
0.13165
10
1020.1595035359027
20
201.25283437894285
42
0.13165
10
1020.1815899056916
20
198.66473816685033
42
0.13165
10
1021.4947653690523
20
196.43442428463436
42
0.13165
10
1023.7471656210572
20
195.15950353590264
42
0.13165
10
1026.3352618331496
20
195.18158990569154
42
0.13165
10
1028.5655757153656
20
196.49476536905232
42
0.13165
0
SEQEND
0
LWPOLYLINE
8
Holes
90
12
70
1
10
1057.7711920519741
20
198.10037527618408
42
0.13165
10
1054.7999138103783
20
201.40029547344096
42
0.13165
10
1053.456699559043
20
203.6126483579934
42
0.13165
10
1051.187265452385
20
204.8569950324839
42
0.13165
10
1048.599704526559
20
204.79991381037834
42
0.13165
10
1046.3873516420067
20
203.45669955904293
42
0.13165
10
1045.1430049675162
20
201.18726545238496
42
0.13165
10
1045.2000861896217
20
198.59970452655904
42
0.13165
10
1046.543300440957
20
196.3873516420066
42
0.13165
10
1048.812734547615
20
195.1430049675161
42
0.13165
10
1051.400295473441
20
195.20008618962166
42
0.13165
10
1053.6126483579933
20
196.54330044095707
42
0.13165
0
SEQEND
0
LWPOLYLINE
8
Holes
90
12
70
1
10
1082.7937445760542
20
198.19513283501902
42
0.13165
10
1079.7825089849753
20
201.45863217043572
42
0.13165
10
1078.412458189598
20
203.65446700686226
42
0.13165
10
1076.128041978113
20
204.87109036003386
42
0.13165
10
1073.5413678295643
20
204.78250898497535
42
0.13165
10
1071.3455329931378
20
203.4124581895981
42
0.13165
10
1070.1289096399662
20
201.12804197811312
42
0.13165
10
1070.2174910150247
20
198.54136782956428
42
0.13165
10
1071.587541810402
20
196.34553299313774
42
0.13165
10
1073.871958021887
20
195.12890963996614
42
0.13165
10
1076.4586321704357
20
195.21749101502465
42
0.13165
10
1078.6544670068622
20
196.5875418104019
42
0.13165
0
SEQEND
0
LWPOLYLINE
8
Holes
90
12
70
1
10
1107.8131557336408
20
198.28110573859905
42
0.13165
10
1104.7661490498483
20
201.5112323562674
42
0.13165
10
1103.371989977258
20
203.69184013647276
42
0.13165
10
1101.0743089133755
20
204.88322233352545
42
0.13165
10
1098.4887676437327
20
204.76614904984837
42
0.13165
10
1096.3081598635272
20
203.37198997725804
42
0.13165
10
1095.1167776664745
20
201.0743089133756
42
0.13165
10
1095.2338509501517
20
198.4887676437326
42
0.13165
10
1096.628010022742
20
196.30815986352724
42
0.13165
10
1098.9256910866245
20
195.11677766647455
42
0.13165
10
1101.5112323562673
20
195.23385095015163
42
0.13165
10
1103.6918401364728
20
196.62801002274196
42
0.13165
0
SEQEND
0
LWPOLYLINE
8
Holes
90
12
70
1
10
1132.829977084367
20
198.35943337279926
42
0.13165
10
1129.7507764873203
20
201.55888510401675
42
0.13165
10
1128.3348505737129
20
203.72542234531977
42
0.13165
10
1126.0253541420004
20
204.8937356777295
42
0.13165
10
1123.4411148959832
20
204.75077648732022
42
0.13165
10
1121.2745776546803
20
203.33485057371274
42
0.13165
10
1120.1062643222706
20
201.02535414200045
42
0.13165
10
1120.2492235126797
20
198.44111489598325
42
0.13165
10
1121.6651494262874
20
196.27457765468023
42
0.13165
10
1123.9746458579996
20
195.1062643222705
42
0.13165
10
1126.5588851040168
20
195.24922351267978
42
0.13165
10
1128.7254223453197
20
196.66514942628726
42
0.13165
0
SEQEND
0
LWPOLYLINE
8
Holes
90
12
70
1
10
67.0014508523877
20
299.8476466829026
42
0.13165
10
70.7182686895613
20
297.4179897395229
42
0.13165
10
72.58291704321938
20
295.62304786637543
42
0.13165
10
75.09522082318585
20
295.00090678274233
42
0.13165
10
77.58201026047706
20
295.7182686895613
42
0.13165
10
79.37695213362457
20
297.58291704321937
42
0.13165
10
79.99909321725768
20
300.09522082318585
42
0.13165
10
79.2817313104387
20
302.5820102604771
42
0.13165
10
77.41708295678062
20
304.37695213362457
42
0.13165
10
74.90477917681415
20
304.99909321725767
42
0.13165
10
72.41798973952294
20
304.2817313104387
42
0.13165
10
70.62304786637543
20
302.41708295678063
42
0.13165
0
SEQEND
0
LWPOLYLINE
8
Holes
90
12
70
1
10
92.00159952015994
20
299.8400319904032
42
0.13165
10
95.72072874975954
20
297.4139146249852
42
0.13165
10
97.58708507511477
20
295.62074874376157
42
0.13165
10
100.099980005998
20
295.00099970009995
42
0.13165
10
102.5860853750148
20
295.72072874975953
42
0.13165
10
104.37925125623846
20
297.58708507511477
42
0.13165
10
104.99900029990003
20
300.099980005998
42
0.13165
10
104.27927125024046
20
302.5860853750148
42
0.13165
10
102.41291492488523
20
304.37925125623843
42
0.13165
10
99.900019994002
20
304.99900029990005
42
0.13165
10
97.4139146249852
20
304.27927125024047
42
0.13165
10
95.62074874376154
20
302.41291492488523
42
0.13165
0
SEQEND
0
LWPOLYLINE
8
Holes
90
12
70
1
10
117.0017722640891
20
299.83161625819133
42
0.13165
10
120.72345216647011
20
297.4094134587837
42
0.13165
10
122.59169420627195
20
295.61821232783973
42
0.13165
10
125.10523983863041
20
295.00110766505566
42
0.13165
10
127.59058654121627
20
295.7234521664701
42
0.13165
10
129.3817876721603
20
297.59169420627194
42
0.13165
10
129.99889233494432
20
300.1052398386304
42
0.13165
10
129.2765478335299
20
302.5905865412163
42
0.13165
10
127.40830579372805
20
304.38178767216027
42
0.13165
10
124.89476016136959
20
304.99889233494434
42
0.13165
10
122.40941345878373
20
304.2765478335299
42
0.13165
10
120.61821232783971
20
302.40830579372806
42
0.13165
0
SEQEND
0
LWPOLYLINE
8
Holes
90
12
70
1
10
142.0019745773471
20
299.8222661017188
42
0.13165
10
145.7264835956309
20
297.4044157610303
42
0.13165
10
147.59681834981168
20
295.61539990920517
42
0.13165
10
150.11108368642573
20
295.00123411084195
42
0.13165
10
152.59558423896974
20
295.7264835956309
42
0.13165
10
154.38460009079483
20
297.5968183498117
42
0.13165
10
154.99876588915805
20
300.11108368642573
42
0.13165
10
154.2735164043691
20
302.5955842389697
42
0.13165
10
152.40318165018832
20
304.38460009079483
42
0.13165
10
149.88891631357427
20
304.99876588915805
42
0.13165
10
147.40441576103026
20
304.2735164043691
42
0.13165
10
145.61539990920517
20
302.4031816501883
42
0.13165
0
SEQEND
0
LWPOLYLINE
8
Holes
90
12
70
1
10
167.00221361376677
20
299.8118167909122
42
0.13165
10
170.72987838751538
20
297.3988346045298
42
0.13165
10
172.60254890407447
20
295.6122638818355
42
0.13165
10
175.1176145056799
20
295.00138350860425
42
0.13165
10
177.60116539547022
20
295.7298783875154
42
0.13165
10
179.38773611816453
20
297.60254890407447
42
0.13165
10
179.99861649139575
20
300.1176145056799
42
0.13165
10
179.27012161248462
20
302.6011653954702
42
0.13165
10
177.39745109592553
20
304.3877361181645
42
0.13165
10
174.8823854943201
20
304.99861649139575
42
0.13165
10
172.39883460452978
20
304.2701216124846
42
0.13165
10
170.61226388183547
20
302.39745109592553
42
0.13165
0
SEQEND
0
LWPOLYLINE
8
Holes
90
12
70
1
10
192.002498828735
20
299.8000624707184
42
0.13165
10
195.73370598970595
20
297.39256152177484
42
0.13165
10
197.60900024618456
20
295.60874503390494
42
0.13165
10
200.12496095580101
20
295.0015617679594
42
0.13165
10
202.60743847822516
20
295.733705989706
42
0.13165
10
204.39125496609506
20
297.60900024618456
42
0.13165
10
204.99843823204063
20
300.124960955801
42
0.13165
10
204.26629401029405
20
302.60743847822516
42
0.13165
10
202.39099975381544
20
304.39125496609506
42
0.13165
10
199.87503904419899
20
304.9984382320406
42
0.13165
10
197.39256152177484
20
304.266294010294
42
0.13165
10
195.60874503390494
20
302.39099975381544
42
0.13165
0
SEQEND
0
LWPOLYLINE
8
Holes
90
12
70
1
10
217.00284292830582
20
299.7867424780882
42
0.13165
10
220.738054736759
20
297.38545939539324
42
0.13165
10
222.61631743479793
20
295.6047687855641
42
0.13165
10
225.1332859511949
20
295.00177683019115
42
0.13165
10
227.6145406046068
20
295.738054736759
42
0.13165
10
229.3952312144359
20
297.6163174347979
42
0.13165
10
229.99822316980885
20
300.1332859511949
42
0.13165
10
229.261945263241
20
302.61454060460676
42
0.13165
10
227.38368256520207
20
304.3952312144359
42
0.13165
10
224.8667140488051
20
304.99822316980885
42
0.13165
10
222.3854593953932
20
304.261945263241
42
0.13165
10
220.6047687855641
20
302.3836825652021
42
0.13165
0
SEQEND
0
LWPOLYLINE
8
Holes
90
12
70
1
10
242.00326330831444
20
299.771521808809
42
0.13165
10
245.74303873326292
20
297.37735233523443
42
0.13165
10
247.6246872324621
20
295.60023986376854
42
0.13165
10
250.14279886949438
20
295.0020395676965
42
0.13165
10
252.62264766476557
20
295.74303873326295
42
0.13165
10
254.39976013623146
20
297.6246872324621
42
0.13165
10
254.99796043230347
20
300.1427988694944
42
0.13165
10
254.25696126673708
20
302.62264766476557
42
0.13165
10
252.3753127675379
20
304.39976013623146
42
0.13165
10
249.85720113050562
20
304.9979604323035
42
0.13165
10
247.37735233523443
20
304.25696126673705
42
0.13165
10
245.60023986376854
20
302.3753127675379
42
0.13165
0
SEQEND
0
LWPOLYLINE
8
Holes
90
12
70
1
10
267.00378429538677
20
299.7539625937042
42
0.13165
10
270.748807980508
20
297.368010939725
42
0.13165
10
272.6343542448917
20
295.5950346015731
42
0.13165
10
275.1537733789349
20
295.00236518461674
42
0.13165
10
277.631989060275
20
295.748807980508
42
0.13165
10
279.4049653984269
20
297.6343542448917
42
0.13165
10
279.99763481538326
20
300.1537733789349
42
0.13165
10
279.251192019492
20
302.631989060275
42
0.13165
10
277.3656457551083
20
304.4049653984269
42
0.13165
10
274.8462266210651
20
304.99763481538326
42
0.13165
10
272.368010939725
20
304.251192019492
42
0.13165
10
270.5950346015731
20
302.3656457551083
42
0.13165
0
SEQEND
0
LWPOLYLINE
8
Holes
90
12
70
1
10
292.00444074416674
20
299.7334813581389
42
0.13165
10
295.755563679947
20
297.35713028603095
42
0.13165
10
297.64564517907326
20
295.58898952878377
42
0.13165
10
300.1665741511632
20
295.0027754651042
42
0.13165
10
302.64286971396905
20
295.755563679947
42
0.13165
10
304.41101047121623
20
297.64564517907326
42
0.13165
10
304.9972245348958
20
300.1665741511632
42
0.13165
10
304.244436320053
20
302.64286971396905
42
0.13165
10
302.35435482092674
20
304.41101047121623
42
0.13165
10
299.8334258488368
20
304.9972245348958
42
0.13165
10
297.35713028603095
20
304.244436320053
42
0.13165
10
295.58898952878377
20
302.35435482092674
42
0.13165
0
SEQEND
0
LWPOLYLINE
8
Holes
90
12
70
1
10
317.00528401642856
20
299.70928305514286
42
0.13165
10
320.7635820841339
20
297.3442960929109
42
0.13165
10
322.659006417357
20
295.5818839935982
42
0.13165
10
325.1816980905357
20
295.0033025102678
42
0.13165
10
327.6557039070891
20
295.7635820841339
42
0.13165
10
329.4181160064018
20
297.659006417357
42
0.13165
10
329.9966974897322
20
300.1816980905357
42
0.13165
10
329.2364179158661
20
302.6557039070891
42
0.13165
10
327.340993582643
20
304.4181160064018
42
0.13165
10
324.8183019094643
20
304.9966974897322
42
0.13165
10
322.34429609291084
20
304.2364179158661
42
0.13165
10
320.5818839935982
20
302.340993582643
42
0.13165
0
SEQEND
0
LWPOLYLINE
8
Holes
90
12
70
1
10
342.0063923302257
20
299.680255693209
42
0.13165
10
345.773253027178
20
297.32893092044776
42
0.13165
10
347.6750642859433
20
295.57341283543366
42
0.13165
10
350.1998401917444
20
295.00399520639104
42
0.13165
10
352.67106907955224
20
295.773253027178
42
0.13165
10
354.42658716456634
20
297.6750642859433
42
0.13165
10
354.99600479360896
20
300.19984019174433
42
0.13165
10
354.226746972822
20
302.67106907955224
42
0.13165
10
352.3249357140567
20
304.42658716456634
42
0.13165
10
349.80015980825567
20
304.99600479360896
42
0.13165
10
347.32893092044776
20
304.226746972822
42
0.13165
10
345.57341283543366
20
302.3249357140567
42
0.13165
0
SEQEND
0
LWPOLYLINE
8
Holes
90
12
70
1
10
367.0078895482703
20
299.6447950910342
42
0.13165
10
370.78514485839617
20
297.31020518713865
42
0.13165
10
372.6947257805303
20
295.56314179029255
42
0.13165
10
375.2220030681036
20
295.00493096766894
42
0.13165
10
377.68979481286135
20
295.78514485839617
42
0.13165
10
379.43685820970745
20
297.6947257805303
42
0.13165
10
379.99506903233106
20
300.2220030681036
42
0.13165
10
379.21485514160383
20
302.68979481286135
42
0.13165
10
377.3052742194697
20
304.43685820970745
42
0.13165
10
374.7779969318964
20
304.99506903233106
42
0.13165
10
372.31020518713865
20
304.21485514160383
42
0.13165
10
370.56314179029255
20
302.3052742194697
42
0.13165
0
SEQEND
0
LWPOLYLINE
8
Holes
90
12
70
1
10
392.00998128897726
20
299.60049906444885
42
0.13165
10
395.80011955457303
20
297.28688292841605
42
0.13165
10
397.71935537719474
20
295.5504314698536
42
0.13165
10
400.2496880847195
20
295.0062383056108
42
0.13165
10
402.71311707158395
20
295.80011955457303
42
0.13165
10
404.4495685301464
20
297.71935537719474
42
0.13165
10
404.9937616943892
20
300.2496880847195
42
0.13165
10
404.19988044542697
20
302.71311707158395
42
0.13165
10
402.28064462280526
20
304.4495685301464
42
0.13165
10
399.7503119152805
20
304.9937616943892
42
0.13165
10
397.28688292841605
20
304.19988044542697
42
0.13165
10
395.5504314698536
20
302.28064462280526
42
0.13165
0
SEQEND
0
LWPOLYLINE
8
Holes
90
12
70
1
10
417.01302932460817
20
299.5436016756919
42
0.13165
10
420.81954978623963
20
297.2570388245054
42
0.13165
10
422.75110450337473
20
295.53430083354704
42
0.13165
10
425.28524895269254
20
295.00814332788013
42
0.13165
10
427.7429611754946
20
295.81954978623963
42
0.13165
10
429.46569916645296
20
297.75110450337473
42
0.13165
10
429.99185667211987
20
300.28524895269254
42
0.13165
10
429.18045021376037
20
302.7429611754946
42
0.13165
10
427.24889549662527
20
304.46569916645296
42
0.13165
10
424.71475104730746
20
304.99185667211987
42
0.13165
10
422.2570388245054
20
304.18045021376037
42
0.13165
10
420.53430083354704
20
302.24889549662527
42
0.13165
0
SEQEND
0
LWPOLYLINE
8
Holes
90
12
70
1
10
442.0177187371471
20
299.4678479158098
42
0.13165
10
445.845761055195
20
297.2175013406175
42
0.13165
10
447.79357287009947
20
295.5131660025761
42
0.13165
10
450.33259505261884
20
295.01107421071697
42
0.13165
10
452.7824986593825
20
295.845761055195
42
0.13165
10
454.4868339974239
20
297.79357287009947
42
0.13165
10
454.98892578928303
20
300.33259505261884
42
0.13165
10
454.154238944805
20
302.7824986593825
42
0.13165
10
452.20642712990053
20
304.4868339974239
42
0.13165
10
449.66740494738116
20
304.98892578928303
42
0.13165
10
447.2175013406175
20
304.154238944805
42
0.13165
10
445.5131660025761
20
302.20642712990053
42
0.13165
0
SEQEND
0
LWPOLYLINE
8
Holes
90
12
70
1
10
467.025477771711
20
299.3620382217369
42
0.13165
10
470.8830262852435
20
297.1626548620226
42
0.13165
10
472.85326874529676
20
295.48430017382907
42
0.13165
10
475.3987261114145
20
295.0159236073194
42
0.13165
10
477.8373451379774
20
295.8830262852435
42
0.13165
10
479.51569982617093
20
297.85326874529676
42
0.13165
10
479.9840763926806
20
300.3987261114145
42
0.13165
10
479.1169737147565
20
302.8373451379774
42
0.13165
10
477.1467312547032
20
304.51569982617093
42
0.13165
10
474.6012738885855
20
304.9840763926806
42
0.13165
10
472.1626548620226
20
304.1169737147565
42
0.13165
10
470.48430017382907
20
302.14673125470324
42
0.13165
0
SEQEND
0
LWPOLYLINE
8
Holes
90
12
70
1
10
492.03970247832007
20
299.203970247832
42
0.13165
10
495.9401218753918
20
297.08154328225896
42
0.13165
10
497.9432707666911
20
295.4426032802868
42
0.13165
10
500.497518595105
20
295.0248140489501
42
0.13165
10
502.91845671774104
20
295.9401218753918
42
0.13165
10
504.5573967197132
20
297.9432707666911
42
0.13165
10
504.9751859510499
20
300.497518595105
42
0.13165
10
504.0598781246082
20
302.91845671774104
42
0.13165
10
502.0567292333089
20
304.5573967197132
42
0.13165
10
499.502481404895
20
304.9751859510499
42
0.13165
10
497.08154328225896
20
304.0598781246082
42
0.13165
10
495.4426032802868
20
302.0567292333089
42
0.13165
0
SEQEND
0
LWPOLYLINE
8
Holes
90
12
70
1
10
517.070176794539
20
298.9426902392719
42
0.13165
10
521.0382665855722
20
296.949644553006
42
0.13165
10
523.0942159435808
20
295.37744798511704
42
0.13165
10
525.6608186004551
20
295.04386049658683
42
0.13165
10
528.050355446994
20
296.03826658557216
42
0.13165
10
529.6225520148829
20
298.0942159435808
42
0.13165
10
529.9561395034132
20
300.6608186004551
42
0.13165
10
528.9617334144278
20
303.050355446994
42
0.13165
10
526.9057840564192
20
304.62255201488296
42
0.13165
10
524.3391813995449
20
304.95613950341317
42
0.13165
10
521.949644553006
20
303.96173341442784
42
0.13165
10
520.3774479851171
20
301.9057840564192
42
0.13165
0
SEQEND
0
LWPOLYLINE
8
Holes
90
12
70
1
10
542.1553545944727
20
298.43107091889453
42
0.13165
10
546.2442514598032
20
296.69934053516425
42
0.13165
10
548.3977560863812
20
295.2636707841123
42
0.13165
10
550.9805806756909
20
295.0970966215454
42
0.13165
10
553.3006594648357
20
296.24425145980325
42
0.13165
10
554.7363292158877
20
298.39775608638115
42
0.13165
10
554.9029033784547
20
300.98058067569093
42
0.13165
10
553.7557485401968
20
303.30065946483575
42
0.13165
10
551.6022439136188
20
304.7363292158877
42
0.13165
10
549.0194193243091
20
304.9029033784546
42
0.13165
10
546.6993405351642
20
303.75574854019675
42
0.13165
10
545.2636707841123
20
301.60224391361885
42
0.13165
0
SEQEND
0
LWPOLYLINE
8
Holes
90
12
70
1
10
567.5721864729179
20
297.0288745891672
42
0.13165
10
571.9080546852435
20
296.0706394705302
42
0.13165
10
574.2869770750435
20
295.051101303473
42
0.13165
10
576.8569533817705
20
295.3576165455737
42
0.13165
10
578.9293605294698
20
296.90805468524354
42
0.13165
10
579.948898696527
20
299.2869770750435
42
0.13165
10
579.6423834544263
20
301.8569533817705
42
0.13165
10
578.0919453147565
20
303.9293605294698
42
0.13165
10
575.7130229249565
20
304.948898696527
42
0.13165
10
573.1430466182295
20
304.6423834544263
42
0.13165
10
571.0706394705302
20
303.09194531475646
42
0.13165
10
570.051101303473
20
300.7130229249565
42
0.13165
0
SEQEND
0
LWPOLYLINE
8
Holes
90
12
70
1
10
600.0
20
292.0
42
0.13165
10
602.5
20
295.6698729810778
42
0.13165
10
604.3301270189222
20
297.5
42
0.13165
10
605.0
20
300.0
42
0.13165
10
604.3301270189222
20
302.5
42
0.13165
10
602.5
20
304.3301270189222
42
0.13165
10
600.0
20
305.0
42
0.13165
10
597.5
20
304.3301270189222
42
0.13165
10
595.6698729810778
20
302.5
42
0.13165
10
595.0
20
300.0
42
0.13165
10
595.6698729810778
20
297.5
42
0.13165
10
597.5
20
295.6698729810778
42
0.13165
0
SEQEND
0
LWPOLYLINE
8
Holes
90
12
70
1
10
632.4278135270821
20
297.0288745891672
42
0.13165
10
629.948898696527
20
300.7130229249565
42
0.13165
10
628.9293605294698
20
303.09194531475646
42
0.13165
10
626.8569533817705
20
304.6423834544263
42
0.13165
10
624.2869770750435
20
304.948898696527
42
0.13165
10
621.9080546852435
20
303.9293605294698
42
0.13165
10
620.3576165455737
20
301.8569533817705
42
0.13165
10
620.051101303473
20
299.2869770750435
42
0.13165
10
621.0706394705302
20
296.90805468524354
42
0.13165
10
623.1430466182295
20
295.3576165455737
42
0.13165
10
625.7130229249565
20
295.051101303473
42
0.13165
10
628.0919453147565
20
296.0706394705302
42
0.13165
0
SEQEND
0
LWPOLYLINE
8
Holes
90
12
70
1
10
657.8446454055273
20
298.43107091889453
42
0.13165
10
654.7363292158877
20
301.60224391361885
42
0.13165
10
653.3006594648358
20
303.75574854019675
42
0.13165
10
650.9805806756909
20
304.9029033784546
42
0.13165
10
648.3977560863812
20
304.7363292158877
42
0.13165
10
646.2442514598032
20
303.30065946483575
42
0.13165
10
645.0970966215453
20
300.98058067569093
42
0.13165
10
645.2636707841123
20
298.39775608638115
42
0.13165
10
646.6993405351642
20
296.24425145980325
42
0.13165
10
649.0194193243091
20
295.0970966215454
42
0.13165
10
651.6022439136188
20
295.2636707841123
42
0.13165
10
653.7557485401968
20
296.69934053516425
42
0.13165
0
SEQEND
0
LWPOLYLINE
8
Holes
90
12
70
1
10
682.929823205461
20
298.9426902392719
42
0.13165
10
679.6225520148829
20
301.9057840564192
42
0.13165
10
678.050355446994
20
303.96173341442784
42
0.13165
10
675.6608186004551
20
304.95613950341317
42
0.13165
10
673.0942159435808
20
304.62255201488296
42
0.13165
10
671.0382665855722
20
303.050355446994
42
0.13165
10
670.0438604965868
20
300.6608186004551
42
0.13165
10
670.3774479851171
20
298.0942159435808
42
0.13165
10
671.949644553006
20
296.03826658557216
42
0.13165
10
674.3391813995449
20
295.04386049658683
42
0.13165
10
676.9057840564192
20
295.37744798511704
42
0.13165
10
678.9617334144278
20
296.949644553006
42
0.13165
0
SEQEND
0
LWPOLYLINE
8
Holes
90
12
70
1
10
707.9602975216799
20
299.203970247832
42
0.13165
10
704.5573967197132
20
302.0567292333089
42
0.13165
10
702.918456717741
20
304.0598781246082
42
0.13165
10
700.497518595105
20
304.9751859510499
42
0.13165
10
697.9432707666911
20
304.5573967197132
42
0.13165
10
695.9401218753918
20
302.91845671774104
42
0.13165
10
695.02481404895
20
300.497518595105
42
0.13165
10
695.4426032802868
20
297.9432707666911
42
0.13165
10
697.081543282259
20
295.9401218753918
42
0.13165
10
699.502481404895
20
295.0248140489501
42
0.13165
10
702.0567292333089
20
295.4426032802868
42
0.13165
10
704.0598781246082
20
297.08154328225896
42
0.13165
0
SEQEND
0
LWPOLYLINE
8
Holes
90
12
70
1
10
732.974522228289
20
299.3620382217369
42
0.13165
10
729.5156998261709
20
302.14673125470324
42
0.13165
10
727.8373451379774
20
304.1169737147565
42
0.13165
10
725.3987261114145
20
304.9840763926806
42
0.13165
10
722.8532687452968
20
304.51569982617093
42
0.13165
10
720.8830262852435
20
302.8373451379774
42
0.13165
10
720.0159236073193
20
300.3987261114145
42
0.13165
10
720.4843001738291
20
297.85326874529676
42
0.13165
10
722.1626548620226
20
295.8830262852435
42
0.13165
10
724.6012738885855
20
295.0159236073194
42
0.13165
10
727.1467312547032
20
295.48430017382907
42
0.13165
10
729.1169737147565
20
297.1626548620226
42
0.13165
0
SEQEND
0
LWPOLYLINE
8
Holes
90
12
70
1
10
757.9822812628529
20
299.4678479158098
42
0.13165
10
754.4868339974239
20
302.20642712990053
42
0.13165
10
752.7824986593824
20
304.154238944805
42
0.13165
10
750.3325950526189
20
304.98892578928303
42
0.13165
10
747.7935728700994
20
304.4868339974239
42
0.13165
10
745.845761055195
20
302.7824986593825
42
0.13165
10
745.011074210717
20
300.33259505261884
42
0.13165
10
745.5131660025761
20
297.79357287009947
42
0.13165
10
747.2175013406176
20
295.845761055195
42
0.13165
10
749.6674049473811
20
295.01107421071697
42
0.13165
10
752.2064271299006
20
295.5131660025761
42
0.13165
10
754.154238944805
20
297.2175013406175
42
0.13165
0
SEQEND
0
LWPOLYLINE
8
Holes
90
12
70
1
10
782.9869706753918
20
299.5436016756919
42
0.13165
10
779.465699166453
20
302.24889549662527
42
0.13165
10
777.7429611754947
20
304.18045021376037
42
0.13165
10
775.2852489526925
20
304.99185667211987
42
0.13165
10
772.7511045033747
20
304.46569916645296
42
0.13165
10
770.8195497862396
20
302.7429611754946
42
0.13165
10
770.0081433278801
20
300.28524895269254
42
0.13165
10
770.534300833547
20
297.75110450337473
42
0.13165
10
772.2570388245053
20
295.81954978623963
42
0.13165
10
774.7147510473075
20
295.00814332788013
42
0.13165
10
777.2488954966253
20
295.53430083354704
42
0.13165
10
779.1804502137604
20
297.2570388245054
42
0.13165
0
SEQEND
0
LWPOLYLINE
8
Holes
90
12
70
1
10
807.9900187110228
20
299.60049906444885
42
0.13165
10
804.4495685301464
20
302.28064462280526
42
0.13165
10
802.713117071584
20
304.19988044542697
42
0.13165
10
800.2496880847194
20
304.9937616943892
42
0.13165
10
797.7193553771947
20
304.4495685301464
42
0.13165
10
795.800119554573
20
302.71311707158395
42
0.13165
10
795.0062383056107
20
300.2496880847195
42
0.13165
10
795.5504314698536
20
297.71935537719474
42
0.13165
10
797.286882928416
20
295.80011955457303
42
0.13165
10
799.7503119152806
20
295.0062383056108
42
0.13165
10
802.2806446228053
20
295.5504314698536
42
0.13165
10
804.199880445427
20
297.28688292841605
42
0.13165
0
SEQEND
0
LWPOLYLINE
8
Holes
90
12
70
1
10
832.9921104517297
20
299.6447950910342
42
0.13165
10
829.4368582097075
20
302.3052742194697
42
0.13165
10
827.6897948128614
20
304.21485514160383
42
0.13165
10
825.2220030681036
20
304.99506903233106
42
0.13165
10
822.6947257805302
20
304.43685820970745
42
0.13165
10
820.7851448583962
20
302.68979481286135
42
0.13165
10
820.004930967669
20
300.2220030681036
42
0.13165
10
820.5631417902925
20
297.6947257805303
42
0.13165
10
822.3102051871386
20
295.78514485839617
42
0.13165
10
824.7779969318964
20
295.00493096766894
42
0.13165
10
827.3052742194698
20
295.56314179029255
42
0.13165
10
829.2148551416038
20
297.31020518713865
42
0.13165
0
SEQEND
0
LWPOLYLINE
8
Holes
90
12
70
1
10
857.9936076697743
20
299.680255693209
42
0.13165
10
854.4265871645664
20
302.3249357140567
42
0.13165
10
852.6710690795522
20
304.226746972822
42
0.13165
10
850.1998401917443
20
304.99600479360896
42
0.13165
10
847.6750642859433
20
304.42658716456634
42
0.13165
10
845.773253027178
20
302.67106907955224
42
0.13165
10
845.0039952063911
20
300.1998401917444
42
0.13165
10
845.5734128354336
20
297.6750642859433
42
0.13165
10
847.3289309204478
20
295.773253027178
42
0.13165
10
849.8001598082557
20
295.00399520639104
42
0.13165
10
852.3249357140567
20
295.57341283543366
42
0.13165
10
854.226746972822
20
297.32893092044776
42
0.13165
0
SEQEND
0
LWPOLYLINE
8
Holes
90
12
70
1
10
882.9947159835715
20
299.70928305514286
42
0.13165
10
879.4181160064019
20
302.340993582643
42
0.13165
10
877.6557039070891
20
304.2364179158661
42
0.13165
10
875.1816980905357
20
304.9966974897322
42
0.13165
10
872.659006417357
20
304.4181160064018
42
0.13165
10
870.7635820841339
20
302.65570390708916
42
0.13165
10
870.0033025102679
20
300.1816980905357
42
0.13165
10
870.5818839935981
20
297.659006417357
42
0.13165
10
872.3442960929109
20
295.7635820841339
42
0.13165
10
874.8183019094643
20
295.0033025102678
42
0.13165
10
877.340993582643
20
295.5818839935982
42
0.13165
10
879.2364179158661
20
297.34429609291084
42
0.13165
0
SEQEND
0
LWPOLYLINE
8
Holes
90
12
70
1
10
907.9955592558332
20
299.7334813581389
42
0.13165
10
904.4110104712162
20
302.35435482092674
42
0.13165
10
902.642869713969
20
304.244436320053
42
0.13165
10
900.1665741511632
20
304.9972245348958
42
0.13165
10
897.6456451790733
20
304.41101047121623
42
0.13165
10
895.7555636799469
20
302.64286971396905
42
0.13165
10
895.0027754651043
20
300.1665741511632
42
0.13165
10
895.5889895287838
20
297.64564517907326
42
0.13165
10
897.357130286031
20
295.755563679947
42
0.13165
10
899.8334258488368
20
295.0027754651042
42
0.13165
10
902.3543548209267
20
295.58898952878377
42
0.13165
10
904.2444363200531
20
297.35713028603095
42
0.13165
0
SEQEND
0
LWPOLYLINE
8
Holes
90
12
70
1
10
932.9962157046132
20
299.7539625937042
42
0.13165
10
929.404965398427
20
302.3656457551083
42
0.13165
10
927.631989060275
20
304.251192019492
42
0.13165
10
925.1537733789348
20
304.99763481538326
42
0.13165
10
922.6343542448917
20
304.4049653984269
42
0.13165
10
920.748807980508
20
302.631989060275
42
0.13165
10
920.0023651846167
20
300.1537733789349
42
0.13165
10
920.595034601573
20
297.6343542448917
42
0.13165
10
922.368010939725
20
295.748807980508
42
0.13165
10
924.8462266210652
20
295.00236518461674
42
0.13165
10
927.3656457551083
20
295.5950346015731
42
0.13165
10
929.251192019492
20
297.368010939725
42
0.13165
0
SEQEND
0
LWPOLYLINE
8
Holes
90
12
70
1
10
957.9967366916856
20
299.771521808809
42
0.13165
10
954.3997601362314
20
302.3753127675379
42
0.13165
10
952.6226476647656
20
304.25696126673705
42
0.13165
10
950.1427988694944
20
304.9979604323035
42
0.13165
10
947.6246872324621
20
304.39976013623146
42
0.13165
10
945.7430387332629
20
302.62264766476557
42
0.13165
10
945.0020395676966
20
300.1427988694944
42
0.13165
10
945.6002398637686
20
297.6246872324621
42
0.13165
10
947.3773523352344
20
295.74303873326295
42
0.13165
10
949.8572011305056
20
295.0020395676965
42
0.13165
10
952.3753127675379
20
295.60023986376854
42
0.13165
10
954.2569612667371
20
297.37735233523443
42
0.13165
0
SEQEND
0
LWPOLYLINE
8
Holes
90
12
70
1
10
982.9971570716941
20
299.7867424780882
42
0.13165
10
979.3952312144359
20
302.3836825652021
42
0.13165
10
977.6145406046068
20
304.261945263241
42
0.13165
10
975.1332859511949
20
304.99822316980885
42
0.13165
10
972.6163174347979
20
304.3952312144359
42
0.13165
10
970.738054736759
20
302.61454060460676
42
0.13165
10
970.0017768301911
20
300.1332859511949
42
0.13165
10
970.6047687855641
20
297.6163174347979
42
0.13165
10
972.3854593953932
20
295.738054736759
42
0.13165
10
974.8667140488051
20
295.00177683019115
42
0.13165
10
977.3836825652021
20
295.6047687855641
42
0.13165
10
979.261945263241
20
297.38545939539324
42
0.13165
0
SEQEND
0
LWPOLYLINE
8
Holes
90
12
70
1
10
1007.997501171265
20
299.8000624707184
42
0.13165
10
1004.3912549660951
20
302.39099975381544
42
0.13165
10
1002.6074384782252
20
304.266294010294
42
0.13165
10
1000.124960955801
20
304.9984382320406
42
0.13165
10
997.6090002461846
20
304.39125496609506
42
0.13165
10
995.733705989706
20
302.60743847822516
42
0.13165
10
995.0015617679594
20
300.12496095580104
42
0.13165
10
995.6087450339049
20
297.60900024618456
42
0.13165
10
997.3925615217748
20
295.733705989706
42
0.13165
10
999.875039044199
20
295.0015617679594
42
0.13165
10
1002.3909997538154
20
295.60874503390494
42
0.13165
10
1004.266294010294
20
297.39256152177484
42
0.13165
0
SEQEND
0
LWPOLYLINE
8
Holes
90
12
70
1
10
1032.9977863862332
20
299.81181679091213
42
0.13165
10
1029.3877361181644
20
302.39745109592553
42
0.13165
10
1027.6011653954702
20
304.2701216124846
42
0.13165
10
1025.11761450568
20
304.99861649139575
42
0.13165
10
1022.6025489040744
20
304.3877361181645
42
0.13165
10
1020.7298783875153
20
302.6011653954702
42
0.13165
10
1020.0013835086042
20
300.1176145056799
42
0.13165
10
1020.6122638818355
20
297.60254890407447
42
0.13165
10
1022.3988346045297
20
295.7298783875154
42
0.13165
10
1024.88238549432
20
295.00138350860425
42
0.13165
10
1027.3974510959256
20
295.6122638818355
42
0.13165
10
1029.2701216124847
20
297.3988346045298
42
0.13165
0
SEQEND
0
LWPOLYLINE
8
Holes
90
12
70
1
10
1057.998025422653
20
299.8222661017188
42
0.13165
10
1054.384600090795
20
302.4031816501883
42
0.13165
10
1052.5955842389696
20
304.2735164043691
42
0.13165
10
1050.1110836864257
20
304.99876588915805
42
0.13165
10
1047.5968183498117
20
304.38460009079483
42
0.13165
10
1045.726483595631
20
302.5955842389697
42
0.13165
10
1045.001234110842
20
300.11108368642573
42
0.13165
10
1045.615399909205
20
297.5968183498117
42
0.13165
10
1047.4044157610304
20
295.7264835956309
42
0.13165
10
1049.8889163135743
20
295.00123411084195
42
0.13165
10
1052.4031816501883
20
295.61539990920517
42
0.13165
10
1054.273516404369
20
297.40441576103024
42
0.13165
0
SEQEND
0
LWPOLYLINE
8
Holes
90
12
70
1
10
1082.9982277359109
20
299.83161625819133
42
0.13165
10
1079.3817876721603
20
302.40830579372806
42
0.13165
10
1077.5905865412162
20
304.2765478335299
42
0.13165
10
1075.1052398386305
20
304.99889233494434
42
0.13165
10
1072.591694206272
20
304.38178767216027
42
0.13165
10
1070.7234521664702
20
302.5905865412163
42
0.13165
10
1070.0011076650558
20
300.1052398386304
42
0.13165
10
1070.6182123278397
20
297.59169420627194
42
0.13165
10
1072.4094134587838
20
295.7234521664701
42
0.13165
10
1074.8947601613695
20
295.00110766505566
42
0.13165
10
1077.408305793728
20
295.61821232783973
42
0.13165
10
1079.2765478335298
20
297.4094134587837
42
0.13165
0
SEQEND
0
LWPOLYLINE
8
Holes
90
12
70
1
10
1107.99840047984
20
299.8400319904032
42
0.13165
10
1104.3792512562384
20
302.41291492488523
42
0.13165
10
1102.5860853750148
20
304.27927125024047
42
0.13165
10
1100.099980005998
20
304.99900029990005
42
0.13165
10
1097.5870850751148
20
304.37925125623843
42
0.13165
10
1095.7207287497595
20
302.5860853750148
42
0.13165
10
1095.0009997001
20
300.099980005998
42
0.13165
10
1095.6207487437616
20
297.58708507511477
42
0.13165
10
1097.4139146249852
20
295.72072874975953
42
0.13165
10
1099.900019994002
20
295.00099970009995
42
0.13165
10
1102.4129149248852
20
295.62074874376157
42
0.13165
10
1104.2792712502405
20
297.4139146249852
42
0.13165
0
SEQEND
0
LWPOLYLINE
8
Holes
90
12
70
1
10
1132.9985491476123
20
299.8476466829026
42
0.13165
10
1129.3769521336246
20
302.41708295678063
42
0.13165
10
1127.582010260477
20
304.2817313104387
42
0.13165
10
1125.0952208231859
20
304.99909321725767
42
0.13165
10
1122.5829170432194
20
304.37695213362457
42
0.13165
10
1120.7182686895612
20
302.5820102604771
42
0.13165
10
1120.0009067827423
20
300.09522082318585
42
0.13165
10
1120.6230478663754
20
297.58291704321937
42
0.13165
10
1122.417989739523
20
295.7182686895613
42
0.13165
10
1124.9047791768141
20
295.00090678274233
42
0.13165
10
1127.4170829567806
20
295.62304786637543
42
0.13165
10
1129.2817313104388
20
297.4179897395229
42
0.13165
0
SEQEND
0
LWPOLYLINE
8
Holes
90
12
70
1
10
67.11502196149387
20
401.35171052088674
42
0.13165
10
70.30972090620494
20
398.2675791439985
42
0.13165
10
71.80430958193519
20
396.15453998175917
42
0.13165
10
74.15518092444577
20
395.07188872593366
42
0.13165
10
76.73242085600153
20
395.309720906205
42
0.13165
10
78.84546001824083
20
396.8043095819352
42
0.13165
10
79.92811127406634
20
399.15518092444574
42
0.13165
10
79.69027909379506
20
401.7324208560015
42
0.13165
10
78.19569041806481
20
403.84546001824083
42
0.13165
10
75.84481907555423
20
404.92811127406634
42
0.13165
10
73.26757914399847
20
404.690279093795
42
0.13165
10
71.15453998175917
20
403.1956904180648
42
0.13165
0
SEQEND
0
LWPOLYLINE
8
Holes
90
12
70
1
10
92.12653340821043
20
401.4172239865221
42
0.13165
10
95.29547870150068
20
398.3066366745538
42
0.13165
10
96.77244670557775
20
396.181243693077
42
0.13165
10
99.11423500842368
20
395.0790833801315
42
0.13165
10
101.69336332544623
20
395.29547870150066
42
0.13165
10
103.81875630692299
20
396.77244670557775
42
0.13165
10
104.92091661986848
20
399.1142350084237
42
0.13165
10
104.70452129849932
20
401.6933633254462
42
0.13165
10
103.22755329442225
20
403.818756306923
42
0.13165
10
100.88576499157632
20
404.9209166198685
42
0.13165
10
98.30663667455377
20
404.7045212984993
42
0.13165
10
96.18124369307701
20
403.22755329442225
42
0.13165
0
SEQEND
0
LWPOLYLINE
8
Holes
90
12
70
1
10
117.13984677178672
20
401.4892921906088
42
0.13165
10
120.28016345714039
20
398.3498051603865
42
0.13165
10
121.73759907198021
20
396.21097107627094
42
0.13165
10
124.06919238086948
20
395.0874042323667
42
0.13165
10
126.6501948396135
20
395.2801634571404
42
0.13165
10
128.7890289237291
20
396.7375990719802
42
0.13165
10
129.9125957676333
20
399.0691923808695
42
0.13165
10
129.7198365428596
20
401.6501948396135
42
0.13165
10
128.2624009280198
20
403.78902892372906
42
0.13165
10
125.93080761913052
20
404.9125957676333
42
0.13165
10
123.3498051603865
20
404.7198365428596
42
0.13165
10
121.21097107627091
20
403.2624009280198
42
0.13165
0
SEQEND
0
LWPOLYLINE
8
Holes
90
12
70
1
10
142.15535459447264
20
401.56892908110547
42
0.13165
10
145.2636707841123
20
398.39775608638115
42
0.13165
10
146.69934053516425
20
396.24425145980325
42
0.13165
10
149.01941932430907
20
395.0970966215454
42
0.13165
10
151.60224391361885
20
395.2636707841123
42
0.13165
10
153.75574854019678
20
396.69934053516425
42
0.13165
10
154.9029033784546
20
399.01941932430907
42
0.13165
10
154.7363292158877
20
401.60224391361885
42
0.13165
10
153.30065946483575
20
403.75574854019675
42
0.13165
10
150.98058067569093
20
404.9029033784546
42
0.13165
10
148.39775608638115
20
404.7363292158877
42
0.13165
10
146.24425145980322
20
403.30065946483575
42
0.13165
0
SEQEND
0
LWPOLYLINE
8
Holes
90
12
70
1
10
167.17356108360462
20
401.65736353523664
42
0.13165
10
170.24588956851008
20
398.4513121666395
42
0.13165
10
171.65716351061337
20
396.281741778033
42
0.13165
10
173.96414779047709
20
395.1084756772529
42
0.13165
10
176.54868783336047
20
395.2458895685101
42
0.13165
10
178.718258221967
20
396.6571635106134
42
0.13165
10
179.8915243227471
20
398.96414779047706
42
0.13165
10
179.75411043148992
20
401.5486878333605
42
0.13165
10
178.34283648938663
20
403.718258221967
42
0.13165
10
176.03585220952291
20
404.8915243227471
42
0.13165
10
173.45131216663953
20
404.75411043148995
42
0.13165
10
171.281741778033
20
403.3428364893866
42
0.13165
0
SEQEND
0
LWPOLYLINE
8
Holes
90
12
70
1
10
192.1951219512195
20
401.7560975609756
42
0.13165
10
195.226705347393
20
398.5114912968366
42
0.13165
10
196.6104599226756
20
396.32426632300275
42
0.13165
10
198.90243902439025
20
395.1219512195122
42
0.13165
10
201.48850870316343
20
395.22670534739296
42
0.13165
10
203.67573367699725
20
396.6104599226756
42
0.13165
10
204.8780487804878
20
398.9024390243902
42
0.13165
10
204.773294652607
20
401.4885087031634
42
0.13165
10
203.3895400773244
20
403.67573367699725
42
0.13165
10
201.09756097560975
20
404.8780487804878
42
0.13165
10
198.51149129683657
20
404.77329465260704
42
0.13165
10
196.32426632300275
20
403.3895400773244
42
0.13165
0
SEQEND
0
LWPOLYLINE
8
Holes
90
12
70
1
10
217.22090158415585
20
401.86698361980257
42
0.13165
10
220.206007089649
20
398.57956627204777
42
0.13165
10
221.55849721804967
20
396.37287185202564
42
0.13165
10
223.83313523762337
20
395.1380634900974
42
0.13165
10
226.42043372795226
20
395.206007089649
42
0.13165
10
228.6271281479744
20
396.55849721804964
42
0.13165
10
229.8619365099026
20
398.83313523762337
42
0.13165
10
229.793992910351
20
401.42043372795223
42
0.13165
10
228.44150278195033
20
403.62712814797436
42
0.13165
10
226.16686476237663
20
404.8619365099026
42
0.13165
10
223.57956627204774
20
404.793992910351
42
0.13165
10
221.3728718520256
20
403.44150278195036
42
0.13165
0
SEQEND
0
LWPOLYLINE
8
Holes
90
12
70
1
10
242.2520565392252
20
401.99232831848497
42
0.13165
10
245.18369998540064
20
398.6571470038123
42
0.13165
10
246.50038833320343
20
396.42890518445375
42
0.13165
10
248.7547948009469
20
395.15753533701576
42
0.13165
10
251.3428529961877
20
395.18369998540066
42
0.13165
10
253.57109481554627
20
396.50038833320343
42
0.13165
10
254.84246466298424
20
398.7547948009469
42
0.13165
10
254.81630001459936
20
401.3428529961877
42
0.13165
10
253.49961166679657
20
403.57109481554625
42
0.13165
10
251.2452051990531
20
404.84246466298424
42
0.13165
10
248.6571470038123
20
404.81630001459934
42
0.13165
10
246.42890518445373
20
403.49961166679657
42
0.13165
0
SEQEND
0
LWPOLYLINE
8
Holes
90
12
70
1
10
267.29015982498396
20
402.1350326638506
42
0.13165
10
270.1597288858706
20
398.7462952733101
42
0.13165
10
271.4350546173049
20
396.49412430077723
42
0.13165
10
273.6656045850934
20
395.18134989061497
42
0.13165
10
276.2537047266899
20
395.1597288858706
42
0.13165
10
278.50587569922277
20
396.4350546173049
42
0.13165
10
279.81865010938503
20
398.6656045850934
42
0.13165
10
279.8402711141294
20
401.2537047266899
42
0.13165
10
278.5649453826951
20
403.50587569922277
42
0.13165
10
276.3343954149066
20
404.81865010938503
42
0.13165
10
273.7462952733101
20
404.8402711141294
42
0.13165
10
271.49412430077723
20
403.5649453826951
42
0.13165
0
SEQEND
0
LWPOLYLINE
8
Holes
90
12
70
1
10
292.3373897182308
20
402.2987830845308
42
0.13165
10
295.1341208090142
20
398.8496871300681
42
0.13165
10
296.3611814438261
20
396.5708602368459
42
0.13165
10
298.56326057216825
20
395.21086857389423
42
0.13165
10
301.1503128699319
20
395.1341208090142
42
0.13165
10
303.4291397631541
20
396.3611814438261
42
0.13165
10
304.78913142610577
20
398.56326057216825
42
0.13165
10
304.8658791909858
20
401.1503128699319
42
0.13165
10
303.6388185561739
20
403.4291397631541
42
0.13165
10
301.43673942783175
20
404.78913142610577
42
0.13165
10
298.8496871300681
20
404.8658791909858
42
0.13165
10
296.5708602368459
20
403.6388185561739
42
0.13165
0
SEQEND
0
LWPOLYLINE
8
Holes
90
12
70
1
10
317.3968229676425
20
402.48831248331703
42
0.13165
10
320.10706206178094
20
398.9708458168298
42
0.13165
10
321.27716853794675
20
396.66225736385405
42
0.13165
10
323.4448046979269
20
395.24801435477656
42
0.13165
10
326.0291541831702
20
395.10706206178094
42
0.13165
10
328.33774263614595
20
396.27716853794675
42
0.13165
10
329.75198564522344
20
398.4448046979269
42
0.13165
10
329.89293793821906
20
401.0291541831702
42
0.13165
10
328.72283146205325
20
403.33774263614595
42
0.13165
10
326.5551953020731
20
404.75198564522344
42
0.13165
10
323.9708458168298
20
404.89293793821906
42
0.13165
10
321.66225736385405
20
403.72283146205325
42
0.13165
0
SEQEND
0
LWPOLYLINE
8
Holes
90
12
70
1
10
342.47290070505017
20
402.70975574618194
42
0.13165
10
345.0790393254216
20
399.11447979173096
42
0.13165
10
346.18108314892544
20
396.77263666678533
42
0.13165
10
348.3064026586363
20
395.29556294065634
42
0.13165
10
350.88552020826904
20
395.0790393254216
42
0.13165
10
353.22736333321467
20
396.18108314892544
42
0.13165
10
354.70443705934366
20
398.3064026586363
42
0.13165
10
354.9209606745784
20
400.88552020826904
42
0.13165
10
353.81891685107456
20
403.22736333321467
42
0.13165
10
351.6935973413637
20
404.70443705934366
42
0.13165
10
349.11447979173096
20
404.9209606745784
42
0.13165
10
346.77263666678533
20
403.81891685107456
42
0.13165
0
SEQEND
0
LWPOLYLINE
8
Holes
90
12
70
1
10
367.5721864729179
20
402.9711254108328
42
0.13165
10
370.051101303473
20
399.2869770750435
42
0.13165
10
371.0706394705302
20
396.90805468524354
42
0.13165
10
373.1430466182295
20
395.3576165455737
42
0.13165
10
375.7130229249565
20
395.051101303473
42
0.13165
10
378.09194531475646
20
396.0706394705302
42
0.13165
10
379.6423834544263
20
398.1430466182295
42
0.13165
10
379.948898696527
20
400.7130229249565
42
0.13165
10
378.9293605294698
20
403.09194531475646
42
0.13165
10
376.8569533817705
20
404.6423834544263
42
0.13165
10
374.2869770750435
20
404.948898696527
42
0.13165
10
371.90805468524354
20
403.9293605294698
42
0.13165
0
SEQEND
0
LWPOLYLINE
8
Holes
90
12
70
1
10
392.70462795859913
20
403.2829174186304
42
0.13165
10
395.0253523579831
20
399.49712741397497
42
0.13165
10
395.94326506014954
20
397.0771757446271
42
0.13165
10
397.948176613356
20
395.44039247412445
42
0.13165
10
400.50287258602503
20
395.0253523579831
42
0.13165
10
402.9228242553729
20
395.94326506014954
42
0.13165
10
404.55960752587555
20
397.948176613356
42
0.13165
10
404.9746476420169
20
400.50287258602503
42
0.13165
10
404.05673493985046
20
402.9228242553729
42
0.13165
10
402.051823386644
20
404.55960752587555
42
0.13165
10
399.49712741397497
20
404.9746476420169
42
0.13165
10
397.0771757446271
20
404.05673493985046
42
0.13165
0
SEQEND
0
LWPOLYLINE
8
Holes
90
12
70
1
10
417.88569758145485
20
403.6587841009661
42
0.13165
10
420.00590082803234
20
399.75715548070417
42
0.13165
10
420.7964055077051
20
397.29264089113616
42
0.13165
10
422.7132599368962
20
395.5535609884093
42
0.13165
10
425.24284451929583
20
395.00590082803234
42
0.13165
10
427.70735910886384
20
395.7964055077051
42
0.13165
10
429.4464390115907
20
397.7132599368962
42
0.13165
10
429.99409917196766
20
400.24284451929583
42
0.13165
10
429.2035944922949
20
402.70735910886384
42
0.13165
10
427.2867400631038
20
404.4464390115907
42
0.13165
10
424.75715548070417
20
404.99409917196766
42
0.13165
10
422.29264089113616
20
404.2035944922949
42
0.13165
0
SEQEND
0
LWPOLYLINE
8
Holes
90
12
70
1
10
443.14005659429966
20
404.1159660434202
42
0.13165
10
445.00070732526865
20
400.0840996574162
42
0.13165
10
445.6284357140211
20
397.5731861024063
42
0.13165
10
447.42752122286237
20
395.7125353714373
42
0.13165
10
449.9159003425838
20
395.00070732526865
42
0.13165
10
452.4268138975937
20
395.6284357140211
42
0.13165
10
454.2874646285627
20
397.42752122286237
42
0.13165
10
454.99929267473135
20
399.9159003425838
42
0.13165
10
454.3715642859789
20
402.4268138975937
42
0.13165
10
452.57247877713763
20
404.2874646285627
42
0.13165
10
450.0840996574162
20
404.99929267473135
42
0.13165
10
447.5731861024063
20
404.3715642859789
42
0.13165
0
SEQEND
0
LWPOLYLINE
8
Holes
90
12
70
1
10
468.50772526838807
20
404.6744378067606
42
0.13165
10
470.02519140668494
20
400.501277827037
42
0.13165
10
470.4410504657056
20
397.94671503591036
42
0.13165
10
472.07847637077464
20
395.9423282927425
42
0.13165
10
474.498722172963
20
395.02519140668494
42
0.13165
10
477.05328496408964
20
395.4410504657056
42
0.13165
10
479.0576717072575
20
397.07847637077464
42
0.13165
10
479.97480859331506
20
399.498722172963
42
0.13165
10
479.5589495342944
20
402.05328496408964
42
0.13165
10
477.92152362922536
20
404.0576717072575
42
0.13165
10
475.501277827037
20
404.97480859331506
42
0.13165
10
472.94671503591036
20
404.5589495342944
42
0.13165
0
SEQEND
0
LWPOLYLINE
8
Holes
90
12
70
1
10
494.05364683002267
20
405.3517178529796
42
0.13165
10
495.1090301052723
20
401.0384668934865
42
0.13165
10
495.24506237527766
20
398.4538537633846
42
0.13165
10
496.65517634188774
20
396.28352926876414
42
0.13165
10
498.9615331065135
20
395.1090301052723
42
0.13165
10
501.5461462366154
20
395.24506237527766
42
0.13165
10
503.71647073123586
20
396.65517634188774
42
0.13165
10
504.8909698947277
20
398.9615331065135
42
0.13165
10
504.75493762472234
20
401.5461462366154
42
0.13165
10
503.34482365811226
20
403.71647073123586
42
0.13165
10
501.0384668934865
20
404.8909698947277
42
0.13165
10
498.4538537633846
20
404.75493762472234
42
0.13165
0
SEQEND
0
LWPOLYLINE
8
Holes
90
12
70
1
10
519.8785248026842
20
406.145770236779
42
0.13165
10
520.3073670349269
20
401.72603472013435
42
0.13165
10
520.0730432815433
20
399.1484734329138
42
0.13165
10
521.1588936020131
20
396.79907800167763
42
0.13165
10
523.2739652798656
20
395.3073670349269
42
0.13165
10
525.8515265670862
20
395.0730432815432
42
0.13165
10
528.2009219983224
20
396.1588936020131
42
0.13165
10
529.6926329650731
20
398.27396527986565
42
0.13165
10
529.9269567184567
20
400.8515265670862
42
0.13165
10
528.8411063979869
20
403.2009219983224
42
0.13165
10
526.7260347201344
20
404.6926329650731
42
0.13165
10
524.1484734329138
20
404.9269567184568
42
0.13165
0
SEQEND
0
LWPOLYLINE
8
Holes
90
12
70
1
10
546.114856550571
20
406.9932582089723
42
0.13165
10
545.711711231851
20
402.5711047121747
42
0.13165
10
545.0006806319321
20
400.08249761245867
42
0.13165
10
545.6292136193923
20
397.57178534410684
42
0.13165
10
547.4288952878253
20
395.711711231851
42
0.13165
10
549.9175023875413
20
395.00068063193214
42
0.13165
10
552.4282146558932
20
395.6292136193923
42
0.13165
10
554.288288768149
20
397.4288952878253
42
0.13165
10
554.9993193680679
20
399.91750238754133
42
0.13165
10
554.3707863806077
20
402.42821465589316
42
0.13165
10
552.5711047121747
20
404.288288768149
42
0.13165
10
550.0824976124587
20
404.99931936806786
42
0.13165
0
SEQEND
0
LWPOLYLINE
8
Holes
90
12
70
1
10
572.8588490897113
20
407.70814327703954
42
0.13165
10
571.4322732998962
20
403.5030452742388
42
0.13165
10
570.1587354068307
20
401.24986284804595
42
0.13165
10
570.1824104518503
20
398.6617806810695
42
0.13165
10
571.4969547257612
20
396.4322732998962
42
0.13165
10
573.750137151954
20
395.1587354068307
42
0.13165
10
576.3382193189304
20
395.1824104518503
42
0.13165
10
578.5677267001038
20
396.4969547257612
42
0.13165
10
579.8412645931693
20
398.75013715195405
42
0.13165
10
579.8175895481497
20
401.3382193189305
42
0.13165
10
578.5030452742388
20
403.5677267001038
42
0.13165
10
576.249862848046
20
404.8412645931693
42
0.13165
0
SEQEND
0
LWPOLYLINE
8
Holes
90
12
70
1
10
600.0
20
408.0
42
0.13165
10
597.5
20
404.3301270189222
42
0.13165
10
595.6698729810778
20
402.5
42
0.13165
10
595.0
20
400.0
42
0.13165
10
595.6698729810778
20
397.5
42
0.13165
10
597.5
20
395.6698729810778
42
0.13165
10
600.0
20
395.0
42
0.13165
10
602.5
20
395.6698729810778
42
0.13165
10
604.3301270189222
20
397.5
42
0.13165
10
605.0
20
400.0
42
0.13165
10
604.3301270189222
20
402.5
42
0.13165
10
602.5
20
404.3301270189222
42
0.13165
0
SEQEND
0
LWPOLYLINE
8
Holes
90
12
70
1
10
627.1411509102887
20
407.70814327703954
42
0.13165
10
623.750137151954
20
404.8412645931693
42
0.13165
10
621.4969547257612
20
403.5677267001038
42
0.13165
10
620.1824104518503
20
401.3382193189305
42
0.13165
10
620.1587354068307
20
398.75013715195405
42
0.13165
10
621.4322732998962
20
396.4969547257612
42
0.13165
10
623.6617806810696
20
395.1824104518503
42
0.13165
10
626.249862848046
20
395.1587354068307
42
0.13165
10
628.5030452742388
20
396.4322732998962
42
0.13165
10
629.8175895481497
20
398.6617806810695
42
0.13165
10
629.8412645931693
20
401.24986284804595
42
0.13165
10
628.5677267001038
20
403.5030452742388
42
0.13165
0
SEQEND
0
LWPOLYLINE
8
Holes
90
12
70
1
10
653.885143449429
20
406.9932582089723
42
0.13165
10
649.9175023875413
20
404.99931936806786
42
0.13165
10
647.4288952878253
20
404.288288768149
42
0.13165
10
645.6292136193923
20
402.42821465589316
42
0.13165
10
645.0006806319321
20
399.91750238754133
42
0.13165
10
645.711711231851
20
397.4288952878253
42
0.13165
10
647.5717853441068
20
395.6292136193923
42
0.13165
10
650.0824976124587
20
395.00068063193214
42
0.13165
10
652.5711047121747
20
395.711711231851
42
0.13165
10
654.3707863806077
20
397.57178534410684
42
0.13165
10
654.9993193680679
20
400.08249761245867
42
0.13165
10
654.288288768149
20
402.5711047121747
42
0.13165
0
SEQEND
0
LWPOLYLINE
8
Holes
90
12
70
1
10
680.1214751973158
20
406.145770236779
42
0.13165
10
675.8515265670862
20
404.9269567184568
42
0.13165
10
673.2739652798656
20
404.6926329650731
42
0.13165
10
671.1588936020131
20
403.20092199832237
42
0.13165
10
670.0730432815433
20
400.85152656708624
42
0.13165
10
670.3073670349269
20
398.27396527986565
42
0.13165
10
671.7990780016776
20
396.1588936020131
42
0.13165
10
674.1484734329138
20
395.0730432815432
42
0.13165
10
676.7260347201344
20
395.3073670349269
42
0.13165
10
678.8411063979869
20
396.79907800167763
42
0.13165
10
679.9269567184567
20
399.1484734329138
42
0.13165
10
679.6926329650731
20
401.72603472013435
42
0.13165
0
SEQEND
0
LWPOLYLINE
8
Holes
90
12
70
1
10
705.9463531699773
20
405.3517178529796
42
0.13165
10
701.5461462366154
20
404.75493762472234
42
0.13165
10
698.9615331065135
20
404.8909698947277
42
0.13165
10
696.6551763418878
20
403.71647073123586
42
0.13165
10
695.2450623752777
20
401.5461462366154
42
0.13165
10
695.1090301052723
20
398.9615331065135
42
0.13165
10
696.2835292687641
20
396.65517634188774
42
0.13165
10
698.4538537633846
20
395.24506237527766
42
0.13165
10
701.0384668934865
20
395.1090301052723
42
0.13165
10
703.3448236581122
20
396.28352926876414
42
0.13165
10
704.7549376247223
20
398.4538537633846
42
0.13165
10
704.8909698947277
20
401.0384668934865
42
0.13165
0
SEQEND
0
LWPOLYLINE
8
Holes
90
12
70
1
10
731.4922747316119
20
404.6744378067606
42
0.13165
10
727.0532849640897
20
404.5589495342944
42
0.13165
10
724.4987221729631
20
404.97480859331506
42
0.13165
10
722.0784763707746
20
404.0576717072575
42
0.13165
10
720.4410504657055
20
402.05328496408964
42
0.13165
10
720.0251914066849
20
399.498722172963
42
0.13165
10
720.9423282927426
20
397.07847637077464
42
0.13165
10
722.9467150359103
20
395.4410504657056
42
0.13165
10
725.5012778270369
20
395.02519140668494
42
0.13165
10
727.9215236292254
20
395.9423282927425
42
0.13165
10
729.5589495342945
20
397.94671503591036
42
0.13165
10
729.9748085933151
20
400.501277827037
42
0.13165
0
SEQEND
0
LWPOLYLINE
8
Holes
90
12
70
1
10
756.8599434057004
20
404.1159660434202
42
0.13165
10
752.4268138975937
20
404.3715642859789
42
0.13165
10
749.9159003425839
20
404.99929267473135
42
0.13165
10
747.4275212228624
20
404.2874646285627
42
0.13165
10
745.6284357140212
20
402.4268138975937
42
0.13165
10
745.0007073252686
20
399.9159003425838
42
0.13165
10
745.7125353714373
20
397.42752122286237
42
0.13165
10
747.5731861024063
20
395.6284357140211
42
0.13165
10
750.0840996574161
20
395.00070732526865
42
0.13165
10
752.5724787771376
20
395.7125353714373
42
0.13165
10
754.3715642859789
20
397.5731861024063
42
0.13165
10
754.9992926747314
20
400.0840996574162
42
0.13165
0
SEQEND
0
LWPOLYLINE
8
Holes
90
12
70
1
10
782.1143024185452
20
403.6587841009661
42
0.13165
10
777.7073591088639
20
404.2035944922949
42
0.13165
10
775.2428445192959
20
404.99409917196766
42
0.13165
10
772.7132599368962
20
404.4464390115907
42
0.13165
10
770.7964055077051
20
402.70735910886384
42
0.13165
10
770.0059008280324
20
400.24284451929583
42
0.13165
10
770.5535609884092
20
397.7132599368962
42
0.13165
10
772.2926408911361
20
395.7964055077051
42
0.13165
10
774.7571554807041
20
395.00590082803234
42
0.13165
10
777.2867400631038
20
395.5535609884093
42
0.13165
10
779.2035944922949
20
397.29264089113616
42
0.13165
10
779.9940991719676
20
399.75715548070417
42
0.13165
0
SEQEND
0
LWPOLYLINE
8
Holes
90
12
70
1
10
807.2953720414008
20
403.2829174186304
42
0.13165
10
802.9228242553729
20
404.05673493985046
42
0.13165
10
800.5028725860251
20
404.9746476420169
42
0.13165
10
797.948176613356
20
404.55960752587555
42
0.13165
10
795.9432650601495
20
402.9228242553729
42
0.13165
10
795.0253523579831
20
400.50287258602503
42
0.13165
10
795.4403924741245
20
397.948176613356
42
0.13165
10
797.0771757446271
20
395.94326506014954
42
0.13165
10
799.4971274139749
20
395.0253523579831
42
0.13165
10
802.051823386644
20
395.44039247412445
42
0.13165
10
804.0567349398505
20
397.0771757446271
42
0.13165
10
804.9746476420169
20
399.49712741397497
42
0.13165
0
SEQEND
0
LWPOLYLINE
8
Holes
90
12
70
1
10
832.4278135270821
20
402.9711254108328
42
0.13165
10
828.0919453147565
20
403.9293605294698
42
0.13165
10
825.7130229249565
20
404.948898696527
42
0.13165
10
823.1430466182295
20
404.6423834544263
42
0.13165
10
821.0706394705302
20
403.09194531475646
42
0.13165
10
820.051101303473
20
400.7130229249565
42
0.13165
10
820.3576165455737
20
398.1430466182295
42
0.13165
10
821.9080546852435
20
396.0706394705302
42
0.13165
10
824.2869770750435
20
395.051101303473
42
0.13165
10
826.8569533817705
20
395.3576165455737
42
0.13165
10
828.9293605294698
20
396.90805468524354
42
0.13165
10
829.948898696527
20
399.2869770750435
42
0.13165
0
SEQEND
0
LWPOLYLINE
8
Holes
90
12
70
1
10
857.5270992949498
20
402.70975574618194
42
0.13165
10
853.2273633332147
20
403.81891685107456
42
0.13165
10
850.8855202082691
20
404.9209606745784
42
0.13165
10
848.3064026586363
20
404.70443705934366
42
0.13165
10
846.1810831489254
20
403.22736333321467
42
0.13165
10
845.0790393254216
20
400.88552020826904
42
0.13165
10
845.2955629406564
20
398.3064026586363
42
0.13165
10
846.7726366667853
20
396.18108314892544
42
0.13165
10
849.1144797917309
20
395.0790393254216
42
0.13165
10
851.6935973413637
20
395.29556294065634
42
0.13165
10
853.8189168510746
20
396.77263666678533
42
0.13165
10
854.9209606745784
20
399.11447979173096
42
0.13165
0
SEQEND
0
LWPOLYLINE
8
Holes
90
12
70
1
10
882.6031770323575
20
402.48831248331703
42
0.13165
10
878.3377426361459
20
403.72283146205325
42
0.13165
10
876.0291541831701
20
404.89293793821906
42
0.13165
10
873.4448046979269
20
404.75198564522344
42
0.13165
10
871.2771685379467
20
403.33774263614595
42
0.13165
10
870.107062061781
20
401.0291541831702
42
0.13165
10
870.2480143547765
20
398.4448046979269
42
0.13165
10
871.6622573638541
20
396.27716853794675
42
0.13165
10
873.9708458168299
20
395.10706206178094
42
0.13165
10
876.5551953020731
20
395.24801435477656
42
0.13165
10
878.7228314620533
20
396.66225736385405
42
0.13165
10
879.892937938219
20
398.9708458168298
42
0.13165
0
SEQEND
0
LWPOLYLINE
8
Holes
90
12
70
1
10
907.6626102817692
20
402.2987830845308
42
0.13165
10
903.4291397631541
20
403.6388185561739
42
0.13165
10
901.1503128699319
20
404.8658791909858
42
0.13165
10
898.5632605721682
20
404.78913142610577
42
0.13165
10
896.3611814438261
20
403.4291397631541
42
0.13165
10
895.1341208090141
20
401.1503128699319
42
0.13165
10
895.2108685738942
20
398.56326057216825
42
0.13165
10
896.5708602368459
20
396.3611814438261
42
0.13165
10
898.8496871300681
20
395.1341208090142
42
0.13165
10
901.4367394278318
20
395.21086857389423
42
0.13165
10
903.6388185561739
20
396.5708602368459
42
0.13165
10
904.8658791909859
20
398.8496871300681
42
0.13165
0
SEQEND
0
LWPOLYLINE
8
Holes
90
12
70
1
10
932.709840175016
20
402.1350326638506
42
0.13165
10
928.5058756992228
20
403.5649453826951
42
0.13165
10
926.2537047266899
20
404.8402711141294
42
0.13165
10
923.6656045850934
20
404.81865010938503
42
0.13165
10
921.4350546173049
20
403.50587569922277
42
0.13165
10
920.1597288858705
20
401.2537047266899
42
0.13165
10
920.181349890615
20
398.6656045850934
42
0.13165
10
921.4941243007772
20
396.4350546173049
42
0.13165
10
923.7462952733101
20
395.1597288858706
42
0.13165
10
926.3343954149066
20
395.18134989061497
42
0.13165
10
928.5649453826951
20
396.49412430077723
42
0.13165
10
929.8402711141295
20
398.7462952733101
42
0.13165
0
SEQEND
0
LWPOLYLINE
8
Holes
90
12
70
1
10
957.7479434607748
20
401.99232831848497
42
0.13165
10
953.5710948155463
20
403.49961166679657
42
0.13165
10
951.3428529961877
20
404.81630001459934
42
0.13165
10
948.7547948009469
20
404.84246466298424
42
0.13165
10
946.5003883332034
20
403.57109481554625
42
0.13165
10
945.1836999854006
20
401.3428529961877
42
0.13165
10
945.1575353370157
20
398.7547948009469
42
0.13165
10
946.4289051844537
20
396.50038833320343
42
0.13165
10
948.6571470038123
20
395.18369998540066
42
0.13165
10
951.2452051990531
20
395.15753533701576
42
0.13165
10
953.4996116667966
20
396.42890518445375
42
0.13165
10
954.8163000145994
20
398.6571470038123
42
0.13165
0
SEQEND
0
LWPOLYLINE
8
Holes
90
12
70
1
10
982.7790984158441
20
401.86698361980257
42
0.13165
10
978.6271281479744
20
403.44150278195036
42
0.13165
10
976.4204337279523
20
404.793992910351
42
0.13165
10
973.8331352376234
20
404.8619365099026
42
0.13165
10
971.5584972180496
20
403.62712814797436
42
0.13165
10
970.206007089649
20
401.42043372795223
42
0.13165
10
970.1380634900975
20
398.83313523762337
42
0.13165
10
971.3728718520256
20
396.55849721804964
42
0.13165
10
973.5795662720477
20
395.206007089649
42
0.13165
10
976.1668647623766
20
395.1380634900974
42
0.13165
10
978.4415027819504
20
396.37287185202564
42
0.13165
10
979.793992910351
20
398.57956627204777
42
0.13165
0
SEQEND
0
LWPOLYLINE
8
Holes
90
12
70
1
10
1007.8048780487804
20
401.7560975609756
42
0.13165
10
1003.6757336769973
20
403.3895400773244
42
0.13165
10
1001.4885087031635
20
404.77329465260704
42
0.13165
10
998.9024390243902
20
404.8780487804878
42
0.13165
10
996.6104599226757
20
403.67573367699725
42
0.13165
10
995.226705347393
20
401.4885087031634
42
0.13165
10
995.1219512195122
20
398.9024390243902
42
0.13165
10
996.3242663230027
20
396.6104599226756
42
0.13165
10
998.5114912968365
20
395.22670534739296
42
0.13165
10
1001.0975609756098
20
395.1219512195122
42
0.13165
10
1003.3895400773243
20
396.32426632300275
42
0.13165
10
1004.773294652607
20
398.5114912968366
42
0.13165
0
SEQEND
0
LWPOLYLINE
8
Holes
90
12
70
1
10
1032.8264389163953
20
401.65736353523664
42
0.13165
10
1028.718258221967
20
403.3428364893866
42
0.13165
10
1026.5486878333604
20
404.7541104314899
42
0.13165
10
1023.9641477904771
20
404.8915243227471
42
0.13165
10
1021.6571635106134
20
403.718258221967
42
0.13165
10
1020.24588956851
20
401.5486878333605
42
0.13165
10
1020.108475677253
20
398.9641477904771
42
0.13165
10
1021.281741778033
20
396.6571635106134
42
0.13165
10
1023.4513121666396
20
395.24588956851005
42
0.13165
10
1026.035852209523
20
395.1084756772529
42
0.13165
10
1028.3428364893866
20
396.281741778033
42
0.13165
10
1029.7541104314898
20
398.4513121666395
42
0.13165
0
SEQEND
0
LWPOLYLINE
8
Holes
90
12
70
1
10
1057.8446454055274
20
401.56892908110547
42
0.13165
10
1053.7557485401967
20
403.30065946483575
42
0.13165
10
1051.6022439136188
20
404.7363292158877
42
0.13165
10
1049.0194193243092
20
404.9029033784546
42
0.13165
10
1046.6993405351643
20
403.75574854019675
42
0.13165
10
1045.2636707841123
20
401.60224391361885
42
0.13165
10
1045.0970966215455
20
399.01941932430907
42
0.13165
10
1046.2442514598033
20
396.69934053516425
42
0.13165
10
1048.3977560863812
20
395.2636707841123
42
0.13165
10
1050.9805806756908
20
395.0970966215454
42
0.13165
10
1053.3006594648357
20
396.24425145980325
42
0.13165
10
1054.7363292158877
20
398.39775608638115
42
0.13165
0
SEQEND
0
LWPOLYLINE
8
Holes
90
12
70
1
10
1082.8601532282132
20
401.4892921906088
42
0.13165
10
1078.7890289237291
20
403.2624009280198
42
0.13165
10
1076.6501948396135
20
404.7198365428596
42
0.13165
10
1074.0691923808695
20
404.9125957676333
42
0.13165
10
1071.7375990719802
20
403.78902892372906
42
0.13165
10
1070.2801634571404
20
401.6501948396135
42
0.13165
10
1070.0874042323667
20
399.0691923808695
42
0.13165
10
1071.2109710762709
20
396.7375990719802
42
0.13165
10
1073.3498051603865
20
395.2801634571404
42
0.13165
10
1075.9308076191305
20
395.0874042323667
42
0.13165
10
1078.2624009280198
20
396.21097107627094
42
0.13165
10
1079.7198365428596
20
398.3498051603865
42
0.13165
0
SEQEND
0
LWPOLYLINE
8
Holes
90
12
70
1
10
1107.8734665917896
20
401.4172239865221
42
0.13165
10
1103.818756306923
20
403.22755329442225
42
0.13165
10
1101.6933633254462
20
404.7045212984993
42
0.13165
10
1099.1142350084237
20
404.9209166198685
42
0.13165
10
1096.7724467055777
20
403.818756306923
42
0.13165
10
1095.2954787015008
20
401.6933633254462
42
0.13165
10
1095.0790833801316
20
399.1142350084237
42
0.13165
10
1096.181243693077
20
396.77244670557775
42
0.13165
10
1098.3066366745538
20
395.29547870150066
42
0.13165
10
1100.8857649915763
20
395.0790833801315
42
0.13165
10
1103.2275532944223
20
396.181243693077
42
0.13165
10
1104.7045212984992
20
398.3066366745538
42
0.13165
0
SEQEND
0
LWPOLYLINE
8
Holes
90
12
70
1
10
1132.8849780385062
20
401.35171052088674
42
0.13165
10
1128.8454600182408
20
403.1956904180648
42
0.13165
10
1126.7324208560015
20
404.690279093795
42
0.13165
10
1124.1551809244459
20
404.92811127406634
42
0.13165
10
1121.8043095819353
20
403.84546001824083
42
0.13165
10
1120.309720906205
20
401.7324208560015
42
0.13165
10
1120.0718887259336
20
399.15518092444574
42
0.13165
10
1121.1545399817592
20
396.8043095819352
42
0.13165
10
1123.2675791439985
20
395.3097209062049
42
0.13165
10
1125.8448190755541
20
395.07188872593366
42
0.13165
10
1128.1956904180647
20
396.15453998175917
42
0.13165
10
1129.690279093795
20
398.2675791439985
42
0.13165
0
SEQEND
0
LWPOLYLINE
8
Holes
90
12
70
1
10
67.47747787767156
20
502.7224365776046
42
0.13165
10
70.07755403295678
20
499.1227738595208
42
0.13165
10
71.17564981402391
20
496.77907689395965
42
0.13165
10
73.29847713899714
20
495.29842367354473
42
0.13165
10
75.87722614047918
20
495.0775540329568
42
0.13165
10
78.22092310604035
20
496.1756498140239
42
0.13165
10
79.70157632645527
20
498.29847713899716
42
0.13165
10
79.92244596704322
20
500.8772261404792
42
0.13165
10
78.82435018597609
20
503.22092310604035
42
0.13165
10
76.70152286100286
20
504.70157632645527
42
0.13165
10
74.12277385952082
20
504.9224459670432
42
0.13165
10
71.77907689395964
20
503.8243501859761
42
0.13165
0
SEQEND
0
LWPOLYLINE
8
Holes
90
12
70
1
10
92.52173135529321
20
502.8417420849886
42
0.13165
10
95.06422395929063
20
499.2011790714063
42
0.13165
10
96.12490302565196
20
496.8403127624085
42
0.13165
10
98.22391119688214
20
495.32608209705825
42
0.13165
10
100.79882092859371
20
495.06422395929064
42
0.13165
10
103.15968723759151
20
496.124903025652
42
0.13165
10
104.67391790294174
20
498.2239111968821
42
0.13165
10
104.93577604070937
20
500.7988209285937
42
0.13165
10
103.87509697434804
20
503.1596872375915
42
0.13165
10
101.77608880311786
20
504.67391790294175
42
0.13165
10
99.20117907140629
20
504.93577604070936
42
0.13165
10
96.84031276240849
20
503.875096974348
42
0.13165
0
SEQEND
0
LWPOLYLINE
8
Holes
90
12
70
1
10
117.57218647291792
20
502.9711254108328
42
0.13165
10
120.051101303473
20
499.2869770750435
42
0.13165
10
121.07063947053015
20
496.90805468524354
42
0.13165
10
123.14304661822948
20
495.3576165455737
42
0.13165
10
125.71302292495645
20
495.051101303473
42
0.13165
10
128.0919453147565
20
496.0706394705302
42
0.13165
10
129.6423834544263
20
498.1430466182295
42
0.13165
10
129.94889869652698
20
500.7130229249565
42
0.13165
10
128.92936052946985
20
503.09194531475646
42
0.13165
10
126.85695338177052
20
504.6423834544263
42
0.13165
10
124.28697707504354
20
504.948898696527
42
0.13165
10
121.90805468524353
20
503.9293605294698
42
0.13165
0
SEQEND
0
LWPOLYLINE
8
Holes
90
12
70
1
10
142.6300035087089
20
503.1117762963229
42
0.13165
10
145.03844229036144
20
499.38117442366524
42
0.13165
10
146.01257776927787
20
496.9833024755632
42
0.13165
10
148.0551398147982
20
495.39375219294305
42
0.13165
10
150.61882557633479
20
495.03844229036144
42
0.13165
10
153.01669752443675
20
496.01257776927787
42
0.13165
10
154.60624780705692
20
498.05513981479817
42
0.13165
10
154.96155770963856
20
500.61882557633476
42
0.13165
10
153.98742223072213
20
503.0166975244368
42
0.13165
10
151.9448601852018
20
504.60624780705695
42
0.13165
10
149.38117442366521
20
504.96155770963856
42
0.13165
10
146.98330247556325
20
503.98742223072213
42
0.13165
0
SEQEND
0
LWPOLYLINE
8
Holes
90
12
70
1
10
167.69661136710306
20
503.265044330001
42
0.13165
10
170.02659859075015
20
499.4849481361342
42
0.13165
10
170.9504339683052
20
497.0672512970008
42
0.13165
10
172.95934729374937
20
495.4353821044394
42
0.13165
10
175.5150518638658
20
495.02659859075015
42
0.13165
10
177.93274870299922
20
495.9504339683052
42
0.13165
10
179.5646178955606
20
497.9593472937494
42
0.13165
10
179.97340140924985
20
500.5150518638658
42
0.13165
10
179.04956603169478
20
502.9327487029992
42
0.13165
10
177.04065270625063
20
504.5646178955606
42
0.13165
10
174.4849481361342
20
504.97340140924985
42
0.13165
10
172.06725129700078
20
504.0495660316948
42
0.13165
0
SEQEND
0
LWPOLYLINE
8
Holes
90
12
70
1
10
192.7737799651657
20
503.4324545165463
42
0.13165
10
195.01605163639016
20
499.5996767445291
42
0.13165
10
195.88393573369945
20
497.1613357092316
42
0.13165
10
197.85471592715857
20
495.48361247822857
42
0.13165
10
200.40032325547088
20
495.01605163639016
42
0.13165
10
202.8386642907684
20
495.88393573369945
42
0.13165
10
204.51638752177143
20
497.85471592715857
42
0.13165
10
204.98394836360984
20
500.4003232554709
42
0.13165
10
204.11606426630055
20
502.8386642907684
42
0.13165
10
202.14528407284143
20
504.51638752177143
42
0.13165
10
199.59967674452912
20
504.98394836360984
42
0.13165
10
197.1613357092316
20
504.11606426630055
42
0.13165
0
SEQEND
0
LWPOLYLINE
8
Holes
90
12
70
1
10
217.86371379175785
20
503.6157183455094
42
0.13165
10
220.00745980139445
20
499.7269755225122
42
0.13165
10
220.8128455973365
20
497.2672837673378
42
0.13165
10
222.74017603405665
20
495.5398211198487
42
0.13165
10
225.27302447748784
20
495.0074598013944
42
0.13165
10
227.73271623266223
20
495.8128455973365
42
0.13165
10
229.46017888015135
20
497.7401760340567
42
0.13165
10
229.99254019860555
20
500.2730244774878
42
0.13165
10
229.1871544026635
20
502.7327162326622
42
0.13165
10
227.25982396594335
20
504.4601788801513
42
0.13165
10
224.72697552251216
20
504.9925401986056
42
0.13165
10
222.26728376733777
20
504.1871544026635
42
0.13165
0
SEQEND
0
LWPOLYLINE
8
Holes
90
12
70
1
10
242.96917254667446
20
503.81673490323385
42
0.13165
10
245.0017233526113
20
499.8687347869053
42
0.13165
10
245.73699805476622
20
497.3871826671325
42
0.13165
10
247.61454068547883
20
495.6057328416715
42
0.13165
10
250.13126521309468
20
495.0017233526113
42
0.13165
10
252.61281733286754
20
495.7369980547662
42
0.13165
10
254.39426715832846
20
497.6145406854788
42
0.13165
10
254.9982766473887
20
500.1312652130947
42
0.13165
10
254.26300194523378
20
502.6128173328675
42
0.13165
10
252.38545931452117
20
504.3942671583285
42
0.13165
10
249.86873478690532
20
504.9982766473887
42
0.13165
10
247.38718266713246
20
504.2630019452338
42
0.13165
0
SEQEND
0
LWPOLYLINE
8
Holes
90
12
70
1
10
268.09362564704736
20
504.0375726986492
42
0.13165
10
270.00007375810816
20
500.02715834386277
42
0.13165
10
270.6563576855418
20
497.52355669476395
42
0.13165
10
272.4765170633442
20
495.6835160294046
42
0.13165
10
274.97284165613723
20
495.00007375810816
42
0.13165
10
277.47644330523605
20
495.6563576855418
42
0.13165
10
279.3164839705954
20
497.4765170633442
42
0.13165
10
279.99992624189184
20
499.97284165613723
42
0.13165
10
279.3436423144582
20
502.47644330523605
42
0.13165
10
277.5234829366558
20
504.3164839705954
42
0.13165
10
275.02715834386277
20
504.99992624189184
42
0.13165
10
272.52355669476395
20
504.3436423144582
42
0.13165
0
SEQEND
0
LWPOLYLINE
8
Holes
90
12
70
1
10
293.2414473955662
20
504.2804166494748
42
0.13165
10
295.0041958918809
20
500.2047957843813
42
0.13165
10
295.57110883784753
20
497.67945629780263
42
0.13165
10
297.32473959407827
20
495.77590462222884
42
0.13165
10
299.7952042156187
20
495.0041958918809
42
0.13165
10
302.32054370219737
20
495.57110883784753
42
0.13165
10
304.22409537777116
20
497.32473959407827
42
0.13165
10
304.9958041081191
20
499.7952042156187
42
0.13165
10
304.42889116215247
20
502.32054370219737
42
0.13165
10
302.67526040592173
20
504.22409537777116
42
0.13165
10
300.2047957843813
20
504.9958041081191
42
0.13165
10
297.67945629780263
20
504.42889116215247
42
0.13165
0
SEQEND
0
LWPOLYLINE
8
Holes
90
12
70
1
10
318.4181572952538
20
504.5474549596428
42
0.13165
10
320.01639345884695
20
500.404556353277
42
0.13165
10
320.4817919562567
20
497.8585528086237
42
0.13165
10
322.15784065022325
20
495.8863483095337
42
0.13165
10
324.595443646723
20
495.01639345884695
42
0.13165
10
327.1414471913763
20
495.4817919562567
42
0.13165
10
329.1136516904663
20
497.15784065022325
42
0.13165
10
329.98360654115305
20
499.595443646723
42
0.13165
10
329.5182080437433
20
502.1414471913763
42
0.13165
10
327.84215934977675
20
504.1136516904663
42
0.13165
10
325.404556353277
20
504.98360654115305
42
0.13165
10
322.8585528086237
20
504.5182080437433
42
0.13165
0
SEQEND
0
LWPOLYLINE
8
Holes
90
12
70
1
10
343.63070244701515
20
504.84066614026847
42
0.13165
10
345.0398084029493
20
500.62968192013705
42
0.13165
10
345.38950710924746
20
498.06522474061705
42
0.13165
10
346.97458366233224
20
496.0191890293845
42
0.13165
10
349.37031807986295
20
495.0398084029493
42
0.13165
10
351.93477525938295
20
495.38950710924746
42
0.13165
10
353.9808109706155
20
496.97458366233224
42
0.13165
10
354.9601915970507
20
499.37031807986295
42
0.13165
10
354.61049289075254
20
501.93477525938295
42
0.13165
10
353.02541633766776
20
503.9808109706155
42
0.13165
10
350.62968192013705
20
504.9601915970507
42
0.13165
10
348.06522474061705
20
504.61049289075254
42
0.13165
0
SEQEND
0
LWPOLYLINE
8
Holes
90
12
70
1
10
368.88776067322476
20
505.1614465426102
42
0.13165
10
370.0787013735608
20
500.8836401017426
42
0.13165
10
370.29621031902286
20
498.30460546269217
42
0.13165
10
371.77409591086865
20
496.1798504207655
42
0.13165
10
374.1163598982574
20
495.0787013735608
42
0.13165
10
376.69539453730783
20
495.29621031902286
42
0.13165
10
378.8201495792345
20
496.77409591086865
42
0.13165
10
379.9212986264392
20
499.1163598982574
42
0.13165
10
379.70378968097714
20
501.69539453730783
42
0.13165
10
378.22590408913135
20
503.8201495792345
42
0.13165
10
375.8836401017426
20
504.9212986264392
42
0.13165
10
373.30460546269217
20
504.70378968097714
42
0.13165
0
SEQEND
0
LWPOLYLINE
8
Holes
90
12
70
1
10
394.2000045312447
20
505.50999569531757
42
0.13165
10
395.1387867091028
20
501.1698740703189
42
0.13165
10
395.20512876170903
20
498.58253401867626
42
0.13165
10
396.55625269042656
20
496.3750028320279
42
0.13165
10
398.8301259296811
20
495.1387867091028
42
0.13165
10
401.41746598132374
20
495.20512876170903
42
0.13165
10
403.6249971679721
20
496.5562526904265
42
0.13165
10
404.8612132908972
20
498.8301259296811
42
0.13165
10
404.79487123829097
20
501.41746598132374
42
0.13165
10
403.44374730957344
20
503.6249971679721
42
0.13165
10
401.1698740703189
20
504.8612132908972
42
0.13165
10
398.58253401867626
20
504.79487123829097
42
0.13165
0
SEQEND
0
LWPOLYLINE
8
Holes
90
12
70
1
10
419.5801939619857
20
505.88436084127267
42
0.13165
10
420.2275811667869
20
501.49131434660586
42
0.13165
10
420.1213068796352
20
498.90530669258226
42
0.13165
10
421.32227447420456
20
496.61262122624106
42
0.13165
10
423.50868565339414
20
495.2275811667869
42
0.13165
10
426.0946933074177
20
495.1213068796352
42
0.13165
10
428.38737877375894
20
496.32227447420456
42
0.13165
10
429.7724188332131
20
498.50868565339414
42
0.13165
10
429.8786931203648
20
501.09469330741774
42
0.13165
10
428.67772552579544
20
503.38737877375894
42
0.13165
10
426.49131434660586
20
504.7724188332131
42
0.13165
10
423.90530669258226
20
504.8786931203648
42
0.13165
0
SEQEND
0
LWPOLYLINE
8
Holes
90
12
70
1
10
445.04284569136786
20
506.2790621242674
42
0.13165
10
445.3546546100696
20
501.8495313482751
42
0.13165
10
445.0522472088298
20
499.2790684377367
42
0.13165
10
446.07558617233286
20
496.9017785571049
42
0.13165
10
448.1504686517249
20
495.3546546100696
42
0.13165
10
450.7209315622633
20
495.0522472088298
42
0.13165
10
453.0982214428951
20
496.07558617233286
42
0.13165
10
454.6453453899304
20
498.1504686517249
42
0.13165
10
454.9477527911702
20
500.7209315622633
42
0.13165
10
453.92441382766714
20
503.0982214428951
42
0.13165
10
451.8495313482751
20
504.6453453899304
42
0.13165
10
449.2790684377367
20
504.9477527911702
42
0.13165
0
SEQEND
0
LWPOLYLINE
8
Holes
90
12
70
1
10
470.60306798818976
20
506.68333665795154
42
0.13165
10
470.53154803130224
20
502.24342082620296
42
0.13165
10
470.0084966664157
20
499.70863344252194
42
0.13165
10
470.8229145887803
20
497.25191749261865
42
0.13165
10
472.75657917379704
20
495.53154803130224
42
0.13165
10
475.29136655747806
20
495.0084966664157
42
0.13165
10
477.74808250738135
20
495.8229145887803
42
0.13165
10
479.46845196869776
20
497.75657917379704
42
0.13165
10
479.9915033335843
20
500.29136655747806
42
0.13165
10
479.1770854112197
20
502.74808250738135
42
0.13165
10
477.24342082620296
20
504.46845196869776
42
0.13165
10
474.70863344252194
20
504.9915033335843
42
0.13165
0
SEQEND
0
LWPOLYLINE
8
Holes
90
12
70
1
10
496.274028537339
20
507.07934577905587
42
0.13165
10
495.7709632312699
20
502.66744222219126
42
0.13165
10
495.00382561364563
20
500.19555434317977
42
0.13165
10
495.57540888809007
20
497.6712678358369
42
0.13165
10
497.33255777780874
20
495.7709632312699
42
0.13165
10
499.80444565682023
20
495.00382561364563
42
0.13165
10
502.3287321641631
20
495.57540888809007
42
0.13165
10
504.2290367687301
20
497.33255777780874
42
0.13165
10
504.99617438635437
20
499.80444565682023
42
0.13165
10
504.42459111190993
20
502.3287321641631
42
0.13165
10
502.66744222219126
20
504.2290367687301
42
0.13165
10
500.19555434317977
20
504.99617438635437
42
0.13165
0
SEQEND
0
LWPOLYLINE
8
Holes
90
12
70
1
10
522.0626677221117
20
507.4412417706506
42
0.13165
10
521.084734214167
20
503.1097739188382
42
0.13165
10
520.0543934074816
20
500.7355103208237
42
0.13165
10
520.3492238933434
20
498.1641673263198
42
0.13165
10
521.8902260811618
20
496.0847342141671
42
0.13165
10
524.2644896791763
20
495.05439340748154
42
0.13165
10
526.8358326736802
20
495.3492238933434
42
0.13165
10
528.915265785833
20
496.8902260811618
42
0.13165
10
529.9456065925184
20
499.2644896791763
42
0.13165
10
529.6507761066566
20
501.8358326736802
42
0.13165
10
528.1097739188382
20
503.9152657858329
42
0.13165
10
525.7355103208237
20
504.94560659251846
42
0.13165
0
SEQEND
0
LWPOLYLINE
8
Holes
90
12
70
1
10
547.9640536057628
20
507.7365962981012
42
0.13165
10
546.4803253454979
20
503.55132233491355
42
0.13165
10
545.1762111686883
20
501.31569803181117
42
0.13165
10
545.1646273136868
20
498.72753350360176
42
0.13165
10
546.4486776650864
20
496.48032534549793
42
0.13165
10
548.6843019681888
20
495.1762111686882
42
0.13165
10
551.2724664963982
20
495.16462731368676
42
0.13165
10
553.5196746545021
20
496.44867766508645
42
0.13165
10
554.8237888313117
20
498.68430196818883
42
0.13165
10
554.8353726863132
20
501.27246649639824
42
0.13165
10
553.5513223349136
20
503.51967465450207
42
0.13165
10
551.3156980318112
20
504.8237888313118
42
0.13165
0
SEQEND
0
LWPOLYLINE
8
Holes
90
12
70
1
10
573.9563638994289
20
507.93163436434037
42
0.13165
10
571.956479651518
20
503.9669867517268
42
0.13165
10
570.3807406854163
20
501.91375112923066
42
0.13165
10
570.0427285222872
20
499.3477274371431
42
0.13165
10
571.0330132482733
20
496.95647965151795
42
0.13165
10
573.0862488707693
20
495.3807406854163
42
0.13165
10
575.652272562857
20
495.0427285222873
42
0.13165
10
578.043520348482
20
496.0330132482732
42
0.13165
10
579.6192593145837
20
498.08624887076934
42
0.13165
10
579.9572714777128
20
500.6522725628569
42
0.13165
10
578.9669867517267
20
503.04352034848205
42
0.13165
10
576.9137511292307
20
504.6192593145837
42
0.13165
0
SEQEND
0
LWPOLYLINE
8
Holes
90
12
70
1
10
600.0
20
508.0
42
0.13165
10
597.5
20
504.3301270189222
42
0.13165
10
595.6698729810778
20
502.5
42
0.13165
10
595.0
20
500.0
42
0.13165
10
595.6698729810778
20
497.5
42
0.13165
10
597.5
20
495.6698729810778
42
0.13165
10
600.0
20
495.0
42
0.13165
10
602.5
20
495.6698729810778
42
0.13165
10
604.3301270189222
20
497.5
42
0.13165
10
605.0
20
500.0
42
0.13165
10
604.3301270189222
20
502.5
42
0.13165
10
602.5
20
504.3301270189222
42
0.13165
0
SEQEND
0
LWPOLYLINE
8
Holes
90
12
70
1
10
626.0436361005711
20
507.93163436434037
42
0.13165
10
623.0862488707693
20
504.6192593145837
42
0.13165
10
621.0330132482733
20
503.04352034848205
42
0.13165
10
620.0427285222872
20
500.6522725628569
42
0.13165
10
620.3807406854163
20
498.08624887076934
42
0.13165
10
621.956479651518
20
496.0330132482732
42
0.13165
10
624.347727437143
20
495.0427285222873
42
0.13165
10
626.9137511292307
20
495.3807406854163
42
0.13165
10
628.9669867517267
20
496.95647965151795
42
0.13165
10
629.9572714777128
20
499.3477274371431
42
0.13165
10
629.6192593145837
20
501.91375112923066
42
0.13165
10
628.043520348482
20
503.9669867517268
42
0.13165
0
SEQEND
0
LWPOLYLINE
8
Holes
90
12
70
1
10
652.0359463942372
20
507.7365962981012
42
0.13165
10
648.6843019681888
20
504.8237888313118
42
0.13165
10
646.4486776650864
20
503.51967465450207
42
0.13165
10
645.1646273136868
20
501.27246649639824
42
0.13165
10
645.1762111686883
20
498.68430196818883
42
0.13165
10
646.4803253454979
20
496.44867766508645
42
0.13165
10
648.7275335036018
20
495.16462731368676
42
0.13165
10
651.3156980318112
20
495.1762111686882
42
0.13165
10
653.5513223349136
20
496.48032534549793
42
0.13165
10
654.8353726863132
20
498.72753350360176
42
0.13165
10
654.8237888313117
20
501.31569803181117
42
0.13165
10
653.5196746545021
20
503.55132233491355
42
0.13165
0
SEQEND
0
LWPOLYLINE
8
Holes
90
12
70
1
10
677.9373322778883
20
507.4412417706506
42
0.13165
10
674.2644896791763
20
504.94560659251846
42
0.13165
10
671.8902260811618
20
503.9152657858329
42
0.13165
10
670.3492238933434
20
501.8358326736802
42
0.13165
10
670.0543934074816
20
499.2644896791763
42
0.13165
10
671.084734214167
20
496.8902260811618
42
0.13165
10
673.1641673263198
20
495.3492238933434
42
0.13165
10
675.7355103208237
20
495.05439340748154
42
0.13165
10
678.1097739188382
20
496.0847342141671
42
0.13165
10
679.6507761066566
20
498.1641673263198
42
0.13165
10
679.9456065925184
20
500.7355103208237
42
0.13165
10
678.915265785833
20
503.1097739188382
42
0.13165
0
SEQEND
0
LWPOLYLINE
8
Holes
90
12
70
1
10
703.7259714626609
20
507.07934577905587
42
0.13165
10
699.8044456568202
20
504.99617438635437
42
0.13165
10
697.3325577778087
20
504.2290367687301
42
0.13165
10
695.5754088880901
20
502.3287321641631
42
0.13165
10
695.0038256136456
20
499.80444565682023
42
0.13165
10
695.7709632312699
20
497.33255777780874
42
0.13165
10
697.6712678358369
20
495.57540888809007
42
0.13165
10
700.1955543431798
20
495.00382561364563
42
0.13165
10
702.6674422221913
20
495.7709632312699
42
0.13165
10
704.4245911119099
20
497.6712678358369
42
0.13165
10
704.9961743863544
20
500.19555434317977
42
0.13165
10
704.2290367687301
20
502.66744222219126
42
0.13165
0
SEQEND
0
LWPOLYLINE
8
Holes
90
12
70
1
10
729.3969320118102
20
506.68333665795154
42
0.13165
10
725.2913665574781
20
504.9915033335843
42
0.13165
10
722.756579173797
20
504.46845196869776
42
0.13165
10
720.8229145887803
20
502.74808250738135
42
0.13165
10
720.0084966664157
20
500.29136655747806
42
0.13165
10
720.5315480313022
20
497.75657917379704
42
0.13165
10
722.2519174926186
20
495.8229145887803
42
0.13165
10
724.7086334425219
20
495.0084966664157
42
0.13165
10
727.243420826203
20
495.53154803130224
42
0.13165
10
729.1770854112197
20
497.25191749261865
42
0.13165
10
729.9915033335843
20
499.70863344252194
42
0.13165
10
729.4684519686978
20
502.24342082620296
42
0.13165
0
SEQEND
0
LWPOLYLINE
8
Holes
90
12
70
1
10
754.9571543086322
20
506.2790621242674
42
0.13165
10
750.7209315622632
20
504.9477527911702
42
0.13165
10
748.1504686517249
20
504.6453453899304
42
0.13165
10
746.0755861723329
20
503.0982214428951
42
0.13165
10
745.0522472088298
20
500.7209315622633
42
0.13165
10
745.3546546100696
20
498.1504686517249
42
0.13165
10
746.9017785571049
20
496.07558617233286
42
0.13165
10
749.2790684377368
20
495.0522472088298
42
0.13165
10
751.8495313482751
20
495.3546546100696
42
0.13165
10
753.9244138276671
20
496.9017785571049
42
0.13165
10
754.9477527911702
20
499.2790684377367
42
0.13165
10
754.6453453899304
20
501.8495313482751
42
0.13165
0
SEQEND
0
LWPOLYLINE
8
Holes
90
12
70
1
10
780.4198060380144
20
505.88436084127267
42
0.13165
10
776.0946933074177
20
504.8786931203648
42
0.13165
10
773.5086856533942
20
504.7724188332131
42
0.13165
10
771.3222744742046
20
503.38737877375894
42
0.13165
10
770.1213068796352
20
501.09469330741774
42
0.13165
10
770.2275811667869
20
498.50868565339414
42
0.13165
10
771.612621226241
20
496.32227447420456
42
0.13165
10
773.9053066925823
20
495.1213068796352
42
0.13165
10
776.4913143466058
20
495.2275811667869
42
0.13165
10
778.6777255257954
20
496.61262122624106
42
0.13165
10
779.8786931203648
20
498.90530669258226
42
0.13165
10
779.7724188332131
20
501.49131434660586
42
0.13165
0
SEQEND
0
LWPOLYLINE
8
Holes
90
12
70
1
10
805.7999954687554
20
505.50999569531757
42
0.13165
10
801.4174659813237
20
504.79487123829097
42
0.13165
10
798.8301259296811
20
504.8612132908972
42
0.13165
10
796.5562526904265
20
503.6249971679721
42
0.13165
10
795.205128761709
20
501.41746598132374
42
0.13165
10
795.1387867091028
20
498.8301259296811
42
0.13165
10
796.3750028320279
20
496.55625269042656
42
0.13165
10
798.5825340186763
20
495.20512876170903
42
0.13165
10
801.1698740703189
20
495.1387867091028
42
0.13165
10
803.4437473095735
20
496.3750028320279
42
0.13165
10
804.794871238291
20
498.58253401867626
42
0.13165
10
804.8612132908972
20
501.1698740703189
42
0.13165
0
SEQEND
0
LWPOLYLINE
8
Holes
90
12
70
1
10
831.1122393267752
20
505.1614465426102
42
0.13165
10
826.6953945373078
20
504.70378968097714
42
0.13165
10
824.1163598982574
20
504.9212986264392
42
0.13165
10
821.7740959108686
20
503.8201495792345
42
0.13165
10
820.2962103190229
20
501.69539453730783
42
0.13165
10
820.0787013735608
20
499.1163598982574
42
0.13165
10
821.1798504207655
20
496.77409591086865
42
0.13165
10
823.3046054626922
20
495.29621031902286
42
0.13165
10
825.8836401017426
20
495.0787013735608
42
0.13165
10
828.2259040891314
20
496.1798504207655
42
0.13165
10
829.7037896809771
20
498.30460546269217
42
0.13165
10
829.9212986264392
20
500.8836401017426
42
0.13165
0
SEQEND
0
LWPOLYLINE
8
Holes
90
12
70
1
10
856.3692975529848
20
504.84066614026847
42
0.13165
10
851.934775259383
20
504.61049289075254
42
0.13165
10
849.370318079863
20
504.9601915970507
42
0.13165
10
846.9745836623322
20
503.9808109706155
42
0.13165
10
845.3895071092475
20
501.93477525938295
42
0.13165
10
845.0398084029492
20
499.37031807986295
42
0.13165
10
846.0191890293845
20
496.97458366233224
42
0.13165
10
848.065224740617
20
495.38950710924746
42
0.13165
10
850.629681920137
20
495.0398084029493
42
0.13165
10
853.0254163376678
20
496.0191890293845
42
0.13165
10
854.6104928907525
20
498.06522474061705
42
0.13165
10
854.9601915970508
20
500.62968192013705
42
0.13165
0
SEQEND
0
LWPOLYLINE
8
Holes
90
12
70
1
10
881.5818427047461
20
504.5474549596428
42
0.13165
10
877.1414471913763
20
504.5182080437433
42
0.13165
10
874.5954436467231
20
504.98360654115305
42
0.13165
10
872.1578406502233
20
504.1136516904663
42
0.13165
10
870.4817919562568
20
502.1414471913763
42
0.13165
10
870.016393458847
20
499.595443646723
42
0.13165
10
870.8863483095337
20
497.15784065022325
42
0.13165
10
872.8585528086237
20
495.4817919562567
42
0.13165
10
875.4045563532769
20
495.01639345884695
42
0.13165
10
877.8421593497767
20
495.8863483095337
42
0.13165
10
879.5182080437432
20
497.8585528086237
42
0.13165
10
879.983606541153
20
500.404556353277
42
0.13165
0
SEQEND
0
LWPOLYLINE
8
Holes
90
12
70
1
10
906.7585526044338
20
504.2804166494748
42
0.13165
10
902.3205437021974
20
504.42889116215247
42
0.13165
10
899.7952042156187
20
504.9958041081191
42
0.13165
10
897.3247395940783
20
504.22409537777116
42
0.13165
10
895.5711088378475
20
502.32054370219737
42
0.13165
10
895.004195891881
20
499.7952042156187
42
0.13165
10
895.7759046222288
20
497.32473959407827
42
0.13165
10
897.6794562978026
20
495.57110883784753
42
0.13165
10
900.2047957843813
20
495.0041958918809
42
0.13165
10
902.6752604059217
20
495.77590462222884
42
0.13165
10
904.4288911621525
20
497.67945629780263
42
0.13165
10
904.995804108119
20
500.2047957843813
42
0.13165
0
SEQEND
0
LWPOLYLINE
8
Holes
90
12
70
1
10
931.9063743529526
20
504.0375726986492
42
0.13165
10
927.4764433052361
20
504.3436423144582
42
0.13165
10
924.9728416561372
20
504.99992624189184
42
0.13165
10
922.4765170633442
20
504.3164839705954
42
0.13165
10
920.6563576855418
20
502.47644330523605
42
0.13165
10
920.0000737581082
20
499.97284165613723
42
0.13165
10
920.6835160294046
20
497.4765170633442
42
0.13165
10
922.5235566947639
20
495.6563576855418
42
0.13165
10
925.0271583438628
20
495.00007375810816
42
0.13165
10
927.5234829366558
20
495.6835160294046
42
0.13165
10
929.3436423144582
20
497.52355669476395
42
0.13165
10
929.9999262418918
20
500.02715834386277
42
0.13165
0
SEQEND
0
LWPOLYLINE
8
Holes
90
12
70
1
10
957.0308274533255
20
503.81673490323385
42
0.13165
10
952.6128173328675
20
504.2630019452338
42
0.13165
10
950.1312652130947
20
504.9982766473887
42
0.13165
10
947.6145406854788
20
504.3942671583285
42
0.13165
10
945.7369980547662
20
502.6128173328675
42
0.13165
10
945.0017233526113
20
500.1312652130947
42
0.13165
10
945.6057328416715
20
497.61454068547886
42
0.13165
10
947.3871826671325
20
495.7369980547662
42
0.13165
10
949.8687347869053
20
495.0017233526113
42
0.13165
10
952.3854593145212
20
495.6057328416715
42
0.13165
10
954.2630019452338
20
497.3871826671325
42
0.13165
10
954.9982766473887
20
499.8687347869053
42
0.13165
0
SEQEND
0
LWPOLYLINE
8
Holes
90
12
70
1
10
982.1362862082422
20
503.6157183455094
42
0.13165
10
977.7327162326623
20
504.1871544026635
42
0.13165
10
975.2730244774879
20
504.9925401986056
42
0.13165
10
972.7401760340566
20
504.4601788801513
42
0.13165
10
970.8128455973365
20
502.7327162326622
42
0.13165
10
970.0074598013945
20
500.2730244774878
42
0.13165
10
970.5398211198486
20
497.7401760340567
42
0.13165
10
972.2672837673377
20
495.8128455973365
42
0.13165
10
974.7269755225121
20
495.0074598013944
42
0.13165
10
977.2598239659434
20
495.5398211198487
42
0.13165
10
979.1871544026635
20
497.2672837673378
42
0.13165
10
979.9925401986055
20
499.7269755225122
42
0.13165
0
SEQEND
0
LWPOLYLINE
8
Holes
90
12
70
1
10
1007.2262200348343
20
503.43245451654633
42
0.13165
10
1002.8386642907684
20
504.11606426630055
42
0.13165
10
1000.4003232554709
20
504.98394836360984
42
0.13165
10
997.8547159271585
20
504.51638752177143
42
0.13165
10
995.8839357336994
20
502.8386642907684
42
0.13165
10
995.0160516363902
20
500.4003232554709
42
0.13165
10
995.4836124782286
20
497.85471592715857
42
0.13165
10
997.1613357092316
20
495.88393573369945
42
0.13165
10
999.5996767445291
20
495.01605163639016
42
0.13165
10
1002.1452840728415
20
495.48361247822857
42
0.13165
10
1004.1160642663006
20
497.1613357092316
42
0.13165
10
1004.9839483636098
20
499.5996767445291
42
0.13165
0
SEQEND
0
LWPOLYLINE
8
Holes
90
12
70
1
10
1032.303388632897
20
503.265044330001
42
0.13165
10
1027.9327487029993
20
504.0495660316948
42
0.13165
10
1025.515051863866
20
504.97340140924985
42
0.13165
10
1022.9593472937494
20
504.5646178955606
42
0.13165
10
1020.9504339683052
20
502.9327487029992
42
0.13165
10
1020.0265985907502
20
500.5150518638658
42
0.13165
10
1020.4353821044394
20
497.9593472937494
42
0.13165
10
1022.0672512970008
20
495.9504339683052
42
0.13165
10
1024.484948136134
20
495.02659859075015
42
0.13165
10
1027.0406527062505
20
495.4353821044394
42
0.13165
10
1029.049566031695
20
497.0672512970008
42
0.13165
10
1029.9734014092498
20
499.4849481361342
42
0.13165
0
SEQEND
0
LWPOLYLINE
8
Holes
90
12
70
1
10
1057.369996491291
20
503.1117762963229
42
0.13165
10
1053.0166975244367
20
503.98742223072213
42
0.13165
10
1050.6188255763348
20
504.96155770963856
42
0.13165
10
1048.0551398147982
20
504.60624780705695
42
0.13165
10
1046.0125777692779
20
503.0166975244368
42
0.13165
10
1045.0384422903614
20
500.6188255763348
42
0.13165
10
1045.393752192943
20
498.05513981479817
42
0.13165
10
1046.9833024755633
20
496.01257776927787
42
0.13165
10
1049.3811744236652
20
495.03844229036144
42
0.13165
10
1051.9448601852018
20
495.39375219294305
42
0.13165
10
1053.9874222307221
20
496.9833024755632
42
0.13165
10
1054.9615577096386
20
499.38117442366524
42
0.13165
0
SEQEND
0
LWPOLYLINE
8
Holes
90
12
70
1
10
1082.427813527082
20
502.9711254108328
42
0.13165
10
1078.0919453147565
20
503.9293605294698
42
0.13165
10
1075.7130229249565
20
504.948898696527
42
0.13165
10
1073.1430466182294
20
504.6423834544263
42
0.13165
10
1071.07063947053
20
503.09194531475646
42
0.13165
10
1070.051101303473
20
500.7130229249565
42
0.13165
10
1070.3576165455736
20
498.1430466182295
42
0.13165
10
1071.9080546852435
20
496.0706394705302
42
0.13165
10
1074.2869770750435
20
495.051101303473
42
0.13165
10
1076.8569533817706
20
495.3576165455737
42
0.13165
10
1078.92936052947
20
496.90805468524354
42
0.13165
10
1079.948898696527
20
499.2869770750435
42
0.13165
0
SEQEND
0
LWPOLYLINE
8
Holes
90
12
70
1
10
1107.4782686447068
20
502.8417420849886
42
0.13165
10
1103.1596872375915
20
503.875096974348
42
0.13165
10
1100.7988209285936
20
504.93577604070936
42
0.13165
10
1098.2239111968822
20
504.67391790294175
42
0.13165
10
1096.124903025652
20
503.1596872375915
42
0.13165
10
1095.0642239592905
20
500.7988209285937
42
0.13165
10
1095.3260820970584
20
498.2239111968821
42
0.13165
10
1096.8403127624085
20
496.124903025652
42
0.13165
10
1099.2011790714064
20
495.06422395929064
42
0.13165
10
1101.7760888031178
20
495.32608209705825
42
0.13165
10
1103.875096974348
20
496.8403127624085
42
0.13165
10
1104.9357760407095
20
499.2011790714063
42
0.13165
0
SEQEND
0
LWPOLYLINE
8
Holes
90
12
70
1
10
1132.5225221223284
20
502.7224365776046
42
0.13165
10
1128.2209231060403
20
503.8243501859761
42
0.13165
10
1125.8772261404793
20
504.9224459670432
42
0.13165
10
1123.2984771389972
20
504.70157632645527
42
0.13165
10
1121.175649814024
20
503.22092310604035
42
0.13165
10
1120.0775540329569
20
500.8772261404792
42
0.13165
10
1120.2984236735447
20
498.29847713899716
42
0.13165
10
1121.7790768939597
20
496.1756498140239
42
0.13165
10
1124.1227738595207
20
495.0775540329568
42
0.13165
10
1126.7015228610028
20
495.29842367354473
42
0.13165
10
1128.824350185976
20
496.77907689395965
42
0.13165
10
1129.9224459670431
20
499.1227738595208
42
0.13165
0
SEQEND
0
LWPOLYLINE
8
Holes
90
12
70
1
10
67.9973248561568
20
603.8681443651706
42
0.13165
10
70.00089578024792
20
599.9053585711385
42
0.13165
10
70.71796946395943
20
597.4184860084795
42
0.13165
10
72.58240977176841
20
595.623328035098
42
0.13165
10
75.09464142886144
20
595.0008957802479
42
0.13165
10
77.5815139915205
20
595.7179694639594
42
0.13165
10
79.376671964902
20
597.5824097717684
42
0.13165
10
79.99910421975208
20
600.0946414288615
42
0.13165
10
79.28203053604057
20
602.5815139915205
42
0.13165
10
77.41759022823159
20
604.376671964902
42
0.13165
10
74.90535857113856
20
604.9991042197521
42
0.13165
10
72.4184860084795
20
604.2820305360406
42
0.13165
0
SEQEND
0
LWPOLYLINE
8
Holes
90
12
70
1
10
93.07975048590558
20
604.0137447181747
42
0.13165
10
95.00000985073746
20
600.0099250832486
42
0.13165
10
95.66491897044239
20
597.5086002995967
42
0.13165
10
97.49140955114078
20
595.674844053691
42
0.13165
10
99.99007491675141
20
595.0000098507375
42
0.13165
10
102.49139970040332
20
595.6649189704424
42
0.13165
10
104.32515594630902
20
597.4914095511408
42
0.13165
10
104.99999014926254
20
599.9900749167514
42
0.13165
10
104.33508102955761
20
602.4913997004033
42
0.13165
10
102.50859044885922
20
604.325155946309
42
0.13165
10
100.00992508324859
20
604.9999901492625
42
0.13165
10
97.50860029959668
20
604.3350810295576
42
0.13165
0
SEQEND
0
LWPOLYLINE
8
Holes
90
12
70
1
10
118.17196928901868
20
604.1686924340728
42
0.13165
10
120.0015035808959
20
600.1226113706127
42
0.13165
10
120.60986943502394
20
597.6069363521914
42
0.13165
10
122.39456722870449
20
595.7324808056367
42
0.13165
10
124.87738862938727
20
595.0015035808959
42
0.13165
10
127.39306364780859
20
595.6098694350239
42
0.13165
10
129.26751919436333
20
597.3945672287045
42
0.13165
10
129.9984964191041
20
599.8773886293873
42
0.13165
10
129.39013056497606
20
602.3930636478086
42
0.13165
10
127.6054327712955
20
604.2675191943633
42
0.13165
10
125.12261137061273
20
604.9984964191041
42
0.13165
10
122.60693635219141
20
604.3901305649761
42
0.13165
0
SEQEND
0
LWPOLYLINE
8
Holes
90
12
70
1
10
143.27543171925095
20
604.333610669816
42
0.13165
10
145.00596731530015
20
600.2442079936234
42
0.13165
10
145.5529368309084
20
597.7144739839351
42
0.13165
10
147.29149333136496
20
595.7971448245319
42
0.13165
10
149.75579200637657
20
595.0059673153002
42
0.13165
10
152.2855260160648
20
595.5529368309084
42
0.13165
10
154.20285517546816
20
597.2914933313649
42
0.13165
10
154.99403268469985
20
599.7557920063766
42
0.13165
10
154.4470631690916
20
602.2855260160649
42
0.13165
10
152.70850666863504
20
604.2028551754681
42
0.13165
10
150.24420799362343
20
604.9940326846998
42
0.13165
10
147.7144739839352
20
604.4470631690916
42
0.13165
0
SEQEND
0
LWPOLYLINE
8
Holes
90
12
70
1
10
168.39182647668858
20
604.509106639436
42
0.13165
10
170.01412533529913
20
600.3755713352931
42
0.13165
10
170.49432021263726
20
597.8323169849466
42
0.13165
10
172.1818083503525
20
595.8698915479304
42
0.13165
10
174.6244286647069
20
595.0141253352991
42
0.13165
10
177.16768301505337
20
595.4943202126373
42
0.13165
10
179.13010845206963
20
597.1818083503525
42
0.13165
10
179.98587466470087
20
599.6244286647069
42
0.13165
10
179.50567978736274
20
602.1676830150534
42
0.13165
10
177.8181916496475
20
604.1301084520696
42
0.13165
10
175.3755713352931
20
604.9858746647009
42
0.13165
10
172.83231698494663
20
604.5056797873627
42
0.13165
0
SEQEND
0
LWPOLYLINE
8
Holes
90
12
70
1
10
193.5231164528449
20
604.6957405716875
42
0.13165
10
195.02686501560405
20
600.5176180319281
42
0.13165
10
195.4343297510999
20
597.9617028729087
42
0.13165
10
197.06516214269536
20
595.9519477830281
42
0.13165
10
199.48238196807185
20
595.026865015604
42
0.13165
10
202.03829712709128
20
595.4343297510999
42
0.13165
10
204.04805221697194
20
597.0651621426954
42
0.13165
10
204.97313498439595
20
599.4823819680719
42
0.13165
10
204.5656702489001
20
602.0382971270913
42
0.13165
10
202.93483785730464
20
604.0480522169719
42
0.13165
10
200.51761803192815
20
604.973134984396
42
0.13165
10
197.96170287290872
20
604.5656702489001
42
0.13165
0
SEQEND
0
LWPOLYLINE
8
Holes
90
12
70
1
10
218.67157612709957
20
604.8939811283764
42
0.13165
10
220.0452709974776
20
600.6713125289783
42
0.13165
10
220.37342255045888
20
598.1040092027127
42
0.13165
10
221.94126179476478
20
596.0447350794373
42
0.13165
10
224.32868747102168
20
595.0452709974776
42
0.13165
10
226.8959907972872
20
595.3734225504589
42
0.13165
10
228.95526492056277
20
596.9412617947647
42
0.13165
10
229.9547290025224
20
599.3286874710217
42
0.13165
10
229.62657744954112
20
601.8959907972873
42
0.13165
10
228.05873820523522
20
603.9552649205627
42
0.13165
10
225.67131252897832
20
604.9547290025224
42
0.13165
10
223.1040092027128
20
604.6265774495411
42
0.13165
0
SEQEND
0
LWPOLYLINE
8
Holes
90
12
70
1
10
243.8398275127555
20
605.1041429180026
42
0.13165
10
245.07066417209438
20
600.8376444924465
42
0.13165
10
245.31224770302566
20
598.260753495846
42
0.13165
10
246.8099106762484
20
596.1498921954721
42
0.13165
10
249.16235550755349
20
595.0706641720943
42
0.13165
10
251.739246504154
20
595.3122477030257
42
0.13165
10
253.85010780452782
20
596.8099106762484
42
0.13165
10
254.92933582790562
20
599.1623555075535
42
0.13165
10
254.68775229697434
20
601.739246504154
42
0.13165
10
253.1900893237516
20
603.8501078045279
42
0.13165
10
250.83764449244651
20
604.9293358279057
42
0.13165
10
248.260753495846
20
604.6877522969743
42
0.13165
0
SEQEND
0
LWPOLYLINE
8
Holes
90
12
70
1
10
269.0308695897317
20
605.3263009814701
42
0.13165
10
270.10464433466893
20
601.0175917206382
42
0.13165
10
270.25170177294416
20
598.4335824480878
42
0.13165
10
271.6710618865811
20
596.2692934935823
42
0.13165
10
273.9824082793619
20
595.1046443346689
42
0.13165
10
276.5664175519122
20
595.2517017729442
42
0.13165
10
278.7307065064177
20
596.6710618865811
42
0.13165
10
279.89535566533107
20
598.9824082793618
42
0.13165
10
279.74829822705584
20
601.5664175519122
42
0.13165
10
278.3289381134189
20
603.7307065064177
42
0.13165
10
276.0175917206381
20
604.8953556653311
42
0.13165
10
273.4335824480878
20
604.7482982270558
42
0.13165
0
SEQEND
0
LWPOLYLINE
8
Holes
90
12
70
1
10
294.2480929916071
20
605.5601767747798
42
0.13165
10
295.1491337644601
20
601.2120630201845
42
0.13165
10
295.19299509957
20
598.6242442486974
42
0.13165
10
296.52488951576265
20
596.4050581197545
42
0.13165
10
298.7879369798156
20
595.1491337644601
42
0.13165
10
301.37575575130256
20
595.19299509957
42
0.13165
10
303.5949418802456
20
596.5248895157627
42
0.13165
10
304.8508662355399
20
598.7879369798155
42
0.13165
10
304.80700490043
20
601.3757557513026
42
0.13165
10
303.47511048423735
20
603.5949418802455
42
0.13165
10
301.2120630201844
20
604.8508662355399
42
0.13165
10
298.62424424869744
20
604.80700490043
42
0.13165
0
SEQEND
0
LWPOLYLINE
8
Holes
90
12
70
1
10
319.4952673359257
20
605.8049908093875
42
0.13165
10
320.20641641698495
20
601.4218144860172
42
0.13165
10
320.1377275989363
20
598.8345356728521
42
0.13165
10
321.37188074413285
20
596.5595420849536
42
0.13165
10
323.57818551398276
20
595.2064164169849
42
0.13165
10
326.1654643271479
20
595.1377275989363
42
0.13165
10
328.44045791504647
20
596.3718807441328
42
0.13165
10
329.79358358301505
20
598.5781855139828
42
0.13165
10
329.8622724010637
20
601.1654643271479
42
0.13165
10
328.62811925586715
20
603.4404579150464
42
0.13165
10
326.42181448601724
20
604.7935835830151
42
0.13165
10
323.8345356728521
20
604.8622724010637
42
0.13165
0
SEQEND
0
LWPOLYLINE
8
Holes
90
12
70
1
10
344.7764830234443
20
606.0592796928046
42
0.13165
10
345.2791635967507
20
601.6473322839538
42
0.13165
10
345.08796960569885
20
599.0662134047536
42
0.13165
10
346.2129501919971
20
596.7353018896526
42
0.13165
10
348.3526677160462
20
595.2791635967508
42
0.13165
10
350.9337865952464
20
595.0879696056988
42
0.13165
10
353.2646981103473
20
596.2129501919972
42
0.13165
10
354.7208364032493
20
598.3526677160462
42
0.13165
10
354.91203039430115
20
600.9337865952464
42
0.13165
10
353.7870498080029
20
603.2646981103474
42
0.13165
10
351.6473322839538
20
604.7208364032492
42
0.13165
10
349.0662134047536
20
604.9120303943012
42
0.13165
0
SEQEND
0
LWPOLYLINE
8
Holes
90
12
70
1
10
370.0960231769873
20
606.3206812385497
42
0.13165
10
370.37043179526626
20
601.8886763189383
42
0.13165
10
370.0463381666787
20
599.3208575693599
42
0.13165
10
371.04957422590644
20
596.9350144856171
42
0.13165
10
373.1113236810616
20
595.3704317952663
42
0.13165
10
375.6791424306402
20
595.0463381666787
42
0.13165
10
378.06498551438295
20
596.0495742259064
42
0.13165
10
379.62956820473374
20
598.1113236810617
42
0.13165
10
379.9536618333213
20
600.6791424306401
42
0.13165
10
378.95042577409356
20
603.0649855143829
42
0.13165
10
376.88867631893834
20
604.6295682047337
42
0.13165
10
374.3208575693598
20
604.9536618333213
42
0.13165
0
SEQEND
0
LWPOLYLINE
8
Holes
90
12
70
1
10
395.45813635357075
20
606.5857022873224
42
0.13165
10
395.48361222375377
20
602.1452835371049
42
0.13165
10
395.01605168387675
20
599.5996761533303
42
0.13165
10
395.8839360704235
20
597.1613352209818
42
0.13165
10
397.85471646289506
20
595.4836122237538
42
0.13165
10
400.4003238466697
20
595.0160516838768
42
0.13165
10
402.8386647790183
20
595.8839360704235
42
0.13165
10
404.51638777624623
20
597.8547164628951
42
0.13165
10
404.98394831612325
20
600.4003238466697
42
0.13165
10
404.1160639295765
20
602.8386647790182
42
0.13165
10
402.14528353710494
20
604.5163877762462
42
0.13165
10
399.5996761533303
20
604.9839483161232
42
0.13165
0
SEQEND
0
LWPOLYLINE
8
Holes
90
12
70
1
10
420.86668025692467
20
606.8495012885248
42
0.13165
10
420.6223059101691
20
602.4157389047369
42
0.13165
10
420.000936255841
20
599.9032442154971
42
0.13165
10
420.71906169467195
20
597.4166751605779
42
0.13165
10
422.58426109526306
20
595.6223059101691
42
0.13165
10
425.0967557845029
20
595.000936255841
42
0.13165
10
427.58332483942206
20
595.719061694672
42
0.13165
10
429.3776940898309
20
597.5842610952631
42
0.13165
10
429.999063744159
20
600.0967557845029
42
0.13165
10
429.28093830532805
20
602.5833248394221
42
0.13165
10
427.41573890473694
20
604.3776940898309
42
0.13165
10
424.9032442154971
20
604.999063744159
42
0.13165
0
SEQEND
0
LWPOLYLINE
8
Holes
90
12
70
1
10
446.32461664900984
20
607.1057411452476
42
0.13165
10
445.79009629798276
20
602.6975379181285
42
0.13165
10
445.0053474875026
20
600.2311845137625
42
0.13165
10
445.55891178422024
20
597.7028854056312
42
0.13165
10
447.30246208187145
20
595.7900962979827
42
0.13165
10
449.76881548623754
20
595.0053474875026
42
0.13165
10
452.29711459436885
20
595.5589117842203
42
0.13165
10
454.20990370201724
20
597.3024620818715
42
0.13165
10
454.9946525124974
20
599.7688154862375
42
0.13165
10
454.44108821577976
20
602.2971145943688
42
0.13165
10
452.69753791812855
20
604.2099037020173
42
0.13165
10
450.23118451376246
20
604.9946525124974
42
0.13165
0
SEQEND
0
LWPOLYLINE
8
Holes
90
12
70
1
10
471.8333652194258
20
607.3465926909322
42
0.13165
10
470.9901984312808
20
602.9868865695732
42
0.13165
10
470.03396669256784
20
600.5818188631134
42
0.13165
10
470.4083795681674
20
598.0208532621411
42
0.13165
10
472.01311343042676
20
595.9901984312808
42
0.13165
10
474.4181811368866
20
595.0339666925679
42
0.13165
10
476.97914673785885
20
595.4083795681674
42
0.13165
10
479.0098015687192
20
597.0131134304268
42
0.13165
10
479.96603330743216
20
599.4181811368866
42
0.13165
10
479.5916204318326
20
601.9791467378589
42
0.13165
10
477.98688656957324
20
604.0098015687192
42
0.13165
10
475.5818188631134
20
604.9660333074321
42
0.13165
0
SEQEND
0
LWPOLYLINE
8
Holes
90
12
70
1
10
497.39207453344477
20
607.5629838530102
42
0.13165
10
496.2249864801761
20
603.2786083824004
42
0.13165
10
495.0914382010025
20
600.9518513883074
42
0.13165
10
495.27313509186865
20
598.370046583403
42
0.13165
10
496.7213916175996
20
596.2249864801761
42
0.13165
10
499.04814861169257
20
595.0914382010026
42
0.13165
10
501.629953416597
20
595.2731350918687
42
0.13165
10
503.7750135198239
20
596.7213916175996
42
0.13165
10
504.9085617989975
20
599.0481486116926
42
0.13165
10
504.72686490813135
20
601.629953416597
42
0.13165
10
503.2786083824004
20
603.7750135198239
42
0.13165
10
500.95185138830743
20
604.9085617989974
42
0.13165
0
SEQEND
0
LWPOLYLINE
8
Holes
90
12
70
1
10
522.9969374242519
20
607.7451752928928
42
0.13165
10
521.4954432984912
20
603.5662420453342
42
0.13165
10
520.1818438448232
20
601.3361778565492
42
0.13165
10
520.159265441942
20
598.7480858901574
42
0.13165
10
521.4337579546658
20
596.4954432984912
42
0.13165
10
523.6638221434508
20
595.1818438448232
42
0.13165
10
526.2519141098426
20
595.159265441942
42
0.13165
10
528.5045567015088
20
596.4337579546658
42
0.13165
10
529.8181561551768
20
598.6638221434508
42
0.13165
10
529.840734558058
20
601.2519141098426
42
0.13165
10
528.5662420453342
20
603.5045567015088
42
0.13165
10
526.3361778565492
20
604.8181561551768
42
0.13165
0
SEQEND
0
LWPOLYLINE
8
Holes
90
12
70
1
10
548.6407446679389
20
607.8836809259548
42
0.13165
10
546.8006311807676
20
603.8424001819857
42
0.13165
10
545.3080652354761
20
601.7279317594894
42
0.13165
10
545.0726994212782
20
599.1504654174618
42
0.13165
10
546.1575998180143
20
596.8006311807676
42
0.13165
10
548.2720682405106
20
595.3080652354761
42
0.13165
10
550.8495345825382
20
595.0726994212782
42
0.13165
10
553.1993688192324
20
596.1575998180143
42
0.13165
10
554.6919347645239
20
598.2720682405106
42
0.13165
10
554.9273005787218
20
600.8495345825382
42
0.13165
10
553.8424001819857
20
603.1993688192324
42
0.13165
10
551.7279317594894
20
604.6919347645239
42
0.13165
0
SEQEND
0
LWPOLYLINE
8
Holes
90
12
70
1
10
574.3128932627759
20
607.9704381517995
42
0.13165
10
572.1373306465955
20
604.0994053438369
42
0.13165
10
570.4711529453981
20
602.1188544914702
42
0.13165
10
570.0184761551253
20
599.5705582892349
42
0.13165
10
570.9005946561631
20
597.1373306465955
42
0.13165
10
572.8811455085298
20
595.4711529453981
42
0.13165
10
575.4294417107651
20
595.0184761551253
42
0.13165
10
577.8626693534045
20
595.9005946561631
42
0.13165
10
579.5288470546019
20
597.8811455085298
42
0.13165
10
579.9815238448747
20
600.4294417107651
42
0.13165
10
579.0994053438369
20
602.8626693534045
42
0.13165
10
577.1188544914702
20
604.5288470546019
42
0.13165
0
SEQEND
0
LWPOLYLINE
8
Holes
90
12
70
1
10
600.0
20
608.0
42
0.13165
10
597.5
20
604.3301270189222
42
0.13165
10
595.6698729810778
20
602.5
42
0.13165
10
595.0
20
600.0
42
0.13165
10
595.6698729810778
20
597.5
42
0.13165
10
597.5
20
595.6698729810778
42
0.13165
10
600.0
20
595.0
42
0.13165
10
602.5
20
595.6698729810778
42
0.13165
10
604.3301270189222
20
597.5
42
0.13165
10
605.0
20
600.0
42
0.13165
10
604.3301270189222
20
602.5
42
0.13165
10
602.5
20
604.3301270189222
42
0.13165
0
SEQEND
0
LWPOLYLINE
8
Holes
90
12
70
1
10
625.6871067372241
20
607.9704381517995
42
0.13165
10
622.8811455085298
20
604.5288470546019
42
0.13165
10
620.9005946561631
20
602.8626693534045
42
0.13165
10
620.0184761551253
20
600.4294417107651
42
0.13165
10
620.4711529453981
20
597.8811455085298
42
0.13165
10
622.1373306465955
20
595.9005946561631
42
0.13165
10
624.5705582892349
20
595.0184761551253
42
0.13165
10
627.1188544914702
20
595.4711529453981
42
0.13165
10
629.0994053438369
20
597.1373306465955
42
0.13165
10
629.9815238448747
20
599.5705582892349
42
0.13165
10
629.5288470546019
20
602.1188544914702
42
0.13165
10
627.8626693534045
20
604.0994053438369
42
0.13165
0
SEQEND
0
LWPOLYLINE
8
Holes
90
12
70
1
10
651.3592553320611
20
607.8836809259548
42
0.13165
10
648.2720682405106
20
604.6919347645239
42
0.13165
10
646.1575998180143
20
603.1993688192324
42
0.13165
10
645.0726994212782
20
600.8495345825382
42
0.13165
10
645.3080652354761
20
598.2720682405106
42
0.13165
10
646.8006311807676
20
596.1575998180143
42
0.13165
10
649.1504654174618
20
595.0726994212782
42
0.13165
10
651.7279317594894
20
595.3080652354761
42
0.13165
10
653.8424001819857
20
596.8006311807676
42
0.13165
10
654.9273005787218
20
599.1504654174618
42
0.13165
10
654.6919347645239
20
601.7279317594894
42
0.13165
10
653.1993688192324
20
603.8424001819857
42
0.13165
0
SEQEND
0
LWPOLYLINE
8
Holes
90
12
70
1
10
677.0030625757481
20
607.7451752928928
42
0.13165
10
673.6638221434508
20
604.8181561551768
42
0.13165
10
671.4337579546658
20
603.5045567015088
42
0.13165
10
670.159265441942
20
601.2519141098426
42
0.13165
10
670.1818438448232
20
598.6638221434508
42
0.13165
10
671.4954432984912
20
596.4337579546658
42
0.13165
10
673.7480858901574
20
595.159265441942
42
0.13165
10
676.3361778565492
20
595.1818438448232
42
0.13165
10
678.5662420453342
20
596.4954432984912
42
0.13165
10
679.840734558058
20
598.7480858901574
42
0.13165
10
679.8181561551768
20
601.3361778565492
42
0.13165
10
678.5045567015088
20
603.5662420453342
42
0.13165
0
SEQEND
0
LWPOLYLINE
8
Holes
90
12
70
1
10
702.6079254665552
20
607.5629838530102
42
0.13165
10
699.0481486116926
20
604.9085617989974
42
0.13165
10
696.7213916175996
20
603.7750135198239
42
0.13165
10
695.2731350918687
20
601.629953416597
42
0.13165
10
695.0914382010026
20
599.0481486116926
42
0.13165
10
696.2249864801761
20
596.7213916175996
42
0.13165
10
698.370046583403
20
595.2731350918687
42
0.13165
10
700.9518513883074
20
595.0914382010026
42
0.13165
10
703.2786083824004
20
596.2249864801761
42
0.13165
10
704.7268649081313
20
598.370046583403
42
0.13165
10
704.9085617989974
20
600.9518513883074
42
0.13165
10
703.7750135198239
20
603.2786083824004
42
0.13165
0
SEQEND
0
LWPOLYLINE
8
Holes
90
12
70
1
10
728.1666347805742
20
607.3465926909322
42
0.13165
10
724.4181811368866
20
604.9660333074321
42
0.13165
10
722.0131134304268
20
604.0098015687192
42
0.13165
10
720.4083795681674
20
601.9791467378589
42
0.13165
10
720.0339666925679
20
599.4181811368866
42
0.13165
10
720.9901984312808
20
597.0131134304268
42
0.13165
10
723.0208532621411
20
595.4083795681674
42
0.13165
10
725.5818188631134
20
595.0339666925679
42
0.13165
10
727.9868865695732
20
595.9901984312808
42
0.13165
10
729.5916204318326
20
598.0208532621411
42
0.13165
10
729.9660333074321
20
600.5818188631134
42
0.13165
10
729.0098015687192
20
602.9868865695732
42
0.13165
0
SEQEND
0
LWPOLYLINE
8
Holes
90
12
70
1
10
753.6753833509902
20
607.1057411452476
42
0.13165
10
749.7688154862375
20
604.9946525124974
42
0.13165
10
747.3024620818715
20
604.2099037020173
42
0.13165
10
745.5589117842203
20
602.2971145943688
42
0.13165
10
745.0053474875026
20
599.7688154862375
42
0.13165
10
745.7900962979827
20
597.3024620818715
42
0.13165
10
747.7028854056312
20
595.5589117842203
42
0.13165
10
750.2311845137625
20
595.0053474875026
42
0.13165
10
752.6975379181285
20
595.7900962979827
42
0.13165
10
754.4410882157797
20
597.7028854056312
42
0.13165
10
754.9946525124974
20
600.2311845137625
42
0.13165
10
754.2099037020173
20
602.6975379181285
42
0.13165
0
SEQEND
0
LWPOLYLINE
8
Holes
90
12
70
1
10
779.1333197430754
20
606.8495012885248
42
0.13165
10
775.0967557845029
20
604.999063744159
42
0.13165
10
772.5842610952631
20
604.3776940898309
42
0.13165
10
770.719061694672
20
602.5833248394221
42
0.13165
10
770.000936255841
20
600.0967557845029
42
0.13165
10
770.6223059101691
20
597.5842610952631
42
0.13165
10
772.4166751605779
20
595.719061694672
42
0.13165
10
774.9032442154971
20
595.000936255841
42
0.13165
10
777.4157389047369
20
595.6223059101691
42
0.13165
10
779.280938305328
20
597.4166751605779
42
0.13165
10
779.999063744159
20
599.9032442154971
42
0.13165
10
779.3776940898309
20
602.4157389047369
42
0.13165
0
SEQEND
0
LWPOLYLINE
8
Holes
90
12
70
1
10
804.5418636464293
20
606.5857022873224
42
0.13165
10
800.4003238466697
20
604.9839483161232
42
0.13165
10
797.8547164628951
20
604.5163877762462
42
0.13165
10
795.8839360704235
20
602.8386647790182
42
0.13165
10
795.0160516838768
20
600.4003238466697
42
0.13165
10
795.4836122237538
20
597.8547164628951
42
0.13165
10
797.1613352209818
20
595.8839360704235
42
0.13165
10
799.5996761533303
20
595.0160516838768
42
0.13165
10
802.1452835371049
20
595.4836122237538
42
0.13165
10
804.1160639295765
20
597.1613352209818
42
0.13165
10
804.9839483161232
20
599.5996761533303
42
0.13165
10
804.5163877762462
20
602.1452835371049
42
0.13165
0
SEQEND
0
LWPOLYLINE
8
Holes
90
12
70
1
10
829.9039768230127
20
606.3206812385497
42
0.13165
10
825.6791424306401
20
604.9536618333213
42
0.13165
10
823.1113236810617
20
604.6295682047337
42
0.13165
10
821.0495742259064
20
603.0649855143829
42
0.13165
10
820.0463381666787
20
600.6791424306401
42
0.13165
10
820.3704317952663
20
598.1113236810617
42
0.13165
10
821.9350144856171
20
596.0495742259064
42
0.13165
10
824.3208575693599
20
595.0463381666787
42
0.13165
10
826.8886763189383
20
595.3704317952663
42
0.13165
10
828.9504257740936
20
596.9350144856171
42
0.13165
10
829.9536618333213
20
599.3208575693599
42
0.13165
10
829.6295682047337
20
601.8886763189383
42
0.13165
0
SEQEND
0
LWPOLYLINE
8
Holes
90
12
70
1
10
855.2235169765557
20
606.0592796928046
42
0.13165
10
850.9337865952464
20
604.9120303943012
42
0.13165
10
848.3526677160462
20
604.7208364032492
42
0.13165
10
846.2129501919972
20
603.2646981103474
42
0.13165
10
845.0879696056988
20
600.9337865952464
42
0.13165
10
845.2791635967508
20
598.3526677160462
42
0.13165
10
846.7353018896526
20
596.2129501919972
42
0.13165
10
849.0662134047536
20
595.0879696056988
42
0.13165
10
851.6473322839538
20
595.2791635967508
42
0.13165
10
853.7870498080028
20
596.7353018896526
42
0.13165
10
854.9120303943012
20
599.0662134047536
42
0.13165
10
854.7208364032492
20
601.6473322839538
42
0.13165
0
SEQEND
0
LWPOLYLINE
8
Holes
90
12
70
1
10
880.5047326640744
20
605.8049908093875
42
0.13165
10
876.1654643271479
20
604.8622724010637
42
0.13165
10
873.5781855139828
20
604.7935835830151
42
0.13165
10
871.3718807441328
20
603.4404579150464
42
0.13165
10
870.1377275989363
20
601.1654643271479
42
0.13165
10
870.2064164169849
20
598.5781855139828
42
0.13165
10
871.5595420849536
20
596.3718807441328
42
0.13165
10
873.8345356728521
20
595.1377275989363
42
0.13165
10
876.4218144860172
20
595.2064164169849
42
0.13165
10
878.6281192558672
20
596.5595420849536
42
0.13165
10
879.8622724010637
20
598.8345356728521
42
0.13165
10
879.7935835830151
20
601.4218144860172
42
0.13165
0
SEQEND
0
LWPOLYLINE
8
Holes
90
12
70
1
10
905.7519070083929
20
605.5601767747798
42
0.13165
10
901.3757557513026
20
604.80700490043
42
0.13165
10
898.7879369798155
20
604.8508662355399
42
0.13165
10
896.5248895157627
20
603.5949418802455
42
0.13165
10
895.19299509957
20
601.3757557513026
42
0.13165
10
895.1491337644601
20
598.7879369798155
42
0.13165
10
896.4050581197545
20
596.5248895157627
42
0.13165
10
898.6242442486974
20
595.19299509957
42
0.13165
10
901.2120630201845
20
595.1491337644601
42
0.13165
10
903.4751104842373
20
596.4050581197545
42
0.13165
10
904.80700490043
20
598.6242442486974
42
0.13165
10
904.8508662355399
20
601.2120630201845
42
0.13165
0
SEQEND
0
LWPOLYLINE
8
Holes
90
12
70
1
10
930.9691304102683
20
605.3263009814701
42
0.13165
10
926.5664175519122
20
604.7482982270558
42
0.13165
10
923.9824082793618
20
604.8953556653311
42
0.13165
10
921.6710618865811
20
603.7307065064177
42
0.13165
10
920.2517017729442
20
601.5664175519122
42
0.13165
10
920.1046443346689
20
598.9824082793618
42
0.13165
10
921.2692934935823
20
596.6710618865811
42
0.13165
10
923.4335824480878
20
595.2517017729442
42
0.13165
10
926.0175917206382
20
595.1046443346689
42
0.13165
10
928.3289381134189
20
596.2692934935823
42
0.13165
10
929.7482982270558
20
598.4335824480878
42
0.13165
10
929.8953556653311
20
601.0175917206382
42
0.13165
0
SEQEND
0
LWPOLYLINE
8
Holes
90
12
70
1
10
956.1601724872445
20
605.1041429180026
42
0.13165
10
951.739246504154
20
604.6877522969743
42
0.13165
10
949.1623555075535
20
604.9293358279057
42
0.13165
10
946.8099106762484
20
603.8501078045279
42
0.13165
10
945.3122477030257
20
601.739246504154
42
0.13165
10
945.0706641720943
20
599.1623555075535
42
0.13165
10
946.1498921954721
20
596.8099106762484
42
0.13165
10
948.260753495846
20
595.3122477030257
42
0.13165
10
950.8376444924465
20
595.0706641720943
42
0.13165
10
953.1900893237516
20
596.1498921954721
42
0.13165
10
954.6877522969743
20
598.260753495846
42
0.13165
10
954.9293358279057
20
600.8376444924465
42
0.13165
0
SEQEND
0
LWPOLYLINE
8
Holes
90
12
70
1
10
981.3284238729004
20
604.8939811283764
42
0.13165
10
976.8959907972871
20
604.6265774495411
42
0.13165
10
974.3286874710217
20
604.9547290025224
42
0.13165
10
971.9412617947648
20
603.9552649205627
42
0.13165
10
970.3734225504589
20
601.8959907972873
42
0.13165
10
970.0452709974776
20
599.3286874710217
42
0.13165
10
971.0447350794373
20
596.9412617947648
42
0.13165
10
973.1040092027129
20
595.3734225504589
42
0.13165
10
975.6713125289783
20
595.0452709974776
42
0.13165
10
978.0587382052352
20
596.0447350794373
42
0.13165
10
979.6265774495411
20
598.1040092027129
42
0.13165
10
979.9547290025224
20
600.6713125289783
42
0.13165
0
SEQEND
0
LWPOLYLINE
8
Holes
90
12
70
1
10
1006.4768835471551
20
604.6957405716875
42
0.13165
10
1002.0382971270913
20
604.5656702489001
42
0.13165
10
999.4823819680719
20
604.973134984396
42
0.13165
10
997.0651621426954
20
604.0480522169719
42
0.13165
10
995.4343297510999
20
602.0382971270913
42
0.13165
10
995.026865015604
20
599.4823819680719
42
0.13165
10
995.9519477830281
20
597.0651621426954
42
0.13165
10
997.9617028729087
20
595.4343297510999
42
0.13165
10
1000.5176180319281
20
595.026865015604
42
0.13165
10
1002.9348378573046
20
595.9519477830281
42
0.13165
10
1004.5656702489001
20
597.9617028729087
42
0.13165
10
1004.973134984396
20
600.5176180319281
42
0.13165
0
SEQEND
0
LWPOLYLINE
8
Holes
90
12
70
1
10
1031.6081735233115
20
604.509106639436
42
0.13165
10
1027.1676830150534
20
604.5056797873627
42
0.13165
10
1024.6244286647068
20
604.9858746647009
42
0.13165
10
1022.1818083503525
20
604.1301084520696
42
0.13165
10
1020.4943202126373
20
602.1676830150534
42
0.13165
10
1020.0141253352991
20
599.6244286647069
42
0.13165
10
1020.8698915479304
20
597.1818083503525
42
0.13165
10
1022.8323169849466
20
595.4943202126373
42
0.13165
10
1025.3755713352932
20
595.0141253352991
42
0.13165
10
1027.8181916496476
20
595.8698915479304
42
0.13165
10
1029.5056797873629
20
597.8323169849466
42
0.13165
10
1029.985874664701
20
600.3755713352931
42
0.13165
0
SEQEND
0
LWPOLYLINE
8
Holes
90
12
70
1
10
1056.724568280749
20
604.333610669816
42
0.13165
10
1052.2855260160648
20
604.4470631690916
42
0.13165
10
1049.7557920063766
20
604.9940326846998
42
0.13165
10
1047.291493331365
20
604.2028551754681
42
0.13165
10
1045.5529368309085
20
602.2855260160649
42
0.13165
10
1045.0059673153
20
599.7557920063766
42
0.13165
10
1045.7971448245319
20
597.291493331365
42
0.13165
10
1047.7144739839352
20
595.5529368309084
42
0.13165
10
1050.2442079936234
20
595.0059673153002
42
0.13165
10
1052.708506668635
20
595.7971448245319
42
0.13165
10
1054.4470631690915
20
597.7144739839351
42
0.13165
10
1054.9940326847
20
600.2442079936234
42
0.13165
0
SEQEND
0
LWPOLYLINE
8
Holes
90
12
70
1
10
1081.8280307109812
20
604.1686924340728
42
0.13165
10
1077.3930636478085
20
604.3901305649761
42
0.13165
10
1074.8773886293873
20
604.9984964191041
42
0.13165
10
1072.3945672287045
20
604.2675191943633
42
0.13165
10
1070.609869435024
20
602.3930636478086
42
0.13165
10
1070.0015035808958
20
599.8773886293873
42
0.13165
10
1070.7324808056367
20
597.3945672287045
42
0.13165
10
1072.6069363521915
20
595.6098694350239
42
0.13165
10
1075.1226113706127
20
595.0015035808959
42
0.13165
10
1077.6054327712955
20
595.7324808056367
42
0.13165
10
1079.390130564976
20
597.6069363521914
42
0.13165
10
1079.9984964191042
20
600.1226113706127
42
0.13165
0
SEQEND
0
LWPOLYLINE
8
Holes
90
12
70
1
10
1106.9202495140944
20
604.0137447181747
42
0.13165
10
1102.4913997004032
20
604.3350810295576
42
0.13165
10
1099.9900749167514
20
604.9999901492625
42
0.13165
10
1097.4914095511408
20
604.325155946309
42
0.13165
10
1095.6649189704424
20
602.4913997004033
42
0.13165
10
1095.0000098507373
20
599.9900749167514
42
0.13165
10
1095.674844053691
20
597.4914095511408
42
0.13165
10
1097.5086002995968
20
595.6649189704424
42
0.13165
10
1100.0099250832486
20
595.0000098507375
42
0.13165
10
1102.5085904488592
20
595.674844053691
42
0.13165
10
1104.3350810295576
20
597.5086002995967
42
0.13165
10
1104.9999901492627
20
600.0099250832486
42
0.13165
0
SEQEND
0
LWPOLYLINE
8
Holes
90
12
70
1
10
1132.0026751438431
20
603.8681443651706
42
0.13165
10
1127.5815139915205
20
604.2820305360406
42
0.13165
10
1125.0946414288615
20
604.9991042197521
42
0.13165
10
1122.5824097717684
20
604.376671964902
42
0.13165
10
1120.7179694639594
20
602.5815139915205
42
0.13165
10
1120.000895780248
20
600.0946414288615
42
0.13165
10
1120.623328035098
20
597.5824097717684
42
0.13165
10
1122.4184860084795
20
595.7179694639594
42
0.13165
10
1124.9053585711385
20
595.0008957802479
42
0.13165
10
1127.4175902282316
20
595.623328035098
42
0.13165
10
1129.2820305360406
20
597.4184860084795
42
0.13165
10
1129.999104219752
20
599.9053585711385
42
0.13165
0
SEQEND
0
ENDSEC
0
EOF
